M48
;DRILL file {KiCad (5.0.2)-1} date 2019/04/05 23:20:58
;FORMAT={-:-/ absolute / inch / decimal}
FMAT,2
INCH,TZ
T1C0.0157
T2C0.0315
T3C0.0320
T4C0.0350
T5C0.0382
T6C0.0394
T7C0.0866
T8C0.0669
T9C0.0748
T10C0.0866
T11C0.1181
T12C0.1200
T13C0.1280
T14C0.1570
T15C0.1614
%
G90
G05
T1
X0.3516Y-1.125
X0.3685Y-1.2831
X0.3828Y-0.6063
X0.4141Y-0.5391
X0.4141Y-1.125
X0.4297Y-1.2422
X0.8435Y-1.2188
X0.8594Y-1.8672
X0.9211Y-1.2246
X0.9586Y-1.0496
X0.9961Y-0.7371
X1.0461Y-0.7871
X1.0711Y-1.0121
X1.1461Y-0.8371
X1.2086Y-0.8996
X1.3086Y-0.3996
X1.3461Y-0.7371
X1.4461Y-0.9871
X1.4961Y-1.0371
X1.5461Y-1.5371
X1.5711Y-1.2621
X1.5961Y-0.4371
X1.6094Y-2.6172
X1.6461Y-0.8871
X1.6961Y-0.4871
X1.7336Y-0.8496
X1.7586Y-0.5496
X1.8086Y-1.1996
X1.8461Y-0.5871
X1.8961Y-0.5371
X1.9461Y-0.5371
X2.0961Y-0.6871
X2.1461Y-0.4371
X2.1711Y-1.1621
X2.1711Y-1.5996
X2.1836Y-1.5621
X2.2211Y-0.6621
X2.2461Y-0.4871
X2.2586Y-0.8246
X2.2961Y-0.6371
X2.2961Y-0.8871
X2.2961Y-1.0871
X2.3461Y-0.6871
X2.3461Y-0.9371
X2.3961Y-0.7871
X2.6211Y-1.2371
X3.0117Y-1.6406
X3.1055Y-2.8828
X3.5336Y-0.7746
X3.5336Y-1.5246
T2
X0.2344Y-1.7344
X0.2344Y-3.1094
X0.4531Y-2.2344
X0.4531Y-2.9844
X0.5Y-1.875
X0.5Y-2.625
X0.7656Y-1.9531
X0.9219Y-3.7344
X0.9687Y-3.375
X1.2031Y-2.2344
X1.2031Y-2.9844
X1.2157Y-1.5781
X1.25Y-1.875
X1.25Y-2.625
X1.3906Y-3.7187
X1.5156Y-1.9531
X1.5156Y-2.7031
X1.9531Y-2.2344
X1.9531Y-2.9844
X1.9844Y-1.5781
X2.Y-1.875
X2.Y-2.625
X2.7031Y-2.2344
X2.7031Y-2.9844
X2.75Y-1.875
X2.75Y-2.625
X2.7969Y-3.7344
X2.8211Y-1.5746
X2.8437Y-3.375
X3.0156Y-1.9531
X3.0156Y-2.7031
X3.0312Y-3.1094
X3.1094Y-3.4375
X3.4531Y-2.2344
X3.4531Y-2.9844
X3.5Y-1.875
X3.5Y-2.625
X3.8437Y-1.7344
X1.9687Y-2.4844
X2.2187Y-2.4844
X1.2187Y-1.7344
X1.4687Y-1.7344
X1.9687Y-1.7344
X2.2187Y-1.7344
X2.7187Y-1.7344
X2.9687Y-1.7344
X2.8125Y-3.2344
X3.0625Y-3.2344
X3.4687Y-2.4844
X3.7187Y-2.4844
X1.2187Y-2.4844
X1.4687Y-2.4844
X0.4687Y-1.7344
X0.7187Y-1.7344
X3.4687Y-1.7344
X3.7187Y-1.7344
X0.9375Y-3.2344
X1.1875Y-3.2344
X0.4687Y-2.4844
X0.7187Y-2.4844
X2.7187Y-2.4844
X2.9687Y-2.4844
T3
X0.9844Y-2.0625
X3.8594Y-2.0625
X2.4844Y-2.0625
X1.125Y-1.7344
X0.375Y-1.7344
X0.8594Y-2.8125
X2.4844Y-2.8125
X1.125Y-3.1094
X0.9844Y-2.8125
X0.375Y-2.4844
X0.375Y-3.1094
X0.8437Y-3.8594
X0.8594Y-2.0625
X2.5781Y-3.5625
X1.7344Y-2.0625
X3.375Y-2.4844
X3.375Y-3.1094
X1.875Y-1.7344
X1.3281Y-3.5625
X3.2344Y-2.0625
X3.8594Y-2.8125
X2.625Y-2.3594
X1.6094Y-2.0625
X3.1094Y-2.0625
X2.625Y-3.1094
X1.875Y-2.3594
X0.2344Y-2.0625
X3.2344Y-2.8125
X3.375Y-1.7344
X1.875Y-2.4844
X1.875Y-3.1094
X1.6094Y-2.8125
X3.375Y-2.3594
X0.2344Y-2.8125
X1.7344Y-2.8125
X2.625Y-2.4844
X2.7187Y-3.8594
X1.125Y-2.3594
X3.1094Y-2.8125
X3.2031Y-3.5625
X2.3594Y-2.0625
X1.125Y-2.4844
X0.7031Y-3.5625
X2.625Y-1.7344
X2.7187Y-3.2344
X0.375Y-2.3594
X2.3594Y-2.8125
X0.8437Y-3.2344
T4
X3.5187Y-0.4469
X3.5187Y-0.5272
X3.5187Y-0.6075
X3.5187Y-0.6878
X3.5888Y-0.4067
X3.5888Y-0.487
X3.5888Y-0.5673
X3.5888Y-0.6477
X3.5187Y-1.1969
X3.5187Y-1.2772
X3.5187Y-1.3575
X3.5187Y-1.4378
X3.5888Y-1.1567
X3.5888Y-1.237
X3.5888Y-1.3173
X3.5888Y-1.3977
T5
X0.7211Y-1.3246
X0.7211Y-1.4246
X0.8211Y-1.3246
X0.8211Y-1.4246
X0.9211Y-1.3246
X0.9211Y-1.4246
X1.0211Y-1.3246
X1.0211Y-1.4246
X1.1211Y-1.3246
X1.1211Y-1.4246
X1.2211Y-1.3246
X1.2211Y-1.4246
X1.3211Y-1.3246
X1.3211Y-1.4246
X1.4211Y-1.3246
X1.4211Y-1.4246
X1.5211Y-1.3246
X1.5211Y-1.4246
X1.6211Y-1.3246
X1.6211Y-1.4246
X1.7211Y-1.3246
X1.7211Y-1.4246
X1.8211Y-1.3246
X1.8211Y-1.4246
X1.9211Y-1.3246
X1.9211Y-1.4246
X2.0211Y-1.3246
X2.0211Y-1.4246
X2.1211Y-1.3246
X2.1211Y-1.4246
X2.2211Y-1.3246
X2.2211Y-1.4246
X2.3211Y-1.3246
X2.3211Y-1.4246
X2.4211Y-1.3246
X2.4211Y-1.4246
X2.5211Y-1.3246
X2.5211Y-1.4246
X2.6211Y-1.3246
X2.6211Y-1.4246
T6
X0.2891Y-1.1625
X0.2891Y-1.2625
X0.2891Y-1.3625
X0.2891Y-1.4625
X2.5211Y-0.8871
X2.5211Y-0.9871
X2.5211Y-1.0871
X2.5211Y-1.1871
X2.6211Y-0.8371
X2.6211Y-0.9371
X2.6211Y-1.0371
X2.6211Y-1.1371
X0.7211Y-0.8871
X0.7211Y-0.9871
X0.7211Y-1.0871
X0.7211Y-1.1871
X0.8211Y-0.8371
X0.8211Y-0.9371
X0.8211Y-1.0371
X0.8211Y-1.1371
X0.2891Y-0.4125
X0.2891Y-0.5125
X0.2891Y-0.6125
X0.2891Y-0.7125
X3.3187Y-0.4219
X3.3187Y-0.5219
X3.3187Y-0.6219
X3.3187Y-0.7219
X3.3937Y-0.3719
X3.3937Y-0.4719
X3.3937Y-0.5719
X3.3937Y-0.6719
X2.5211Y-0.4371
X2.5211Y-0.5371
X2.5211Y-0.6371
X2.5211Y-0.7371
X2.6211Y-0.3871
X2.6211Y-0.4871
X2.6211Y-0.5871
X2.6211Y-0.6871
X3.3187Y-1.1719
X3.3187Y-1.2719
X3.3187Y-1.3719
X3.3187Y-1.4719
X3.3937Y-1.1219
X3.3937Y-1.2219
X3.3937Y-1.3219
X3.3937Y-1.4219
X0.3969Y-0.2656
X0.4969Y-0.2656
X0.5969Y-0.2656
X0.6969Y-0.2656
X0.7211Y-0.4371
X0.7211Y-0.5371
X0.7211Y-0.6371
X0.7211Y-0.7371
X0.8211Y-0.3871
X0.8211Y-0.4871
X0.8211Y-0.5871
X0.8211Y-0.6871
X1.1469Y-0.2656
X1.2469Y-0.2656
X1.3469Y-0.2656
X1.4469Y-0.2656
T7
X0.2656Y-2.4219
X3.8281Y-3.8281
X0.8281Y-2.4219
X3.1719Y-3.0781
X2.5156Y-2.4219
X1.5781Y-2.4219
X0.6406Y-3.2656
X3.1719Y-0.8281
X0.9219Y-0.2656
X3.2656Y-0.9219
X0.5301Y-0.4691
X0.5301Y-1.3746
X2.8136Y-0.4691
X2.8136Y-1.3746
X3.1719Y-1.0156
X1.6719Y-3.0781
X2.3281Y-2.4219
X3.2656Y-3.8281
X2.2344Y-3.8281
X1.6719Y-1.7656
X3.1719Y-2.3281
X3.1719Y-1.5781
X1.6719Y-1.5781
X0.9219Y-1.7656
X3.0781Y-0.9219
X0.6406Y-3.8281
X0.9219Y-3.0781
X1.9531Y-3.2656
X3.0781Y-2.4219
X3.1719Y-0.2656
X1.0156Y-2.4219
X0.9219Y-2.3281
X0.3594Y-3.8281
X3.8281Y-2.4219
X3.8281Y-3.2656
X2.4219Y-2.5156
X3.1719Y-1.7656
X2.4219Y-2.3281
X2.4219Y-1.5781
X1.3906Y-3.8281
X1.6719Y-2.5156
X1.3906Y-3.2656
X3.2656Y-3.2656
X1.6719Y-3.2656
X2.5156Y-3.2656
X0.2656Y-0.9375
X2.4219Y-1.7656
X1.7656Y-2.4219
X3.5469Y-3.2656
X3.8281Y-0.9219
X3.5469Y-3.8281
X0.3594Y-3.2656
X1.6719Y-3.8281
X1.9504Y-3.8281
X2.2344Y-3.2656
X0.9219Y-1.5781
X1.6719Y-0.2656
X0.9219Y-2.5156
X2.4219Y-0.2656
X2.5156Y-3.8281
X2.4219Y-3.0781
X3.1719Y-2.5156
X3.2656Y-2.4219
X1.6719Y-2.3281
T8
X2.5969Y-2.0469
X2.6197Y-2.0469
X2.974Y-2.0469
X2.9969Y-2.0469
X1.8469Y-2.0469
X1.8697Y-2.0469
X2.224Y-2.0469
X2.2469Y-2.0469
X2.5969Y-2.7969
X2.6197Y-2.7969
X2.974Y-2.7969
X2.9969Y-2.7969
X1.0969Y-2.7969
X1.1197Y-2.7969
X1.474Y-2.7969
X1.4969Y-2.7969
X3.3469Y-2.0469
X3.3697Y-2.0469
X3.724Y-2.0469
X3.7469Y-2.0469
X0.3469Y-2.7969
X0.3697Y-2.7969
X0.724Y-2.7969
X0.7469Y-2.7969
X0.3469Y-2.0469
X0.3697Y-2.0469
X0.724Y-2.0469
X0.7469Y-2.0469
X0.8156Y-3.5469
X0.8385Y-3.5469
X1.1928Y-3.5469
X1.2156Y-3.5469
X2.6906Y-3.5469
X2.7135Y-3.5469
X3.0678Y-3.5469
X3.0906Y-3.5469
X1.0969Y-2.0469
X1.1197Y-2.0469
X1.474Y-2.0469
X1.4969Y-2.0469
X1.8469Y-2.7969
X1.8697Y-2.7969
X2.224Y-2.7969
X2.2469Y-2.7969
X3.3469Y-2.7969
X3.3697Y-2.7969
X3.724Y-2.7969
X3.7469Y-2.7969
T9
X3.3303Y-2.0469
X3.7634Y-2.0469
X0.3303Y-2.7969
X0.7634Y-2.7969
X0.3303Y-2.0469
X0.7634Y-2.0469
X0.7991Y-3.5469
X1.2322Y-3.5469
X2.6741Y-3.5469
X3.1072Y-3.5469
X1.0803Y-2.0469
X1.5134Y-2.0469
X1.8303Y-2.7969
X2.2634Y-2.7969
X3.3303Y-2.7969
X3.7634Y-2.7969
X2.5803Y-2.0469
X3.0134Y-2.0469
X1.8303Y-2.0469
X2.2634Y-2.0469
X2.5803Y-2.7969
X3.0134Y-2.7969
X1.0803Y-2.7969
X1.5134Y-2.7969
T10
X1.0317Y-0.0781
X3.6406Y-0.0781
X0.4401Y-0.0781
X0.0781Y-3.4687
X0.0781Y-3.2591
X2.813Y-0.0781
X1.6875Y-0.0781
X3.0781Y-0.0781
X3.2591Y-0.0781
X0.0781Y-1.5312
X0.0781Y-2.125
X2.0469Y-0.0781
X2.2214Y-0.0781
X0.0781Y-1.7057
X0.0781Y-0.2664
X1.4779Y-0.0781
X1.8594Y-0.0781
X0.0781Y-0.8594
X3.8281Y-0.0781
X0.0781Y-3.6406
X1.2969Y-0.0781
X0.0781Y-3.8281
X0.0781Y-2.6406
X3.4687Y-0.0781
X0.8594Y-0.0781
X0.0781Y-2.813
X0.0781Y-1.0264
X2.6406Y-0.0781
X0.2656Y-0.0781
X0.0781Y-3.0781
X0.0781Y-0.0781
X0.0781Y-2.3026
T11
X3.35Y-2.1925
X3.3969Y-1.9469
X3.5469Y-2.2792
X3.6469Y-1.8469
X0.35Y-2.9425
X0.3969Y-2.6969
X0.5469Y-3.0292
X0.6469Y-2.5969
X0.35Y-2.1925
X0.3969Y-1.9469
X0.5469Y-2.2792
X0.6469Y-1.8469
X0.8188Y-3.6925
X0.8656Y-3.4469
X1.0156Y-3.7792
X1.1156Y-3.3469
X2.6938Y-3.6925
X2.7406Y-3.4469
X2.8906Y-3.7792
X2.9906Y-3.3469
X1.1Y-2.1925
X1.1469Y-1.9469
X1.2969Y-2.2792
X1.3969Y-1.8469
X1.85Y-2.9425
X1.8969Y-2.6969
X2.0469Y-3.0292
X2.1469Y-2.5969
X3.35Y-2.9425
X3.3969Y-2.6969
X3.5469Y-3.0292
X3.6469Y-2.5969
X2.6Y-2.1925
X2.6469Y-1.9469
X2.7969Y-2.2792
X2.8969Y-1.8469
X1.85Y-2.1925
X1.8969Y-1.9469
X2.0469Y-2.2792
X2.1469Y-1.8469
X2.6Y-2.9425
X2.6469Y-2.6969
X2.7969Y-3.0292
X2.8969Y-2.5969
X1.1Y-2.9425
X1.1469Y-2.6969
X1.2969Y-3.0292
X1.3969Y-2.5969
T12
X0.5456Y-3.2719
X1.4856Y-3.2719
X2.4206Y-3.2719
X3.3606Y-3.2719
T13
X3.6888Y-0.2969
X3.6888Y-0.7969
X3.6888Y-1.0469
X3.6888Y-1.5469
T14
X0.5456Y-3.8719
X1.4856Y-3.8719
X2.4206Y-3.8719
X3.3606Y-3.8719
T15
X2.7969Y-2.0469
X2.0469Y-2.0469
X2.7969Y-2.7969
X1.2969Y-2.7969
X3.5469Y-2.0469
X0.5469Y-2.7969
X0.5469Y-2.0469
X1.0156Y-3.5469
X2.8906Y-3.5469
X1.2969Y-2.0469
X2.0469Y-2.7969
X3.5469Y-2.7969
T6
X3.5676Y-0.2268G85X3.54Y-0.2268
G05
X3.5676Y-0.8669G85X3.54Y-0.8669
G05
X3.5676Y-0.9768G85X3.54Y-0.9768
G05
X3.5676Y-1.6169G85X3.54Y-1.6169
G05
T0
M30
