G04 #@! TF.GenerationSoftware,KiCad,Pcbnew,(5.0.2)-1*
G04 #@! TF.CreationDate,2019-04-05T23:19:43+09:00*
G04 #@! TF.ProjectId,su128,73753132-382e-46b6-9963-61645f706362,rev?*
G04 #@! TF.SameCoordinates,PX23f4e34PY3256d7c*
G04 #@! TF.FileFunction,Legend,Top*
G04 #@! TF.FilePolarity,Positive*
%FSLAX46Y46*%
G04 Gerber Fmt 4.6, Leading zero omitted, Abs format (unit mm)*
G04 Created by KiCad (PCBNEW (5.0.2)-1) date 2019/04/05 23:19:43*
%MOMM*%
%LPD*%
G01*
G04 APERTURE LIST*
%ADD10C,0.150000*%
%ADD11C,0.200000*%
%ADD12C,0.120000*%
%ADD13C,0.010000*%
%ADD14C,1.800000*%
%ADD15R,1.800000X1.800000*%
%ADD16O,2.127200X2.127200*%
%ADD17R,2.127200X2.127200*%
%ADD18C,3.000000*%
%ADD19O,2.100000X2.100000*%
%ADD20C,2.100000*%
%ADD21C,1.797000*%
%ADD22C,2.400000*%
%ADD23C,3.650000*%
%ADD24C,1.900000*%
%ADD25C,3.448000*%
%ADD26C,4.387800*%
%ADD27C,3.400000*%
%ADD28C,2.300000*%
%ADD29C,4.500000*%
G04 APERTURE END LIST*
D10*
X85524905Y-77061920D02*
X85924905Y-77661920D01*
X85924905Y-77061920D02*
X85524905Y-77661920D01*
X85524905Y-64361920D02*
X85924905Y-64961920D01*
X85924905Y-64361920D02*
X85524905Y-64961920D01*
X85524905Y-58011920D02*
X85924905Y-58611920D01*
X85924905Y-58011920D02*
X85524905Y-58611920D01*
X85524905Y-45311920D02*
X85924905Y-45911920D01*
X85924905Y-45311920D02*
X85524905Y-45911920D01*
X66474905Y-45311920D02*
X66874905Y-45911920D01*
X66874905Y-45311920D02*
X66474905Y-45911920D01*
X66474905Y-58011920D02*
X66874905Y-58611920D01*
X66874905Y-58011920D02*
X66474905Y-58611920D01*
X66474905Y-64361920D02*
X66874905Y-64961920D01*
X66874905Y-64361920D02*
X66474905Y-64961920D01*
X66474905Y-77061920D02*
X66874905Y-77661920D01*
X66874905Y-77061920D02*
X66474905Y-77661920D01*
X47424905Y-77061920D02*
X47824905Y-77661920D01*
X47824905Y-77061920D02*
X47424905Y-77661920D01*
X47424905Y-64361920D02*
X47824905Y-64961920D01*
X47824905Y-64361920D02*
X47424905Y-64961920D01*
X47424905Y-58011920D02*
X47824905Y-58611920D01*
X47824905Y-58011920D02*
X47424905Y-58611920D01*
X47424905Y-45311920D02*
X47824905Y-45911920D01*
X47824905Y-45311920D02*
X47424905Y-45911920D01*
X28374905Y-45311920D02*
X28774905Y-45911920D01*
X28774905Y-45311920D02*
X28374905Y-45911920D01*
X28374905Y-58011920D02*
X28774905Y-58611920D01*
X28774905Y-58011920D02*
X28374905Y-58611920D01*
X28374905Y-64361920D02*
X28774905Y-64961920D01*
X28774905Y-64361920D02*
X28374905Y-64961920D01*
X28374905Y-77061920D02*
X28774905Y-77661920D01*
X28774905Y-77061920D02*
X28374905Y-77661920D01*
X9324905Y-64361920D02*
X9724905Y-64961920D01*
X9724905Y-64361920D02*
X9324905Y-64961920D01*
X9324905Y-77061920D02*
X9724905Y-77661920D01*
X9724905Y-77061920D02*
X9324905Y-77661920D01*
X21231155Y-96111920D02*
X21631155Y-96711920D01*
X21631155Y-96111920D02*
X21231155Y-96711920D01*
X21231155Y-83411920D02*
X21631155Y-84011920D01*
X21631155Y-83411920D02*
X21231155Y-84011920D01*
X68856155Y-83411920D02*
X69256155Y-84011920D01*
X69256155Y-83411920D02*
X68856155Y-84011920D01*
X68856155Y-96111920D02*
X69256155Y-96711920D01*
X69256155Y-96111920D02*
X68856155Y-96711920D01*
X81359280Y-92060581D02*
X81359280Y-92346295D01*
X81159280Y-91746295D02*
X81359280Y-92060581D01*
X81559280Y-91746295D01*
X65484280Y-92060581D02*
X65484280Y-92346295D01*
X65284280Y-91746295D02*
X65484280Y-92060581D01*
X65684280Y-91746295D01*
X33734280Y-92060581D02*
X33734280Y-92346295D01*
X33534280Y-91746295D02*
X33734280Y-92060581D01*
X33934280Y-91746295D01*
X17859280Y-92060581D02*
X17859280Y-92346295D01*
X17659280Y-91746295D02*
X17859280Y-92060581D01*
X18059280Y-91746295D01*
X5953030Y-73010581D02*
X5953030Y-73296295D01*
X5753030Y-72696295D02*
X5953030Y-73010581D01*
X6153030Y-72696295D01*
X21828030Y-73010581D02*
X21828030Y-73296295D01*
X21628030Y-72696295D02*
X21828030Y-73010581D01*
X22028030Y-72696295D01*
X25003030Y-73010581D02*
X25003030Y-73296295D01*
X24803030Y-72696295D02*
X25003030Y-73010581D01*
X25203030Y-72696295D01*
X40878030Y-73010581D02*
X40878030Y-73296295D01*
X40678030Y-72696295D02*
X40878030Y-73010581D01*
X41078030Y-72696295D01*
X44053030Y-73010581D02*
X44053030Y-73296295D01*
X43853030Y-72696295D02*
X44053030Y-73010581D01*
X44253030Y-72696295D01*
X59928030Y-73010581D02*
X59928030Y-73296295D01*
X59728030Y-72696295D02*
X59928030Y-73010581D01*
X60128030Y-72696295D01*
X63103030Y-73010581D02*
X63103030Y-73296295D01*
X62903030Y-72696295D02*
X63103030Y-73010581D01*
X63303030Y-72696295D01*
X78978030Y-73010581D02*
X78978030Y-73296295D01*
X78778030Y-72696295D02*
X78978030Y-73010581D01*
X79178030Y-72696295D01*
X82153030Y-73010581D02*
X82153030Y-73296295D01*
X81953030Y-72696295D02*
X82153030Y-73010581D01*
X82353030Y-72696295D01*
X98028030Y-73010581D02*
X98028030Y-73296295D01*
X97828030Y-72696295D02*
X98028030Y-73010581D01*
X98228030Y-72696295D01*
X98028030Y-53960581D02*
X98028030Y-54246295D01*
X97828030Y-53646295D02*
X98028030Y-53960581D01*
X98228030Y-53646295D01*
X82153030Y-53960581D02*
X82153030Y-54246295D01*
X81953030Y-53646295D02*
X82153030Y-53960581D01*
X82353030Y-53646295D01*
X78978030Y-53960581D02*
X78978030Y-54246295D01*
X78778030Y-53646295D02*
X78978030Y-53960581D01*
X79178030Y-53646295D01*
X63103030Y-53960581D02*
X63103030Y-54246295D01*
X62903030Y-53646295D02*
X63103030Y-53960581D01*
X63303030Y-53646295D01*
X59928030Y-53960581D02*
X59928030Y-54246295D01*
X59728030Y-53646295D02*
X59928030Y-53960581D01*
X60128030Y-53646295D01*
X44053030Y-53960581D02*
X44053030Y-54246295D01*
X43853030Y-53646295D02*
X44053030Y-53960581D01*
X44253030Y-53646295D01*
X40878030Y-53960581D02*
X40878030Y-54246295D01*
X40678030Y-53646295D02*
X40878030Y-53960581D01*
X41078030Y-53646295D01*
X25003030Y-53960581D02*
X25003030Y-54246295D01*
X24803030Y-53646295D02*
X25003030Y-53960581D01*
X25203030Y-53646295D01*
X21828030Y-53960581D02*
X21828030Y-54246295D01*
X21628030Y-53646295D02*
X21828030Y-53960581D01*
X22028030Y-53646295D01*
X5953030Y-53960581D02*
X5953030Y-54246295D01*
X5753030Y-53646295D02*
X5953030Y-53960581D01*
X6153030Y-53646295D01*
X9324905Y-58011920D02*
X9724905Y-58611920D01*
X9724905Y-58011920D02*
X9324905Y-58611920D01*
X9324905Y-45311920D02*
X9724905Y-45911920D01*
X9724905Y-45311920D02*
X9324905Y-45911920D01*
D11*
X17121035Y-2698527D02*
X17121035Y-3269956D01*
X17121035Y-2984242D02*
X16121035Y-2984242D01*
X16263893Y-3079480D01*
X16359131Y-3174718D01*
X16406750Y-3269956D01*
X16073416Y-1555670D02*
X17359131Y-2412813D01*
X16216274Y-1269956D02*
X16168655Y-1222337D01*
X16121035Y-1127099D01*
X16121035Y-889003D01*
X16168655Y-793765D01*
X16216274Y-746146D01*
X16311512Y-698527D01*
X16406750Y-698527D01*
X16549607Y-746146D01*
X17121035Y-1317575D01*
X17121035Y-698527D01*
X29821035Y-2698527D02*
X29821035Y-3269956D01*
X29821035Y-2984242D02*
X28821035Y-2984242D01*
X28963893Y-3079480D01*
X29059131Y-3174718D01*
X29106750Y-3269956D01*
X28773416Y-1555670D02*
X30059131Y-2412813D01*
X29154369Y-793765D02*
X29821035Y-793765D01*
X28773416Y-1031861D02*
X29487702Y-1269956D01*
X29487702Y-650908D01*
X40536660Y-2698527D02*
X40536660Y-3269956D01*
X40536660Y-2984242D02*
X39536660Y-2984242D01*
X39679518Y-3079480D01*
X39774756Y-3174718D01*
X39822375Y-3269956D01*
X39489041Y-1555670D02*
X40774756Y-2412813D01*
X39965232Y-1079480D02*
X39917613Y-1174718D01*
X39869994Y-1222337D01*
X39774756Y-1269956D01*
X39727137Y-1269956D01*
X39631899Y-1222337D01*
X39584280Y-1174718D01*
X39536660Y-1079480D01*
X39536660Y-889003D01*
X39584280Y-793765D01*
X39631899Y-746146D01*
X39727137Y-698527D01*
X39774756Y-698527D01*
X39869994Y-746146D01*
X39917613Y-793765D01*
X39965232Y-889003D01*
X39965232Y-1079480D01*
X40012851Y-1174718D01*
X40060470Y-1222337D01*
X40155708Y-1269956D01*
X40346184Y-1269956D01*
X40441422Y-1222337D01*
X40489041Y-1174718D01*
X40536660Y-1079480D01*
X40536660Y-889003D01*
X40489041Y-793765D01*
X40441422Y-746146D01*
X40346184Y-698527D01*
X40155708Y-698527D01*
X40060470Y-746146D01*
X40012851Y-793765D01*
X39965232Y-889003D01*
D10*
X49971184Y-3393765D02*
X49933089Y-3469956D01*
X49856899Y-3508051D01*
X49171184Y-3508051D01*
X49971184Y-3089003D02*
X49437851Y-3089003D01*
X49171184Y-3089003D02*
X49209280Y-3127099D01*
X49247375Y-3089003D01*
X49209280Y-3050908D01*
X49171184Y-3089003D01*
X49247375Y-3089003D01*
X49437851Y-2708051D02*
X49971184Y-2708051D01*
X49514041Y-2708051D02*
X49475946Y-2669956D01*
X49437851Y-2593765D01*
X49437851Y-2479480D01*
X49475946Y-2403289D01*
X49552137Y-2365194D01*
X49971184Y-2365194D01*
X49933089Y-1679480D02*
X49971184Y-1755670D01*
X49971184Y-1908051D01*
X49933089Y-1984242D01*
X49856899Y-2022337D01*
X49552137Y-2022337D01*
X49475946Y-1984242D01*
X49437851Y-1908051D01*
X49437851Y-1755670D01*
X49475946Y-1679480D01*
X49552137Y-1641384D01*
X49628327Y-1641384D01*
X49704518Y-2022337D01*
X49971184Y-955670D02*
X49552137Y-955670D01*
X49475946Y-993765D01*
X49437851Y-1069956D01*
X49437851Y-1222337D01*
X49475946Y-1298527D01*
X49933089Y-955670D02*
X49971184Y-1031861D01*
X49971184Y-1222337D01*
X49933089Y-1298527D01*
X49856899Y-1336622D01*
X49780708Y-1336622D01*
X49704518Y-1298527D01*
X49666422Y-1222337D01*
X49666422Y-1031861D01*
X49628327Y-955670D01*
X49971184Y-574718D02*
X49437851Y-574718D01*
X49590232Y-574718D02*
X49514041Y-536622D01*
X49475946Y-498527D01*
X49437851Y-422337D01*
X49437851Y-346146D01*
D11*
X62364785Y-2698527D02*
X62364785Y-3269956D01*
X62364785Y-2984242D02*
X61364785Y-2984242D01*
X61507643Y-3079480D01*
X61602881Y-3174718D01*
X61650500Y-3269956D01*
X61317166Y-1555670D02*
X62602881Y-2412813D01*
X61460024Y-1269956D02*
X61412405Y-1222337D01*
X61364785Y-1127099D01*
X61364785Y-889003D01*
X61412405Y-793765D01*
X61460024Y-746146D01*
X61555262Y-698527D01*
X61650500Y-698527D01*
X61793357Y-746146D01*
X62364785Y-1317575D01*
X62364785Y-698527D01*
X85780410Y-2698527D02*
X85780410Y-3269956D01*
X85780410Y-2984242D02*
X84780410Y-2984242D01*
X84923268Y-3079480D01*
X85018506Y-3174718D01*
X85066125Y-3269956D01*
X84732791Y-1555670D02*
X86018506Y-2412813D01*
X85208982Y-1079480D02*
X85161363Y-1174718D01*
X85113744Y-1222337D01*
X85018506Y-1269956D01*
X84970887Y-1269956D01*
X84875649Y-1222337D01*
X84828030Y-1174718D01*
X84780410Y-1079480D01*
X84780410Y-889003D01*
X84828030Y-793765D01*
X84875649Y-746146D01*
X84970887Y-698527D01*
X85018506Y-698527D01*
X85113744Y-746146D01*
X85161363Y-793765D01*
X85208982Y-889003D01*
X85208982Y-1079480D01*
X85256601Y-1174718D01*
X85304220Y-1222337D01*
X85399458Y-1269956D01*
X85589934Y-1269956D01*
X85685172Y-1222337D01*
X85732791Y-1174718D01*
X85780410Y-1079480D01*
X85780410Y-889003D01*
X85732791Y-793765D01*
X85685172Y-746146D01*
X85589934Y-698527D01*
X85399458Y-698527D01*
X85304220Y-746146D01*
X85256601Y-793765D01*
X85208982Y-889003D01*
X75064785Y-2698527D02*
X75064785Y-3269956D01*
X75064785Y-2984242D02*
X74064785Y-2984242D01*
X74207643Y-3079480D01*
X74302881Y-3174718D01*
X74350500Y-3269956D01*
X74017166Y-1555670D02*
X75302881Y-2412813D01*
X74398119Y-793765D02*
X75064785Y-793765D01*
X74017166Y-1031861D02*
X74731452Y-1269956D01*
X74731452Y-650908D01*
D10*
X95214934Y-3393765D02*
X95176839Y-3469956D01*
X95100649Y-3508051D01*
X94414934Y-3508051D01*
X95214934Y-3089003D02*
X94681601Y-3089003D01*
X94414934Y-3089003D02*
X94453030Y-3127099D01*
X94491125Y-3089003D01*
X94453030Y-3050908D01*
X94414934Y-3089003D01*
X94491125Y-3089003D01*
X94681601Y-2708051D02*
X95214934Y-2708051D01*
X94757791Y-2708051D02*
X94719696Y-2669956D01*
X94681601Y-2593765D01*
X94681601Y-2479480D01*
X94719696Y-2403289D01*
X94795887Y-2365194D01*
X95214934Y-2365194D01*
X95176839Y-1679480D02*
X95214934Y-1755670D01*
X95214934Y-1908051D01*
X95176839Y-1984242D01*
X95100649Y-2022337D01*
X94795887Y-2022337D01*
X94719696Y-1984242D01*
X94681601Y-1908051D01*
X94681601Y-1755670D01*
X94719696Y-1679480D01*
X94795887Y-1641384D01*
X94872077Y-1641384D01*
X94948268Y-2022337D01*
X95214934Y-955670D02*
X94795887Y-955670D01*
X94719696Y-993765D01*
X94681601Y-1069956D01*
X94681601Y-1222337D01*
X94719696Y-1298527D01*
X95176839Y-955670D02*
X95214934Y-1031861D01*
X95214934Y-1222337D01*
X95176839Y-1298527D01*
X95100649Y-1336622D01*
X95024458Y-1336622D01*
X94948268Y-1298527D01*
X94910172Y-1222337D01*
X94910172Y-1031861D01*
X94872077Y-955670D01*
X95214934Y-574718D02*
X94681601Y-574718D01*
X94833982Y-574718D02*
X94757791Y-536622D01*
X94719696Y-498527D01*
X94681601Y-422337D01*
X94681601Y-346146D01*
X574756Y-95214896D02*
X498565Y-95176801D01*
X460470Y-95100611D01*
X460470Y-94414896D01*
X879518Y-95214896D02*
X879518Y-94681563D01*
X879518Y-94414896D02*
X841422Y-94452992D01*
X879518Y-94491087D01*
X917613Y-94452992D01*
X879518Y-94414896D01*
X879518Y-94491087D01*
X1260470Y-94681563D02*
X1260470Y-95214896D01*
X1260470Y-94757753D02*
X1298565Y-94719658D01*
X1374756Y-94681563D01*
X1489041Y-94681563D01*
X1565232Y-94719658D01*
X1603327Y-94795849D01*
X1603327Y-95214896D01*
X2289041Y-95176801D02*
X2212851Y-95214896D01*
X2060470Y-95214896D01*
X1984280Y-95176801D01*
X1946184Y-95100611D01*
X1946184Y-94795849D01*
X1984280Y-94719658D01*
X2060470Y-94681563D01*
X2212851Y-94681563D01*
X2289041Y-94719658D01*
X2327137Y-94795849D01*
X2327137Y-94872039D01*
X1946184Y-94948230D01*
X3012851Y-95214896D02*
X3012851Y-94795849D01*
X2974756Y-94719658D01*
X2898565Y-94681563D01*
X2746184Y-94681563D01*
X2669994Y-94719658D01*
X3012851Y-95176801D02*
X2936660Y-95214896D01*
X2746184Y-95214896D01*
X2669994Y-95176801D01*
X2631899Y-95100611D01*
X2631899Y-95024420D01*
X2669994Y-94948230D01*
X2746184Y-94910134D01*
X2936660Y-94910134D01*
X3012851Y-94872039D01*
X3393803Y-95214896D02*
X3393803Y-94681563D01*
X3393803Y-94833944D02*
X3431899Y-94757753D01*
X3469994Y-94719658D01*
X3546184Y-94681563D01*
X3622375Y-94681563D01*
D11*
X650946Y-13739747D02*
X1269994Y-13739747D01*
X936660Y-14120700D01*
X1079518Y-14120700D01*
X1174756Y-14168319D01*
X1222375Y-14215938D01*
X1269994Y-14311176D01*
X1269994Y-14549271D01*
X1222375Y-14644509D01*
X1174756Y-14692128D01*
X1079518Y-14739747D01*
X793803Y-14739747D01*
X698565Y-14692128D01*
X650946Y-14644509D01*
X2412851Y-13692128D02*
X1555708Y-14977843D01*
X3174756Y-14073081D02*
X3174756Y-14739747D01*
X2936660Y-13692128D02*
X2698565Y-14406414D01*
X3317613Y-14406414D01*
X1222375Y-31995997D02*
X746184Y-31995997D01*
X698565Y-32472188D01*
X746184Y-32424569D01*
X841422Y-32376950D01*
X1079518Y-32376950D01*
X1174756Y-32424569D01*
X1222375Y-32472188D01*
X1269994Y-32567426D01*
X1269994Y-32805521D01*
X1222375Y-32900759D01*
X1174756Y-32948378D01*
X1079518Y-32995997D01*
X841422Y-32995997D01*
X746184Y-32948378D01*
X698565Y-32900759D01*
X2412851Y-31948378D02*
X1555708Y-33234093D01*
X2889041Y-32424569D02*
X2793803Y-32376950D01*
X2746184Y-32329331D01*
X2698565Y-32234093D01*
X2698565Y-32186474D01*
X2746184Y-32091236D01*
X2793803Y-32043617D01*
X2889041Y-31995997D01*
X3079518Y-31995997D01*
X3174756Y-32043617D01*
X3222375Y-32091236D01*
X3269994Y-32186474D01*
X3269994Y-32234093D01*
X3222375Y-32329331D01*
X3174756Y-32376950D01*
X3079518Y-32424569D01*
X2889041Y-32424569D01*
X2793803Y-32472188D01*
X2746184Y-32519807D01*
X2698565Y-32615045D01*
X2698565Y-32805521D01*
X2746184Y-32900759D01*
X2793803Y-32948378D01*
X2889041Y-32995997D01*
X3079518Y-32995997D01*
X3174756Y-32948378D01*
X3222375Y-32900759D01*
X3269994Y-32805521D01*
X3269994Y-32615045D01*
X3222375Y-32519807D01*
X3174756Y-32472188D01*
X3079518Y-32424569D01*
X1269994Y-49267872D02*
X698565Y-49267872D01*
X984280Y-49267872D02*
X984280Y-48267872D01*
X889041Y-48410730D01*
X793803Y-48505968D01*
X698565Y-48553587D01*
X2412851Y-48220253D02*
X1555708Y-49505968D01*
X2698565Y-48363111D02*
X2746184Y-48315492D01*
X2841422Y-48267872D01*
X3079518Y-48267872D01*
X3174756Y-48315492D01*
X3222375Y-48363111D01*
X3269994Y-48458349D01*
X3269994Y-48553587D01*
X3222375Y-48696444D01*
X2650946Y-49267872D01*
X3269994Y-49267872D01*
X650946Y-62158497D02*
X1269994Y-62158497D01*
X936660Y-62539450D01*
X1079518Y-62539450D01*
X1174756Y-62587069D01*
X1222375Y-62634688D01*
X1269994Y-62729926D01*
X1269994Y-62968021D01*
X1222375Y-63063259D01*
X1174756Y-63110878D01*
X1079518Y-63158497D01*
X793803Y-63158497D01*
X698565Y-63110878D01*
X650946Y-63063259D01*
X2412851Y-62110878D02*
X1555708Y-63396593D01*
X2889041Y-62587069D02*
X2793803Y-62539450D01*
X2746184Y-62491831D01*
X2698565Y-62396593D01*
X2698565Y-62348974D01*
X2746184Y-62253736D01*
X2793803Y-62206117D01*
X2889041Y-62158497D01*
X3079518Y-62158497D01*
X3174756Y-62206117D01*
X3222375Y-62253736D01*
X3269994Y-62348974D01*
X3269994Y-62396593D01*
X3222375Y-62491831D01*
X3174756Y-62539450D01*
X3079518Y-62587069D01*
X2889041Y-62587069D01*
X2793803Y-62634688D01*
X2746184Y-62682307D01*
X2698565Y-62777545D01*
X2698565Y-62968021D01*
X2746184Y-63063259D01*
X2793803Y-63110878D01*
X2889041Y-63158497D01*
X3079518Y-63158497D01*
X3174756Y-63110878D01*
X3222375Y-63063259D01*
X3269994Y-62968021D01*
X3269994Y-62777545D01*
X3222375Y-62682307D01*
X3174756Y-62634688D01*
X3079518Y-62587069D01*
X1269994Y-75064747D02*
X698565Y-75064747D01*
X984280Y-75064747D02*
X984280Y-74064747D01*
X889041Y-74207605D01*
X793803Y-74302843D01*
X698565Y-74350462D01*
X2412851Y-74017128D02*
X1555708Y-75302843D01*
X3174756Y-74398081D02*
X3174756Y-75064747D01*
X2936660Y-74017128D02*
X2698565Y-74731414D01*
X3317613Y-74731414D01*
X1269994Y-85780372D02*
X698565Y-85780372D01*
X984280Y-85780372D02*
X984280Y-84780372D01*
X889041Y-84923230D01*
X793803Y-85018468D01*
X698565Y-85066087D01*
X2412851Y-84732753D02*
X1555708Y-86018468D01*
X2889041Y-85208944D02*
X2793803Y-85161325D01*
X2746184Y-85113706D01*
X2698565Y-85018468D01*
X2698565Y-84970849D01*
X2746184Y-84875611D01*
X2793803Y-84827992D01*
X2889041Y-84780372D01*
X3079518Y-84780372D01*
X3174756Y-84827992D01*
X3222375Y-84875611D01*
X3269994Y-84970849D01*
X3269994Y-85018468D01*
X3222375Y-85113706D01*
X3174756Y-85161325D01*
X3079518Y-85208944D01*
X2889041Y-85208944D01*
X2793803Y-85256563D01*
X2746184Y-85304182D01*
X2698565Y-85399420D01*
X2698565Y-85589896D01*
X2746184Y-85685134D01*
X2793803Y-85732753D01*
X2889041Y-85780372D01*
X3079518Y-85780372D01*
X3174756Y-85732753D01*
X3222375Y-85685134D01*
X3269994Y-85589896D01*
X3269994Y-85399420D01*
X3222375Y-85304182D01*
X3174756Y-85256563D01*
X3079518Y-85208944D01*
D10*
X37822672Y-27885253D02*
X37965530Y-27932872D01*
X38203625Y-27932872D01*
X38298863Y-27885253D01*
X38346482Y-27837634D01*
X38394101Y-27742396D01*
X38394101Y-27647158D01*
X38346482Y-27551920D01*
X38298863Y-27504301D01*
X38203625Y-27456682D01*
X38013149Y-27409063D01*
X37917910Y-27361444D01*
X37870291Y-27313825D01*
X37822672Y-27218587D01*
X37822672Y-27123349D01*
X37870291Y-27028111D01*
X37917910Y-26980492D01*
X38013149Y-26932872D01*
X38251244Y-26932872D01*
X38394101Y-26980492D01*
X38822672Y-26932872D02*
X38822672Y-27742396D01*
X38870291Y-27837634D01*
X38917910Y-27885253D01*
X39013149Y-27932872D01*
X39203625Y-27932872D01*
X39298863Y-27885253D01*
X39346482Y-27837634D01*
X39394101Y-27742396D01*
X39394101Y-26932872D01*
X40394101Y-27932872D02*
X39822672Y-27932872D01*
X40108387Y-27932872D02*
X40108387Y-26932872D01*
X40013149Y-27075730D01*
X39917910Y-27170968D01*
X39822672Y-27218587D01*
X40775053Y-27028111D02*
X40822672Y-26980492D01*
X40917910Y-26932872D01*
X41156006Y-26932872D01*
X41251244Y-26980492D01*
X41298863Y-27028111D01*
X41346482Y-27123349D01*
X41346482Y-27218587D01*
X41298863Y-27361444D01*
X40727434Y-27932872D01*
X41346482Y-27932872D01*
X41917910Y-27361444D02*
X41822672Y-27313825D01*
X41775053Y-27266206D01*
X41727434Y-27170968D01*
X41727434Y-27123349D01*
X41775053Y-27028111D01*
X41822672Y-26980492D01*
X41917910Y-26932872D01*
X42108387Y-26932872D01*
X42203625Y-26980492D01*
X42251244Y-27028111D01*
X42298863Y-27123349D01*
X42298863Y-27170968D01*
X42251244Y-27266206D01*
X42203625Y-27313825D01*
X42108387Y-27361444D01*
X41917910Y-27361444D01*
X41822672Y-27409063D01*
X41775053Y-27456682D01*
X41727434Y-27551920D01*
X41727434Y-27742396D01*
X41775053Y-27837634D01*
X41822672Y-27885253D01*
X41917910Y-27932872D01*
X42108387Y-27932872D01*
X42203625Y-27885253D01*
X42251244Y-27837634D01*
X42298863Y-27742396D01*
X42298863Y-27551920D01*
X42251244Y-27456682D01*
X42203625Y-27409063D01*
X42108387Y-27361444D01*
X44060768Y-27932872D02*
X43727434Y-27456682D01*
X43489339Y-27932872D02*
X43489339Y-26932872D01*
X43870291Y-26932872D01*
X43965530Y-26980492D01*
X44013149Y-27028111D01*
X44060768Y-27123349D01*
X44060768Y-27266206D01*
X44013149Y-27361444D01*
X43965530Y-27409063D01*
X43870291Y-27456682D01*
X43489339Y-27456682D01*
X44870291Y-27885253D02*
X44775053Y-27932872D01*
X44584577Y-27932872D01*
X44489339Y-27885253D01*
X44441720Y-27790015D01*
X44441720Y-27409063D01*
X44489339Y-27313825D01*
X44584577Y-27266206D01*
X44775053Y-27266206D01*
X44870291Y-27313825D01*
X44917910Y-27409063D01*
X44917910Y-27504301D01*
X44441720Y-27599539D01*
X45251244Y-27266206D02*
X45489339Y-27932872D01*
X45727434Y-27266206D01*
X46108387Y-27837634D02*
X46156006Y-27885253D01*
X46108387Y-27932872D01*
X46060768Y-27885253D01*
X46108387Y-27837634D01*
X46108387Y-27932872D01*
X47108387Y-27932872D02*
X46536958Y-27932872D01*
X46822672Y-27932872D02*
X46822672Y-26932872D01*
X46727434Y-27075730D01*
X46632196Y-27170968D01*
X46536958Y-27218587D01*
X34632196Y-29582872D02*
X34632196Y-28582872D01*
X35013149Y-28582872D01*
X35108387Y-28630492D01*
X35156006Y-28678111D01*
X35203625Y-28773349D01*
X35203625Y-28916206D01*
X35156006Y-29011444D01*
X35108387Y-29059063D01*
X35013149Y-29106682D01*
X34632196Y-29106682D01*
X35632196Y-29582872D02*
X35632196Y-28916206D01*
X35632196Y-29106682D02*
X35679815Y-29011444D01*
X35727434Y-28963825D01*
X35822672Y-28916206D01*
X35917910Y-28916206D01*
X36394101Y-29582872D02*
X36298863Y-29535253D01*
X36251244Y-29487634D01*
X36203625Y-29392396D01*
X36203625Y-29106682D01*
X36251244Y-29011444D01*
X36298863Y-28963825D01*
X36394101Y-28916206D01*
X36536958Y-28916206D01*
X36632196Y-28963825D01*
X36679815Y-29011444D01*
X36727434Y-29106682D01*
X36727434Y-29392396D01*
X36679815Y-29487634D01*
X36632196Y-29535253D01*
X36536958Y-29582872D01*
X36394101Y-29582872D01*
X37013149Y-28916206D02*
X37394101Y-28916206D01*
X37156006Y-28582872D02*
X37156006Y-29440015D01*
X37203625Y-29535253D01*
X37298863Y-29582872D01*
X37394101Y-29582872D01*
X37870291Y-29582872D02*
X37775053Y-29535253D01*
X37727434Y-29487634D01*
X37679815Y-29392396D01*
X37679815Y-29106682D01*
X37727434Y-29011444D01*
X37775053Y-28963825D01*
X37870291Y-28916206D01*
X38013149Y-28916206D01*
X38108387Y-28963825D01*
X38156006Y-29011444D01*
X38203625Y-29106682D01*
X38203625Y-29392396D01*
X38156006Y-29487634D01*
X38108387Y-29535253D01*
X38013149Y-29582872D01*
X37870291Y-29582872D01*
X38489339Y-28916206D02*
X38870291Y-28916206D01*
X38632196Y-28582872D02*
X38632196Y-29440015D01*
X38679815Y-29535253D01*
X38775053Y-29582872D01*
X38870291Y-29582872D01*
X39108387Y-28916206D02*
X39346482Y-29582872D01*
X39584577Y-28916206D02*
X39346482Y-29582872D01*
X39251244Y-29820968D01*
X39203625Y-29868587D01*
X39108387Y-29916206D01*
X39965530Y-28916206D02*
X39965530Y-29916206D01*
X39965530Y-28963825D02*
X40060768Y-28916206D01*
X40251244Y-28916206D01*
X40346482Y-28963825D01*
X40394101Y-29011444D01*
X40441720Y-29106682D01*
X40441720Y-29392396D01*
X40394101Y-29487634D01*
X40346482Y-29535253D01*
X40251244Y-29582872D01*
X40060768Y-29582872D01*
X39965530Y-29535253D01*
X40870291Y-29582872D02*
X40870291Y-28916206D01*
X40870291Y-28582872D02*
X40822672Y-28630492D01*
X40870291Y-28678111D01*
X40917910Y-28630492D01*
X40870291Y-28582872D01*
X40870291Y-28678111D01*
X41346482Y-28916206D02*
X41346482Y-29582872D01*
X41346482Y-29011444D02*
X41394101Y-28963825D01*
X41489339Y-28916206D01*
X41632196Y-28916206D01*
X41727434Y-28963825D01*
X41775053Y-29059063D01*
X41775053Y-29582872D01*
X42679815Y-28916206D02*
X42679815Y-29725730D01*
X42632196Y-29820968D01*
X42584577Y-29868587D01*
X42489339Y-29916206D01*
X42346482Y-29916206D01*
X42251244Y-29868587D01*
X42679815Y-29535253D02*
X42584577Y-29582872D01*
X42394101Y-29582872D01*
X42298863Y-29535253D01*
X42251244Y-29487634D01*
X42203625Y-29392396D01*
X42203625Y-29106682D01*
X42251244Y-29011444D01*
X42298863Y-28963825D01*
X42394101Y-28916206D01*
X42584577Y-28916206D01*
X42679815Y-28963825D01*
X43917910Y-29582872D02*
X43917910Y-28582872D01*
X44489339Y-29582872D02*
X44060768Y-29011444D01*
X44489339Y-28582872D02*
X43917910Y-29154301D01*
X45298863Y-29535253D02*
X45203625Y-29582872D01*
X45013149Y-29582872D01*
X44917910Y-29535253D01*
X44870291Y-29440015D01*
X44870291Y-29059063D01*
X44917910Y-28963825D01*
X45013149Y-28916206D01*
X45203625Y-28916206D01*
X45298863Y-28963825D01*
X45346482Y-29059063D01*
X45346482Y-29154301D01*
X44870291Y-29249539D01*
X45679815Y-28916206D02*
X45917910Y-29582872D01*
X46156006Y-28916206D02*
X45917910Y-29582872D01*
X45822672Y-29820968D01*
X45775053Y-29868587D01*
X45679815Y-29916206D01*
X46536958Y-29582872D02*
X46536958Y-28582872D01*
X46536958Y-28963825D02*
X46632196Y-28916206D01*
X46822672Y-28916206D01*
X46917910Y-28963825D01*
X46965530Y-29011444D01*
X47013149Y-29106682D01*
X47013149Y-29392396D01*
X46965530Y-29487634D01*
X46917910Y-29535253D01*
X46822672Y-29582872D01*
X46632196Y-29582872D01*
X46536958Y-29535253D01*
X47584577Y-29582872D02*
X47489339Y-29535253D01*
X47441720Y-29487634D01*
X47394101Y-29392396D01*
X47394101Y-29106682D01*
X47441720Y-29011444D01*
X47489339Y-28963825D01*
X47584577Y-28916206D01*
X47727434Y-28916206D01*
X47822672Y-28963825D01*
X47870291Y-29011444D01*
X47917910Y-29106682D01*
X47917910Y-29392396D01*
X47870291Y-29487634D01*
X47822672Y-29535253D01*
X47727434Y-29582872D01*
X47584577Y-29582872D01*
X48775053Y-29582872D02*
X48775053Y-29059063D01*
X48727434Y-28963825D01*
X48632196Y-28916206D01*
X48441720Y-28916206D01*
X48346482Y-28963825D01*
X48775053Y-29535253D02*
X48679815Y-29582872D01*
X48441720Y-29582872D01*
X48346482Y-29535253D01*
X48298863Y-29440015D01*
X48298863Y-29344777D01*
X48346482Y-29249539D01*
X48441720Y-29201920D01*
X48679815Y-29201920D01*
X48775053Y-29154301D01*
X49251244Y-29582872D02*
X49251244Y-28916206D01*
X49251244Y-29106682D02*
X49298863Y-29011444D01*
X49346482Y-28963825D01*
X49441720Y-28916206D01*
X49536958Y-28916206D01*
X50298863Y-29582872D02*
X50298863Y-28582872D01*
X50298863Y-29535253D02*
X50203625Y-29582872D01*
X50013149Y-29582872D01*
X49917910Y-29535253D01*
X49870291Y-29487634D01*
X49822672Y-29392396D01*
X49822672Y-29106682D01*
X49870291Y-29011444D01*
X49917910Y-28963825D01*
X50013149Y-28916206D01*
X50203625Y-28916206D01*
X50298863Y-28963825D01*
X32870291Y-31232872D02*
X32870291Y-30232872D01*
X33251244Y-30232872D01*
X33346482Y-30280492D01*
X33394101Y-30328111D01*
X33441720Y-30423349D01*
X33441720Y-30566206D01*
X33394101Y-30661444D01*
X33346482Y-30709063D01*
X33251244Y-30756682D01*
X32870291Y-30756682D01*
X34441720Y-31137634D02*
X34394101Y-31185253D01*
X34251244Y-31232872D01*
X34156006Y-31232872D01*
X34013149Y-31185253D01*
X33917910Y-31090015D01*
X33870291Y-30994777D01*
X33822672Y-30804301D01*
X33822672Y-30661444D01*
X33870291Y-30470968D01*
X33917910Y-30375730D01*
X34013149Y-30280492D01*
X34156006Y-30232872D01*
X34251244Y-30232872D01*
X34394101Y-30280492D01*
X34441720Y-30328111D01*
X35203625Y-30709063D02*
X35346482Y-30756682D01*
X35394101Y-30804301D01*
X35441720Y-30899539D01*
X35441720Y-31042396D01*
X35394101Y-31137634D01*
X35346482Y-31185253D01*
X35251244Y-31232872D01*
X34870291Y-31232872D01*
X34870291Y-30232872D01*
X35203625Y-30232872D01*
X35298863Y-30280492D01*
X35346482Y-30328111D01*
X35394101Y-30423349D01*
X35394101Y-30518587D01*
X35346482Y-30613825D01*
X35298863Y-30661444D01*
X35203625Y-30709063D01*
X34870291Y-30709063D01*
X36632196Y-31232872D02*
X36632196Y-30232872D01*
X36870291Y-30232872D01*
X37013149Y-30280492D01*
X37108387Y-30375730D01*
X37156006Y-30470968D01*
X37203625Y-30661444D01*
X37203625Y-30804301D01*
X37156006Y-30994777D01*
X37108387Y-31090015D01*
X37013149Y-31185253D01*
X36870291Y-31232872D01*
X36632196Y-31232872D01*
X38013149Y-31185253D02*
X37917910Y-31232872D01*
X37727434Y-31232872D01*
X37632196Y-31185253D01*
X37584577Y-31090015D01*
X37584577Y-30709063D01*
X37632196Y-30613825D01*
X37727434Y-30566206D01*
X37917910Y-30566206D01*
X38013149Y-30613825D01*
X38060768Y-30709063D01*
X38060768Y-30804301D01*
X37584577Y-30899539D01*
X38441720Y-31185253D02*
X38536958Y-31232872D01*
X38727434Y-31232872D01*
X38822672Y-31185253D01*
X38870291Y-31090015D01*
X38870291Y-31042396D01*
X38822672Y-30947158D01*
X38727434Y-30899539D01*
X38584577Y-30899539D01*
X38489339Y-30851920D01*
X38441720Y-30756682D01*
X38441720Y-30709063D01*
X38489339Y-30613825D01*
X38584577Y-30566206D01*
X38727434Y-30566206D01*
X38822672Y-30613825D01*
X39298863Y-31232872D02*
X39298863Y-30566206D01*
X39298863Y-30232872D02*
X39251244Y-30280492D01*
X39298863Y-30328111D01*
X39346482Y-30280492D01*
X39298863Y-30232872D01*
X39298863Y-30328111D01*
X40203625Y-30566206D02*
X40203625Y-31375730D01*
X40156006Y-31470968D01*
X40108387Y-31518587D01*
X40013149Y-31566206D01*
X39870291Y-31566206D01*
X39775053Y-31518587D01*
X40203625Y-31185253D02*
X40108387Y-31232872D01*
X39917910Y-31232872D01*
X39822672Y-31185253D01*
X39775053Y-31137634D01*
X39727434Y-31042396D01*
X39727434Y-30756682D01*
X39775053Y-30661444D01*
X39822672Y-30613825D01*
X39917910Y-30566206D01*
X40108387Y-30566206D01*
X40203625Y-30613825D01*
X40679815Y-30566206D02*
X40679815Y-31232872D01*
X40679815Y-30661444D02*
X40727434Y-30613825D01*
X40822672Y-30566206D01*
X40965530Y-30566206D01*
X41060768Y-30613825D01*
X41108387Y-30709063D01*
X41108387Y-31232872D01*
X41965530Y-31185253D02*
X41870291Y-31232872D01*
X41679815Y-31232872D01*
X41584577Y-31185253D01*
X41536958Y-31090015D01*
X41536958Y-30709063D01*
X41584577Y-30613825D01*
X41679815Y-30566206D01*
X41870291Y-30566206D01*
X41965530Y-30613825D01*
X42013149Y-30709063D01*
X42013149Y-30804301D01*
X41536958Y-30899539D01*
X42870291Y-31232872D02*
X42870291Y-30232872D01*
X42870291Y-31185253D02*
X42775053Y-31232872D01*
X42584577Y-31232872D01*
X42489339Y-31185253D01*
X42441720Y-31137634D01*
X42394101Y-31042396D01*
X42394101Y-30756682D01*
X42441720Y-30661444D01*
X42489339Y-30613825D01*
X42584577Y-30566206D01*
X42775053Y-30566206D01*
X42870291Y-30613825D01*
X44108387Y-31232872D02*
X44108387Y-30232872D01*
X44108387Y-30613825D02*
X44203625Y-30566206D01*
X44394101Y-30566206D01*
X44489339Y-30613825D01*
X44536958Y-30661444D01*
X44584577Y-30756682D01*
X44584577Y-31042396D01*
X44536958Y-31137634D01*
X44489339Y-31185253D01*
X44394101Y-31232872D01*
X44203625Y-31232872D01*
X44108387Y-31185253D01*
X44917910Y-30566206D02*
X45156006Y-31232872D01*
X45394101Y-30566206D02*
X45156006Y-31232872D01*
X45060768Y-31470968D01*
X45013149Y-31518587D01*
X44917910Y-31566206D01*
X47156006Y-30756682D02*
X47108387Y-30709063D01*
X47013149Y-30661444D01*
X46917910Y-30661444D01*
X46822672Y-30709063D01*
X46775053Y-30756682D01*
X46727434Y-30851920D01*
X46727434Y-30947158D01*
X46775053Y-31042396D01*
X46822672Y-31090015D01*
X46917910Y-31137634D01*
X47013149Y-31137634D01*
X47108387Y-31090015D01*
X47156006Y-31042396D01*
X47156006Y-30661444D02*
X47156006Y-31042396D01*
X47203625Y-31090015D01*
X47251244Y-31090015D01*
X47346482Y-31042396D01*
X47394101Y-30947158D01*
X47394101Y-30709063D01*
X47298863Y-30566206D01*
X47156006Y-30470968D01*
X46965530Y-30423349D01*
X46775053Y-30470968D01*
X46632196Y-30566206D01*
X46536958Y-30709063D01*
X46489339Y-30899539D01*
X46536958Y-31090015D01*
X46632196Y-31232872D01*
X46775053Y-31328111D01*
X46965530Y-31375730D01*
X47156006Y-31328111D01*
X47298863Y-31232872D01*
X48203625Y-31185253D02*
X48108387Y-31232872D01*
X47917910Y-31232872D01*
X47822672Y-31185253D01*
X47775053Y-31090015D01*
X47775053Y-30709063D01*
X47822672Y-30613825D01*
X47917910Y-30566206D01*
X48108387Y-30566206D01*
X48203625Y-30613825D01*
X48251244Y-30709063D01*
X48251244Y-30804301D01*
X47775053Y-30899539D01*
X48584577Y-30232872D02*
X49203625Y-30232872D01*
X48870291Y-30613825D01*
X49013149Y-30613825D01*
X49108387Y-30661444D01*
X49156006Y-30709063D01*
X49203625Y-30804301D01*
X49203625Y-31042396D01*
X49156006Y-31137634D01*
X49108387Y-31185253D01*
X49013149Y-31232872D01*
X48727434Y-31232872D01*
X48632196Y-31185253D01*
X48584577Y-31137634D01*
X49536958Y-30566206D02*
X49727434Y-31232872D01*
X49917910Y-30756682D01*
X50108387Y-31232872D01*
X50298863Y-30566206D01*
X50632196Y-30328111D02*
X50679815Y-30280492D01*
X50775053Y-30232872D01*
X51013149Y-30232872D01*
X51108387Y-30280492D01*
X51156006Y-30328111D01*
X51203625Y-30423349D01*
X51203625Y-30518587D01*
X51156006Y-30661444D01*
X50584577Y-31232872D01*
X51203625Y-31232872D01*
X52060768Y-30566206D02*
X52060768Y-31566206D01*
X52060768Y-31185253D02*
X51965530Y-31232872D01*
X51775053Y-31232872D01*
X51679815Y-31185253D01*
X51632196Y-31137634D01*
X51584577Y-31042396D01*
X51584577Y-30756682D01*
X51632196Y-30661444D01*
X51679815Y-30613825D01*
X51775053Y-30566206D01*
X51965530Y-30566206D01*
X52060768Y-30613825D01*
D11*
G04 #@! TO.C,D1*
X16806155Y-44052992D02*
X17206155Y-44052992D01*
X13306155Y-44052992D02*
X12906155Y-44052992D01*
X13806155Y-43252992D02*
X13806155Y-44852992D01*
X13306155Y-43252992D02*
X16806155Y-43252992D01*
X16806155Y-43252992D02*
X16806155Y-44852992D01*
X16806155Y-44852992D02*
X13306155Y-44852992D01*
X13306155Y-44852992D02*
X13306155Y-43252992D01*
G04 #@! TO.C,D2*
X35856155Y-44052992D02*
X36256155Y-44052992D01*
X32356155Y-44052992D02*
X31956155Y-44052992D01*
X32856155Y-43252992D02*
X32856155Y-44852992D01*
X32356155Y-43252992D02*
X35856155Y-43252992D01*
X35856155Y-43252992D02*
X35856155Y-44852992D01*
X35856155Y-44852992D02*
X32356155Y-44852992D01*
X32356155Y-44852992D02*
X32356155Y-43252992D01*
G04 #@! TO.C,D3*
X54906155Y-44052992D02*
X55306155Y-44052992D01*
X51406155Y-44052992D02*
X51006155Y-44052992D01*
X51906155Y-43252992D02*
X51906155Y-44852992D01*
X51406155Y-43252992D02*
X54906155Y-43252992D01*
X54906155Y-43252992D02*
X54906155Y-44852992D01*
X54906155Y-44852992D02*
X51406155Y-44852992D01*
X51406155Y-44852992D02*
X51406155Y-43252992D01*
G04 #@! TO.C,D4*
X73956155Y-44052992D02*
X74356155Y-44052992D01*
X70456155Y-44052992D02*
X70056155Y-44052992D01*
X70956155Y-43252992D02*
X70956155Y-44852992D01*
X70456155Y-43252992D02*
X73956155Y-43252992D01*
X73956155Y-43252992D02*
X73956155Y-44852992D01*
X73956155Y-44852992D02*
X70456155Y-44852992D01*
X70456155Y-44852992D02*
X70456155Y-43252992D01*
G04 #@! TO.C,D5*
X93006155Y-44052992D02*
X93406155Y-44052992D01*
X89506155Y-44052992D02*
X89106155Y-44052992D01*
X90006155Y-43252992D02*
X90006155Y-44852992D01*
X89506155Y-43252992D02*
X93006155Y-43252992D01*
X93006155Y-43252992D02*
X93006155Y-44852992D01*
X93006155Y-44852992D02*
X89506155Y-44852992D01*
X89506155Y-44852992D02*
X89506155Y-43252992D01*
G04 #@! TO.C,D6*
X16806155Y-63102992D02*
X17206155Y-63102992D01*
X13306155Y-63102992D02*
X12906155Y-63102992D01*
X13806155Y-62302992D02*
X13806155Y-63902992D01*
X13306155Y-62302992D02*
X16806155Y-62302992D01*
X16806155Y-62302992D02*
X16806155Y-63902992D01*
X16806155Y-63902992D02*
X13306155Y-63902992D01*
X13306155Y-63902992D02*
X13306155Y-62302992D01*
G04 #@! TO.C,D7*
X35856155Y-63102992D02*
X36256155Y-63102992D01*
X32356155Y-63102992D02*
X31956155Y-63102992D01*
X32856155Y-62302992D02*
X32856155Y-63902992D01*
X32356155Y-62302992D02*
X35856155Y-62302992D01*
X35856155Y-62302992D02*
X35856155Y-63902992D01*
X35856155Y-63902992D02*
X32356155Y-63902992D01*
X32356155Y-63902992D02*
X32356155Y-62302992D01*
G04 #@! TO.C,D8*
X54906155Y-63102992D02*
X55306155Y-63102992D01*
X51406155Y-63102992D02*
X51006155Y-63102992D01*
X51906155Y-62302992D02*
X51906155Y-63902992D01*
X51406155Y-62302992D02*
X54906155Y-62302992D01*
X54906155Y-62302992D02*
X54906155Y-63902992D01*
X54906155Y-63902992D02*
X51406155Y-63902992D01*
X51406155Y-63902992D02*
X51406155Y-62302992D01*
G04 #@! TO.C,D9*
X73956155Y-63102992D02*
X74356155Y-63102992D01*
X70456155Y-63102992D02*
X70056155Y-63102992D01*
X70956155Y-62302992D02*
X70956155Y-63902992D01*
X70456155Y-62302992D02*
X73956155Y-62302992D01*
X73956155Y-62302992D02*
X73956155Y-63902992D01*
X73956155Y-63902992D02*
X70456155Y-63902992D01*
X70456155Y-63902992D02*
X70456155Y-62302992D01*
G04 #@! TO.C,D10*
X93006155Y-63102992D02*
X93406155Y-63102992D01*
X89506155Y-63102992D02*
X89106155Y-63102992D01*
X90006155Y-62302992D02*
X90006155Y-63902992D01*
X89506155Y-62302992D02*
X93006155Y-62302992D01*
X93006155Y-62302992D02*
X93006155Y-63902992D01*
X93006155Y-63902992D02*
X89506155Y-63902992D01*
X89506155Y-63902992D02*
X89506155Y-62302992D01*
G04 #@! TO.C,D11*
X28712405Y-82152992D02*
X29112405Y-82152992D01*
X25212405Y-82152992D02*
X24812405Y-82152992D01*
X25712405Y-81352992D02*
X25712405Y-82952992D01*
X25212405Y-81352992D02*
X28712405Y-81352992D01*
X28712405Y-81352992D02*
X28712405Y-82952992D01*
X28712405Y-82952992D02*
X25212405Y-82952992D01*
X25212405Y-82952992D02*
X25212405Y-81352992D01*
G04 #@! TO.C,D12*
X76337405Y-82152992D02*
X76737405Y-82152992D01*
X72837405Y-82152992D02*
X72437405Y-82152992D01*
X73337405Y-81352992D02*
X73337405Y-82952992D01*
X72837405Y-81352992D02*
X76337405Y-81352992D01*
X76337405Y-81352992D02*
X76337405Y-82952992D01*
X76337405Y-82952992D02*
X72837405Y-82952992D01*
X72837405Y-82952992D02*
X72837405Y-81352992D01*
D10*
G04 #@! TO.C,R1*
X17065530Y-32305492D02*
X18335530Y-32305492D01*
X19585530Y-34915492D02*
X19585530Y-32375492D01*
X17045530Y-34915492D02*
X19585530Y-34915492D01*
X17065530Y-33855492D02*
X17065530Y-32305492D01*
X17045530Y-37455492D02*
X17045530Y-34915492D01*
X67845530Y-37455492D02*
X67845530Y-32375492D01*
X19585530Y-32375492D02*
X67845530Y-32375492D01*
X67845530Y-37455492D02*
X17045530Y-37455492D01*
X9965530Y-11415492D02*
X9965530Y-35415492D01*
X12965530Y-8415492D02*
G75*
G03X9965530Y-11415492I0J-3000000D01*
G01*
X74965530Y-11415492D02*
G75*
G03X71965530Y-8415492I-3000000J0D01*
G01*
X12965530Y-8415492D02*
X71965530Y-8415492D01*
X12965530Y-38415492D02*
X71965530Y-38415492D01*
X71965530Y-38415492D02*
G75*
G03X74965530Y-35415492I0J3000000D01*
G01*
X74965530Y-11415492D02*
X74965530Y-35415492D01*
X9965530Y-35415492D02*
G75*
G03X12965530Y-38415492I3000000J0D01*
G01*
D12*
G04 #@! TO.C,J1*
X87471155Y-22210492D02*
X89016155Y-22210492D01*
X87471155Y-5570492D02*
X89016155Y-5570492D01*
X87471155Y-5570492D02*
X87471155Y-22210492D01*
X99221155Y-22210492D02*
X91516155Y-22210492D01*
X99221155Y-5570492D02*
X91516155Y-5570492D01*
G04 #@! TO.C,J2*
X87471155Y-41260492D02*
X89016155Y-41260492D01*
X87471155Y-24620492D02*
X89016155Y-24620492D01*
X87471155Y-24620492D02*
X87471155Y-41260492D01*
X99221155Y-41260492D02*
X91516155Y-41260492D01*
X99221155Y-24620492D02*
X91516155Y-24620492D01*
D10*
G04 #@! TO.C,SW12*
X80421780Y-83090492D02*
X80421780Y-84090492D01*
X66421780Y-83090492D02*
X66421780Y-84090492D01*
X80421780Y-97090492D02*
X80421780Y-96090492D01*
X66421780Y-97090492D02*
X67421780Y-97090492D01*
X66421780Y-96090492D02*
X66421780Y-97090492D01*
X67421780Y-83090492D02*
X66421780Y-83090492D01*
X79421780Y-83090492D02*
X80421780Y-83090492D01*
X79421780Y-97090492D02*
X80421780Y-97090492D01*
G04 #@! TO.C,SW11*
X32796780Y-83090492D02*
X32796780Y-84090492D01*
X18796780Y-83090492D02*
X18796780Y-84090492D01*
X32796780Y-97090492D02*
X32796780Y-96090492D01*
X18796780Y-97090492D02*
X19796780Y-97090492D01*
X18796780Y-96090492D02*
X18796780Y-97090492D01*
X19796780Y-83090492D02*
X18796780Y-83090492D01*
X31796780Y-83090492D02*
X32796780Y-83090492D01*
X31796780Y-97090492D02*
X32796780Y-97090492D01*
G04 #@! TO.C,SW5*
X96090530Y-58990492D02*
X97090530Y-58990492D01*
X97090530Y-44990492D02*
X97090530Y-45990492D01*
X96090530Y-44990492D02*
X97090530Y-44990492D01*
X83090530Y-57990492D02*
X83090530Y-58990492D01*
X97090530Y-58990492D02*
X97090530Y-57990492D01*
X83090530Y-44990492D02*
X83090530Y-45990492D01*
X83090530Y-58990492D02*
X84090530Y-58990492D01*
X83090530Y-44990492D02*
X84090530Y-44990492D01*
G04 #@! TO.C,SW2*
X38940530Y-58990492D02*
X39940530Y-58990492D01*
X39940530Y-44990492D02*
X39940530Y-45990492D01*
X38940530Y-44990492D02*
X39940530Y-44990492D01*
X25940530Y-57990492D02*
X25940530Y-58990492D01*
X39940530Y-58990492D02*
X39940530Y-57990492D01*
X25940530Y-44990492D02*
X25940530Y-45990492D01*
X25940530Y-58990492D02*
X26940530Y-58990492D01*
X25940530Y-44990492D02*
X26940530Y-44990492D01*
G04 #@! TO.C,SW3*
X57990530Y-58990492D02*
X58990530Y-58990492D01*
X58990530Y-44990492D02*
X58990530Y-45990492D01*
X57990530Y-44990492D02*
X58990530Y-44990492D01*
X44990530Y-57990492D02*
X44990530Y-58990492D01*
X58990530Y-58990492D02*
X58990530Y-57990492D01*
X44990530Y-44990492D02*
X44990530Y-45990492D01*
X44990530Y-58990492D02*
X45990530Y-58990492D01*
X44990530Y-44990492D02*
X45990530Y-44990492D01*
G04 #@! TO.C,SW4*
X77040530Y-58990492D02*
X78040530Y-58990492D01*
X78040530Y-44990492D02*
X78040530Y-45990492D01*
X77040530Y-44990492D02*
X78040530Y-44990492D01*
X64040530Y-57990492D02*
X64040530Y-58990492D01*
X78040530Y-58990492D02*
X78040530Y-57990492D01*
X64040530Y-44990492D02*
X64040530Y-45990492D01*
X64040530Y-58990492D02*
X65040530Y-58990492D01*
X64040530Y-44990492D02*
X65040530Y-44990492D01*
G04 #@! TO.C,SW7*
X38940530Y-78040492D02*
X39940530Y-78040492D01*
X39940530Y-64040492D02*
X39940530Y-65040492D01*
X38940530Y-64040492D02*
X39940530Y-64040492D01*
X25940530Y-77040492D02*
X25940530Y-78040492D01*
X39940530Y-78040492D02*
X39940530Y-77040492D01*
X25940530Y-64040492D02*
X25940530Y-65040492D01*
X25940530Y-78040492D02*
X26940530Y-78040492D01*
X25940530Y-64040492D02*
X26940530Y-64040492D01*
G04 #@! TO.C,SW8*
X57990530Y-78040492D02*
X58990530Y-78040492D01*
X58990530Y-64040492D02*
X58990530Y-65040492D01*
X57990530Y-64040492D02*
X58990530Y-64040492D01*
X44990530Y-77040492D02*
X44990530Y-78040492D01*
X58990530Y-78040492D02*
X58990530Y-77040492D01*
X44990530Y-64040492D02*
X44990530Y-65040492D01*
X44990530Y-78040492D02*
X45990530Y-78040492D01*
X44990530Y-64040492D02*
X45990530Y-64040492D01*
G04 #@! TO.C,SW9*
X77040530Y-78040492D02*
X78040530Y-78040492D01*
X78040530Y-64040492D02*
X78040530Y-65040492D01*
X77040530Y-64040492D02*
X78040530Y-64040492D01*
X64040530Y-77040492D02*
X64040530Y-78040492D01*
X78040530Y-78040492D02*
X78040530Y-77040492D01*
X64040530Y-64040492D02*
X64040530Y-65040492D01*
X64040530Y-78040492D02*
X65040530Y-78040492D01*
X64040530Y-64040492D02*
X65040530Y-64040492D01*
G04 #@! TO.C,SW10*
X96090530Y-78040492D02*
X97090530Y-78040492D01*
X97090530Y-64040492D02*
X97090530Y-65040492D01*
X96090530Y-64040492D02*
X97090530Y-64040492D01*
X83090530Y-77040492D02*
X83090530Y-78040492D01*
X97090530Y-78040492D02*
X97090530Y-77040492D01*
X83090530Y-64040492D02*
X83090530Y-65040492D01*
X83090530Y-78040492D02*
X84090530Y-78040492D01*
X83090530Y-64040492D02*
X84090530Y-64040492D01*
G04 #@! TO.C,SW1*
X19890530Y-58990492D02*
X20890530Y-58990492D01*
X20890530Y-44990492D02*
X20890530Y-45990492D01*
X19890530Y-44990492D02*
X20890530Y-44990492D01*
X6890530Y-57990492D02*
X6890530Y-58990492D01*
X20890530Y-58990492D02*
X20890530Y-57990492D01*
X6890530Y-44990492D02*
X6890530Y-45990492D01*
X6890530Y-58990492D02*
X7890530Y-58990492D01*
X6890530Y-44990492D02*
X7890530Y-44990492D01*
G04 #@! TO.C,SW6*
X19890530Y-78040492D02*
X20890530Y-78040492D01*
X20890530Y-64040492D02*
X20890530Y-65040492D01*
X19890530Y-64040492D02*
X20890530Y-64040492D01*
X6890530Y-77040492D02*
X6890530Y-78040492D01*
X20890530Y-78040492D02*
X20890530Y-77040492D01*
X6890530Y-64040492D02*
X6890530Y-65040492D01*
X6890530Y-78040492D02*
X7890530Y-78040492D01*
X6890530Y-64040492D02*
X7890530Y-64040492D01*
D13*
G04 #@! TO.C,G\002A\002A\002A*
G36*
X17759164Y-54640669D02*
X18084781Y-54641290D01*
X18270485Y-54641750D01*
X18601751Y-54642637D01*
X18893308Y-54643478D01*
X19147780Y-54644339D01*
X19367790Y-54645285D01*
X19555963Y-54646381D01*
X19714921Y-54647691D01*
X19847290Y-54649281D01*
X19955693Y-54651215D01*
X20042753Y-54653559D01*
X20111095Y-54656377D01*
X20163343Y-54659735D01*
X20202120Y-54663697D01*
X20230050Y-54668328D01*
X20249758Y-54673694D01*
X20263867Y-54679858D01*
X20275000Y-54686886D01*
X20281303Y-54691515D01*
X20350043Y-54766277D01*
X20383576Y-54862436D01*
X20382346Y-54981545D01*
X20375391Y-55021371D01*
X20300464Y-55314576D01*
X20201183Y-55591895D01*
X20080211Y-55848424D01*
X19940211Y-56079260D01*
X19783845Y-56279500D01*
X19613775Y-56444241D01*
X19594195Y-56460104D01*
X19473495Y-56549823D01*
X19363119Y-56619886D01*
X19268970Y-56667012D01*
X19196952Y-56687920D01*
X19182900Y-56688663D01*
X19128946Y-56679561D01*
X19069277Y-56659405D01*
X18982542Y-56600933D01*
X18929257Y-56517755D01*
X18912322Y-56421003D01*
X18926629Y-56313619D01*
X18972717Y-56229450D01*
X19055335Y-56160368D01*
X19069698Y-56151666D01*
X19222838Y-56041379D01*
X19369549Y-55896827D01*
X19503874Y-55726077D01*
X19619853Y-55537193D01*
X19711529Y-55338242D01*
X19747376Y-55234283D01*
X19761841Y-55186658D01*
X18040623Y-55186579D01*
X17730355Y-55186538D01*
X17459601Y-55186401D01*
X17225545Y-55186103D01*
X17025367Y-55185580D01*
X16856250Y-55184765D01*
X16715376Y-55183593D01*
X16599925Y-55182000D01*
X16507080Y-55179920D01*
X16434023Y-55177288D01*
X16377936Y-55174039D01*
X16336000Y-55170107D01*
X16305398Y-55165427D01*
X16283310Y-55159935D01*
X16266919Y-55153564D01*
X16253407Y-55146250D01*
X16251641Y-55145182D01*
X16174792Y-55075908D01*
X16130503Y-54987400D01*
X16120983Y-54889622D01*
X16148442Y-54792536D01*
X16166582Y-54761472D01*
X16211282Y-54707781D01*
X16259276Y-54667692D01*
X16267124Y-54663225D01*
X16284746Y-54658517D01*
X16319377Y-54654410D01*
X16373217Y-54650882D01*
X16448462Y-54647910D01*
X16547310Y-54645469D01*
X16671960Y-54643536D01*
X16824609Y-54642088D01*
X17007457Y-54641101D01*
X17222699Y-54640551D01*
X17472536Y-54640415D01*
X17759164Y-54640669D01*
X17759164Y-54640669D01*
G37*
X17759164Y-54640669D02*
X18084781Y-54641290D01*
X18270485Y-54641750D01*
X18601751Y-54642637D01*
X18893308Y-54643478D01*
X19147780Y-54644339D01*
X19367790Y-54645285D01*
X19555963Y-54646381D01*
X19714921Y-54647691D01*
X19847290Y-54649281D01*
X19955693Y-54651215D01*
X20042753Y-54653559D01*
X20111095Y-54656377D01*
X20163343Y-54659735D01*
X20202120Y-54663697D01*
X20230050Y-54668328D01*
X20249758Y-54673694D01*
X20263867Y-54679858D01*
X20275000Y-54686886D01*
X20281303Y-54691515D01*
X20350043Y-54766277D01*
X20383576Y-54862436D01*
X20382346Y-54981545D01*
X20375391Y-55021371D01*
X20300464Y-55314576D01*
X20201183Y-55591895D01*
X20080211Y-55848424D01*
X19940211Y-56079260D01*
X19783845Y-56279500D01*
X19613775Y-56444241D01*
X19594195Y-56460104D01*
X19473495Y-56549823D01*
X19363119Y-56619886D01*
X19268970Y-56667012D01*
X19196952Y-56687920D01*
X19182900Y-56688663D01*
X19128946Y-56679561D01*
X19069277Y-56659405D01*
X18982542Y-56600933D01*
X18929257Y-56517755D01*
X18912322Y-56421003D01*
X18926629Y-56313619D01*
X18972717Y-56229450D01*
X19055335Y-56160368D01*
X19069698Y-56151666D01*
X19222838Y-56041379D01*
X19369549Y-55896827D01*
X19503874Y-55726077D01*
X19619853Y-55537193D01*
X19711529Y-55338242D01*
X19747376Y-55234283D01*
X19761841Y-55186658D01*
X18040623Y-55186579D01*
X17730355Y-55186538D01*
X17459601Y-55186401D01*
X17225545Y-55186103D01*
X17025367Y-55185580D01*
X16856250Y-55184765D01*
X16715376Y-55183593D01*
X16599925Y-55182000D01*
X16507080Y-55179920D01*
X16434023Y-55177288D01*
X16377936Y-55174039D01*
X16336000Y-55170107D01*
X16305398Y-55165427D01*
X16283310Y-55159935D01*
X16266919Y-55153564D01*
X16253407Y-55146250D01*
X16251641Y-55145182D01*
X16174792Y-55075908D01*
X16130503Y-54987400D01*
X16120983Y-54889622D01*
X16148442Y-54792536D01*
X16166582Y-54761472D01*
X16211282Y-54707781D01*
X16259276Y-54667692D01*
X16267124Y-54663225D01*
X16284746Y-54658517D01*
X16319377Y-54654410D01*
X16373217Y-54650882D01*
X16448462Y-54647910D01*
X16547310Y-54645469D01*
X16671960Y-54643536D01*
X16824609Y-54642088D01*
X17007457Y-54641101D01*
X17222699Y-54640551D01*
X17472536Y-54640415D01*
X17759164Y-54640669D01*
G36*
X18411377Y-55669186D02*
X18490256Y-55727882D01*
X18541905Y-55782985D01*
X18540154Y-56283863D01*
X18538787Y-56463598D01*
X18535724Y-56609812D01*
X18530427Y-56731304D01*
X18522359Y-56836871D01*
X18510983Y-56935310D01*
X18495763Y-57035418D01*
X18493421Y-57049325D01*
X18419985Y-57398467D01*
X18324231Y-57712183D01*
X18205745Y-57991271D01*
X18064117Y-58236528D01*
X17898934Y-58448753D01*
X17709786Y-58628743D01*
X17656962Y-58670110D01*
X17511544Y-58769859D01*
X17385825Y-58834788D01*
X17276811Y-58865818D01*
X17181512Y-58863866D01*
X17110896Y-58837974D01*
X17037434Y-58776571D01*
X16996315Y-58689045D01*
X16986155Y-58598091D01*
X17000487Y-58498017D01*
X17046502Y-58419301D01*
X17128729Y-58355090D01*
X17156797Y-58339824D01*
X17238213Y-58287097D01*
X17333075Y-58208103D01*
X17431885Y-58112152D01*
X17525144Y-58008550D01*
X17603353Y-57906609D01*
X17612249Y-57893468D01*
X17719488Y-57703837D01*
X17813028Y-57480649D01*
X17890547Y-57231124D01*
X17949721Y-56962484D01*
X17981426Y-56746239D01*
X17990033Y-56651219D01*
X17997914Y-56526983D01*
X18004410Y-56386645D01*
X18008866Y-56243323D01*
X18010140Y-56173313D01*
X18012237Y-56039545D01*
X18015062Y-55941058D01*
X18019470Y-55870800D01*
X18026316Y-55821717D01*
X18036455Y-55786759D01*
X18050743Y-55758873D01*
X18062524Y-55741389D01*
X18132318Y-55676803D01*
X18220839Y-55643017D01*
X18317415Y-55640365D01*
X18411377Y-55669186D01*
X18411377Y-55669186D01*
G37*
X18411377Y-55669186D02*
X18490256Y-55727882D01*
X18541905Y-55782985D01*
X18540154Y-56283863D01*
X18538787Y-56463598D01*
X18535724Y-56609812D01*
X18530427Y-56731304D01*
X18522359Y-56836871D01*
X18510983Y-56935310D01*
X18495763Y-57035418D01*
X18493421Y-57049325D01*
X18419985Y-57398467D01*
X18324231Y-57712183D01*
X18205745Y-57991271D01*
X18064117Y-58236528D01*
X17898934Y-58448753D01*
X17709786Y-58628743D01*
X17656962Y-58670110D01*
X17511544Y-58769859D01*
X17385825Y-58834788D01*
X17276811Y-58865818D01*
X17181512Y-58863866D01*
X17110896Y-58837974D01*
X17037434Y-58776571D01*
X16996315Y-58689045D01*
X16986155Y-58598091D01*
X17000487Y-58498017D01*
X17046502Y-58419301D01*
X17128729Y-58355090D01*
X17156797Y-58339824D01*
X17238213Y-58287097D01*
X17333075Y-58208103D01*
X17431885Y-58112152D01*
X17525144Y-58008550D01*
X17603353Y-57906609D01*
X17612249Y-57893468D01*
X17719488Y-57703837D01*
X17813028Y-57480649D01*
X17890547Y-57231124D01*
X17949721Y-56962484D01*
X17981426Y-56746239D01*
X17990033Y-56651219D01*
X17997914Y-56526983D01*
X18004410Y-56386645D01*
X18008866Y-56243323D01*
X18010140Y-56173313D01*
X18012237Y-56039545D01*
X18015062Y-55941058D01*
X18019470Y-55870800D01*
X18026316Y-55821717D01*
X18036455Y-55786759D01*
X18050743Y-55758873D01*
X18062524Y-55741389D01*
X18132318Y-55676803D01*
X18220839Y-55643017D01*
X18317415Y-55640365D01*
X18411377Y-55669186D01*
G36*
X39011367Y-54087115D02*
X39092605Y-54136667D01*
X39145519Y-54216609D01*
X39168059Y-54324774D01*
X39168742Y-54349772D01*
X39166942Y-54394529D01*
X39158396Y-54433330D01*
X39138512Y-54474604D01*
X39102694Y-54526786D01*
X39046348Y-54598304D01*
X39007271Y-54646105D01*
X38948199Y-54714566D01*
X38864847Y-54806353D01*
X38763166Y-54915161D01*
X38649110Y-55034685D01*
X38528631Y-55158620D01*
X38415963Y-55272388D01*
X37986207Y-55702077D01*
X38037764Y-55778051D01*
X38089322Y-55854024D01*
X38089242Y-57158112D01*
X38089190Y-57425568D01*
X38089001Y-57653976D01*
X38088572Y-57846619D01*
X38087802Y-58006784D01*
X38086587Y-58137754D01*
X38084826Y-58242814D01*
X38082416Y-58325250D01*
X38079255Y-58388345D01*
X38075241Y-58435386D01*
X38070271Y-58469655D01*
X38064243Y-58494439D01*
X38057055Y-58513022D01*
X38048604Y-58528688D01*
X38046446Y-58532266D01*
X37980901Y-58602824D01*
X37893465Y-58646864D01*
X37797360Y-58659901D01*
X37718905Y-58643330D01*
X37652264Y-58599897D01*
X37593162Y-58534332D01*
X37555988Y-58463435D01*
X37552157Y-58448670D01*
X37549678Y-58415487D01*
X37547351Y-58344091D01*
X37545220Y-58238602D01*
X37543330Y-58103139D01*
X37541725Y-57941822D01*
X37540449Y-57758772D01*
X37539547Y-57558108D01*
X37539061Y-57343950D01*
X37538988Y-57221304D01*
X37538835Y-57003978D01*
X37538395Y-56799885D01*
X37537696Y-56612850D01*
X37536768Y-56446699D01*
X37535637Y-56305257D01*
X37534334Y-56192350D01*
X37532886Y-56111803D01*
X37531322Y-56067441D01*
X37530329Y-56059784D01*
X37510825Y-56071278D01*
X37463275Y-56102821D01*
X37394186Y-56150003D01*
X37310066Y-56208413D01*
X37281620Y-56228345D01*
X37143340Y-56322560D01*
X36991139Y-56421240D01*
X36829763Y-56521738D01*
X36663957Y-56621412D01*
X36498466Y-56717615D01*
X36338038Y-56807703D01*
X36187416Y-56889032D01*
X36051348Y-56958955D01*
X35934577Y-57014830D01*
X35841850Y-57054011D01*
X35777913Y-57073852D01*
X35761042Y-57075784D01*
X35651361Y-57057835D01*
X35564498Y-57007151D01*
X35505338Y-56928477D01*
X35478764Y-56826559D01*
X35477775Y-56800617D01*
X35481488Y-56738748D01*
X35495919Y-56687021D01*
X35526003Y-56640657D01*
X35576680Y-56594876D01*
X35652886Y-56544900D01*
X35759558Y-56485949D01*
X35852173Y-56438218D01*
X36378267Y-56150797D01*
X36872299Y-55838147D01*
X37338082Y-55497519D01*
X37779426Y-55126163D01*
X38121424Y-54801145D01*
X38224077Y-54695737D01*
X38332631Y-54579901D01*
X38436273Y-54465448D01*
X38524187Y-54364190D01*
X38550385Y-54332653D01*
X38636101Y-54230622D01*
X38703908Y-54158358D01*
X38760301Y-54111038D01*
X38811773Y-54083839D01*
X38864821Y-54071936D01*
X38903856Y-54070117D01*
X39011367Y-54087115D01*
X39011367Y-54087115D01*
G37*
X39011367Y-54087115D02*
X39092605Y-54136667D01*
X39145519Y-54216609D01*
X39168059Y-54324774D01*
X39168742Y-54349772D01*
X39166942Y-54394529D01*
X39158396Y-54433330D01*
X39138512Y-54474604D01*
X39102694Y-54526786D01*
X39046348Y-54598304D01*
X39007271Y-54646105D01*
X38948199Y-54714566D01*
X38864847Y-54806353D01*
X38763166Y-54915161D01*
X38649110Y-55034685D01*
X38528631Y-55158620D01*
X38415963Y-55272388D01*
X37986207Y-55702077D01*
X38037764Y-55778051D01*
X38089322Y-55854024D01*
X38089242Y-57158112D01*
X38089190Y-57425568D01*
X38089001Y-57653976D01*
X38088572Y-57846619D01*
X38087802Y-58006784D01*
X38086587Y-58137754D01*
X38084826Y-58242814D01*
X38082416Y-58325250D01*
X38079255Y-58388345D01*
X38075241Y-58435386D01*
X38070271Y-58469655D01*
X38064243Y-58494439D01*
X38057055Y-58513022D01*
X38048604Y-58528688D01*
X38046446Y-58532266D01*
X37980901Y-58602824D01*
X37893465Y-58646864D01*
X37797360Y-58659901D01*
X37718905Y-58643330D01*
X37652264Y-58599897D01*
X37593162Y-58534332D01*
X37555988Y-58463435D01*
X37552157Y-58448670D01*
X37549678Y-58415487D01*
X37547351Y-58344091D01*
X37545220Y-58238602D01*
X37543330Y-58103139D01*
X37541725Y-57941822D01*
X37540449Y-57758772D01*
X37539547Y-57558108D01*
X37539061Y-57343950D01*
X37538988Y-57221304D01*
X37538835Y-57003978D01*
X37538395Y-56799885D01*
X37537696Y-56612850D01*
X37536768Y-56446699D01*
X37535637Y-56305257D01*
X37534334Y-56192350D01*
X37532886Y-56111803D01*
X37531322Y-56067441D01*
X37530329Y-56059784D01*
X37510825Y-56071278D01*
X37463275Y-56102821D01*
X37394186Y-56150003D01*
X37310066Y-56208413D01*
X37281620Y-56228345D01*
X37143340Y-56322560D01*
X36991139Y-56421240D01*
X36829763Y-56521738D01*
X36663957Y-56621412D01*
X36498466Y-56717615D01*
X36338038Y-56807703D01*
X36187416Y-56889032D01*
X36051348Y-56958955D01*
X35934577Y-57014830D01*
X35841850Y-57054011D01*
X35777913Y-57073852D01*
X35761042Y-57075784D01*
X35651361Y-57057835D01*
X35564498Y-57007151D01*
X35505338Y-56928477D01*
X35478764Y-56826559D01*
X35477775Y-56800617D01*
X35481488Y-56738748D01*
X35495919Y-56687021D01*
X35526003Y-56640657D01*
X35576680Y-56594876D01*
X35652886Y-56544900D01*
X35759558Y-56485949D01*
X35852173Y-56438218D01*
X36378267Y-56150797D01*
X36872299Y-55838147D01*
X37338082Y-55497519D01*
X37779426Y-55126163D01*
X38121424Y-54801145D01*
X38224077Y-54695737D01*
X38332631Y-54579901D01*
X38436273Y-54465448D01*
X38524187Y-54364190D01*
X38550385Y-54332653D01*
X38636101Y-54230622D01*
X38703908Y-54158358D01*
X38760301Y-54111038D01*
X38811773Y-54083839D01*
X38864821Y-54071936D01*
X38903856Y-54070117D01*
X39011367Y-54087115D01*
G36*
X56387520Y-53968375D02*
X56436826Y-53986203D01*
X56485556Y-54026093D01*
X56495855Y-54036250D01*
X56567822Y-54108217D01*
X56567822Y-54956339D01*
X57356280Y-54963020D01*
X57559705Y-54964797D01*
X57725150Y-54966520D01*
X57856965Y-54968468D01*
X57959501Y-54970917D01*
X58037111Y-54974147D01*
X58094144Y-54978434D01*
X58134952Y-54984057D01*
X58163887Y-54991294D01*
X58185300Y-55000423D01*
X58203541Y-55011721D01*
X58212006Y-55017682D01*
X58260607Y-55060380D01*
X58293306Y-55111917D01*
X58311607Y-55179544D01*
X58317015Y-55270510D01*
X58311035Y-55392067D01*
X58304540Y-55463609D01*
X58260839Y-55822131D01*
X58203769Y-56146595D01*
X58131594Y-56443642D01*
X58042577Y-56719919D01*
X57934982Y-56982068D01*
X57874873Y-57107534D01*
X57688411Y-57436537D01*
X57473839Y-57735191D01*
X57229620Y-58005028D01*
X56954218Y-58247580D01*
X56646096Y-58464379D01*
X56338164Y-58639453D01*
X56203715Y-58702333D01*
X56094643Y-58738444D01*
X56004560Y-58749003D01*
X55927084Y-58735229D01*
X55898556Y-58723355D01*
X55842913Y-58676378D01*
X55798370Y-58602734D01*
X55772155Y-58517913D01*
X55769825Y-58447479D01*
X55787520Y-58379665D01*
X55824634Y-58321099D01*
X55887147Y-58265902D01*
X55981038Y-58208193D01*
X56049238Y-58172744D01*
X56322804Y-58016501D01*
X56583746Y-57828894D01*
X56824524Y-57616501D01*
X57037598Y-57385897D01*
X57197388Y-57171332D01*
X57344743Y-56919681D01*
X57474583Y-56639438D01*
X57582584Y-56342241D01*
X57664417Y-56039726D01*
X57709052Y-55795201D01*
X57721572Y-55706881D01*
X57733096Y-55628000D01*
X57741432Y-55573514D01*
X57742390Y-55567659D01*
X57752097Y-55509451D01*
X54916822Y-55509451D01*
X54916822Y-56657431D01*
X54834645Y-56739607D01*
X54779278Y-56789531D01*
X54732262Y-56814113D01*
X54676188Y-56821608D01*
X54661330Y-56821784D01*
X54568259Y-56805666D01*
X54483969Y-56762683D01*
X54422566Y-56700887D01*
X54409985Y-56678301D01*
X54403411Y-56641822D01*
X54397919Y-56564623D01*
X54393554Y-56448303D01*
X54390359Y-56294460D01*
X54388379Y-56104695D01*
X54387657Y-55880607D01*
X54387655Y-55866171D01*
X54387655Y-55103050D01*
X54459622Y-55031084D01*
X54531588Y-54959117D01*
X56038655Y-54959117D01*
X56038655Y-54544341D01*
X56039164Y-54396406D01*
X56040995Y-54284622D01*
X56044609Y-54202818D01*
X56050462Y-54144820D01*
X56059015Y-54104457D01*
X56070724Y-54075554D01*
X56073903Y-54069895D01*
X56123681Y-54011308D01*
X56193439Y-53977474D01*
X56291775Y-53964655D01*
X56316934Y-53964284D01*
X56387520Y-53968375D01*
X56387520Y-53968375D01*
G37*
X56387520Y-53968375D02*
X56436826Y-53986203D01*
X56485556Y-54026093D01*
X56495855Y-54036250D01*
X56567822Y-54108217D01*
X56567822Y-54956339D01*
X57356280Y-54963020D01*
X57559705Y-54964797D01*
X57725150Y-54966520D01*
X57856965Y-54968468D01*
X57959501Y-54970917D01*
X58037111Y-54974147D01*
X58094144Y-54978434D01*
X58134952Y-54984057D01*
X58163887Y-54991294D01*
X58185300Y-55000423D01*
X58203541Y-55011721D01*
X58212006Y-55017682D01*
X58260607Y-55060380D01*
X58293306Y-55111917D01*
X58311607Y-55179544D01*
X58317015Y-55270510D01*
X58311035Y-55392067D01*
X58304540Y-55463609D01*
X58260839Y-55822131D01*
X58203769Y-56146595D01*
X58131594Y-56443642D01*
X58042577Y-56719919D01*
X57934982Y-56982068D01*
X57874873Y-57107534D01*
X57688411Y-57436537D01*
X57473839Y-57735191D01*
X57229620Y-58005028D01*
X56954218Y-58247580D01*
X56646096Y-58464379D01*
X56338164Y-58639453D01*
X56203715Y-58702333D01*
X56094643Y-58738444D01*
X56004560Y-58749003D01*
X55927084Y-58735229D01*
X55898556Y-58723355D01*
X55842913Y-58676378D01*
X55798370Y-58602734D01*
X55772155Y-58517913D01*
X55769825Y-58447479D01*
X55787520Y-58379665D01*
X55824634Y-58321099D01*
X55887147Y-58265902D01*
X55981038Y-58208193D01*
X56049238Y-58172744D01*
X56322804Y-58016501D01*
X56583746Y-57828894D01*
X56824524Y-57616501D01*
X57037598Y-57385897D01*
X57197388Y-57171332D01*
X57344743Y-56919681D01*
X57474583Y-56639438D01*
X57582584Y-56342241D01*
X57664417Y-56039726D01*
X57709052Y-55795201D01*
X57721572Y-55706881D01*
X57733096Y-55628000D01*
X57741432Y-55573514D01*
X57742390Y-55567659D01*
X57752097Y-55509451D01*
X54916822Y-55509451D01*
X54916822Y-56657431D01*
X54834645Y-56739607D01*
X54779278Y-56789531D01*
X54732262Y-56814113D01*
X54676188Y-56821608D01*
X54661330Y-56821784D01*
X54568259Y-56805666D01*
X54483969Y-56762683D01*
X54422566Y-56700887D01*
X54409985Y-56678301D01*
X54403411Y-56641822D01*
X54397919Y-56564623D01*
X54393554Y-56448303D01*
X54390359Y-56294460D01*
X54388379Y-56104695D01*
X54387657Y-55880607D01*
X54387655Y-55866171D01*
X54387655Y-55103050D01*
X54459622Y-55031084D01*
X54531588Y-54959117D01*
X56038655Y-54959117D01*
X56038655Y-54544341D01*
X56039164Y-54396406D01*
X56040995Y-54284622D01*
X56044609Y-54202818D01*
X56050462Y-54144820D01*
X56059015Y-54104457D01*
X56070724Y-54075554D01*
X56073903Y-54069895D01*
X56123681Y-54011308D01*
X56193439Y-53977474D01*
X56291775Y-53964655D01*
X56316934Y-53964284D01*
X56387520Y-53968375D01*
G36*
X75320590Y-54747528D02*
X75336312Y-54747529D01*
X75617801Y-54747574D01*
X75860073Y-54747737D01*
X76066244Y-54748104D01*
X76239429Y-54748765D01*
X76382746Y-54749809D01*
X76499309Y-54751324D01*
X76592235Y-54753399D01*
X76664641Y-54756122D01*
X76719641Y-54759582D01*
X76760353Y-54763867D01*
X76789891Y-54769066D01*
X76811373Y-54775269D01*
X76827915Y-54782562D01*
X76841470Y-54790326D01*
X76911320Y-54855658D01*
X76954759Y-54943283D01*
X76965203Y-55038541D01*
X76962339Y-55059495D01*
X76939473Y-55119322D01*
X76897753Y-55185312D01*
X76877616Y-55209532D01*
X76806469Y-55287200D01*
X76222729Y-55293449D01*
X75638988Y-55299698D01*
X75638988Y-57414450D01*
X76635914Y-57414450D01*
X76878968Y-57414518D01*
X77083318Y-57414983D01*
X77252594Y-57416234D01*
X77390427Y-57418659D01*
X77500444Y-57422649D01*
X77586278Y-57428593D01*
X77651556Y-57436880D01*
X77699910Y-57447899D01*
X77734968Y-57462040D01*
X77760360Y-57479692D01*
X77779717Y-57501245D01*
X77796668Y-57527087D01*
X77804210Y-57539766D01*
X77827423Y-57601775D01*
X77839655Y-57679918D01*
X77840322Y-57700664D01*
X77836312Y-57764466D01*
X77818798Y-57811736D01*
X77779554Y-57860688D01*
X77758145Y-57882607D01*
X77675969Y-57964783D01*
X73189915Y-57964783D01*
X73117993Y-57916525D01*
X73047088Y-57845136D01*
X73007628Y-57753098D01*
X73003186Y-57651627D01*
X73016352Y-57597575D01*
X73050487Y-57531680D01*
X73096616Y-57476781D01*
X73105810Y-57469284D01*
X73121062Y-57458840D01*
X73138652Y-57450151D01*
X73162436Y-57443028D01*
X73196272Y-57437281D01*
X73244016Y-57432720D01*
X73309526Y-57429157D01*
X73396659Y-57426402D01*
X73509272Y-57424265D01*
X73651221Y-57422557D01*
X73826363Y-57421088D01*
X74038557Y-57419670D01*
X74127101Y-57419120D01*
X75088655Y-57413207D01*
X75088655Y-55297783D01*
X74505520Y-55297783D01*
X74321215Y-55297503D01*
X74174190Y-55296130D01*
X74059397Y-55292860D01*
X73971783Y-55286892D01*
X73906298Y-55277424D01*
X73857890Y-55263655D01*
X73821511Y-55244781D01*
X73792107Y-55220001D01*
X73764629Y-55188514D01*
X73757024Y-55178935D01*
X73724835Y-55109854D01*
X73712461Y-55021402D01*
X73720441Y-54931897D01*
X73747715Y-54862040D01*
X73761998Y-54840139D01*
X73776112Y-54821220D01*
X73793084Y-54805067D01*
X73815936Y-54791460D01*
X73847695Y-54780183D01*
X73891385Y-54771016D01*
X73950031Y-54763742D01*
X74026658Y-54758143D01*
X74124290Y-54754001D01*
X74245953Y-54751097D01*
X74394671Y-54749214D01*
X74573469Y-54748134D01*
X74785371Y-54747638D01*
X75033403Y-54747509D01*
X75320590Y-54747528D01*
X75320590Y-54747528D01*
G37*
X75320590Y-54747528D02*
X75336312Y-54747529D01*
X75617801Y-54747574D01*
X75860073Y-54747737D01*
X76066244Y-54748104D01*
X76239429Y-54748765D01*
X76382746Y-54749809D01*
X76499309Y-54751324D01*
X76592235Y-54753399D01*
X76664641Y-54756122D01*
X76719641Y-54759582D01*
X76760353Y-54763867D01*
X76789891Y-54769066D01*
X76811373Y-54775269D01*
X76827915Y-54782562D01*
X76841470Y-54790326D01*
X76911320Y-54855658D01*
X76954759Y-54943283D01*
X76965203Y-55038541D01*
X76962339Y-55059495D01*
X76939473Y-55119322D01*
X76897753Y-55185312D01*
X76877616Y-55209532D01*
X76806469Y-55287200D01*
X76222729Y-55293449D01*
X75638988Y-55299698D01*
X75638988Y-57414450D01*
X76635914Y-57414450D01*
X76878968Y-57414518D01*
X77083318Y-57414983D01*
X77252594Y-57416234D01*
X77390427Y-57418659D01*
X77500444Y-57422649D01*
X77586278Y-57428593D01*
X77651556Y-57436880D01*
X77699910Y-57447899D01*
X77734968Y-57462040D01*
X77760360Y-57479692D01*
X77779717Y-57501245D01*
X77796668Y-57527087D01*
X77804210Y-57539766D01*
X77827423Y-57601775D01*
X77839655Y-57679918D01*
X77840322Y-57700664D01*
X77836312Y-57764466D01*
X77818798Y-57811736D01*
X77779554Y-57860688D01*
X77758145Y-57882607D01*
X77675969Y-57964783D01*
X73189915Y-57964783D01*
X73117993Y-57916525D01*
X73047088Y-57845136D01*
X73007628Y-57753098D01*
X73003186Y-57651627D01*
X73016352Y-57597575D01*
X73050487Y-57531680D01*
X73096616Y-57476781D01*
X73105810Y-57469284D01*
X73121062Y-57458840D01*
X73138652Y-57450151D01*
X73162436Y-57443028D01*
X73196272Y-57437281D01*
X73244016Y-57432720D01*
X73309526Y-57429157D01*
X73396659Y-57426402D01*
X73509272Y-57424265D01*
X73651221Y-57422557D01*
X73826363Y-57421088D01*
X74038557Y-57419670D01*
X74127101Y-57419120D01*
X75088655Y-57413207D01*
X75088655Y-55297783D01*
X74505520Y-55297783D01*
X74321215Y-55297503D01*
X74174190Y-55296130D01*
X74059397Y-55292860D01*
X73971783Y-55286892D01*
X73906298Y-55277424D01*
X73857890Y-55263655D01*
X73821511Y-55244781D01*
X73792107Y-55220001D01*
X73764629Y-55188514D01*
X73757024Y-55178935D01*
X73724835Y-55109854D01*
X73712461Y-55021402D01*
X73720441Y-54931897D01*
X73747715Y-54862040D01*
X73761998Y-54840139D01*
X73776112Y-54821220D01*
X73793084Y-54805067D01*
X73815936Y-54791460D01*
X73847695Y-54780183D01*
X73891385Y-54771016D01*
X73950031Y-54763742D01*
X74026658Y-54758143D01*
X74124290Y-54754001D01*
X74245953Y-54751097D01*
X74394671Y-54749214D01*
X74573469Y-54748134D01*
X74785371Y-54747638D01*
X75033403Y-54747509D01*
X75320590Y-54747528D01*
G36*
X95021498Y-54072551D02*
X95094748Y-54086435D01*
X95126019Y-54101134D01*
X95160545Y-54129290D01*
X95187352Y-54163144D01*
X95207391Y-54208094D01*
X95221612Y-54269538D01*
X95230963Y-54352874D01*
X95236394Y-54463501D01*
X95238854Y-54606816D01*
X95239322Y-54745357D01*
X95239322Y-55213117D01*
X95837280Y-55213149D01*
X96015460Y-55213412D01*
X96156441Y-55214369D01*
X96265355Y-55216302D01*
X96347334Y-55219495D01*
X96407511Y-55224232D01*
X96451018Y-55230796D01*
X96482987Y-55239471D01*
X96507869Y-55250191D01*
X96583756Y-55310622D01*
X96633602Y-55394870D01*
X96650779Y-55489892D01*
X96647555Y-55525013D01*
X96629481Y-55595075D01*
X96597124Y-55648876D01*
X96540013Y-55702415D01*
X96522342Y-55716322D01*
X96503489Y-55729960D01*
X96483015Y-55740677D01*
X96455903Y-55748823D01*
X96417134Y-55754751D01*
X96361691Y-55758814D01*
X96284556Y-55761363D01*
X96180711Y-55762750D01*
X96045136Y-55763328D01*
X95872816Y-55763449D01*
X95850747Y-55763450D01*
X95240215Y-55763450D01*
X95228739Y-58539552D01*
X95149674Y-58612001D01*
X95095831Y-58656122D01*
X95047531Y-58677229D01*
X94984086Y-58683023D01*
X94959174Y-58682929D01*
X94902962Y-58677011D01*
X94814809Y-58661499D01*
X94703533Y-58638231D01*
X94577955Y-58609041D01*
X94456155Y-58578213D01*
X94328716Y-58543896D01*
X94211187Y-58510886D01*
X94111388Y-58481486D01*
X94037138Y-58457996D01*
X93996737Y-58442950D01*
X93926860Y-58388528D01*
X93882113Y-58310166D01*
X93863773Y-58218897D01*
X93873118Y-58125757D01*
X93911428Y-58041779D01*
X93945770Y-58003082D01*
X94001634Y-57966441D01*
X94071447Y-57947358D01*
X94160999Y-57945866D01*
X94276082Y-57962002D01*
X94422487Y-57995798D01*
X94461447Y-58006140D01*
X94688989Y-58067700D01*
X94688989Y-56286265D01*
X94313280Y-56654566D01*
X93989579Y-56962183D01*
X93673728Y-57241592D01*
X93354342Y-57502298D01*
X93020034Y-57753803D01*
X92858512Y-57868739D01*
X92764163Y-57934099D01*
X92695619Y-57978668D01*
X92644341Y-58006408D01*
X92601790Y-58021282D01*
X92559428Y-58027250D01*
X92514686Y-58028283D01*
X92442564Y-58025164D01*
X92393905Y-58011034D01*
X92350011Y-57978732D01*
X92326789Y-57956317D01*
X92284821Y-57909765D01*
X92263311Y-57867060D01*
X92255597Y-57810379D01*
X92254822Y-57763700D01*
X92257491Y-57690859D01*
X92269761Y-57643012D01*
X92298023Y-57602943D01*
X92324374Y-57576375D01*
X92367827Y-57539328D01*
X92437367Y-57485274D01*
X92524046Y-57420964D01*
X92618913Y-57353151D01*
X92636582Y-57340806D01*
X92790761Y-57229910D01*
X92963858Y-57099393D01*
X93143948Y-56958628D01*
X93319106Y-56816991D01*
X93477406Y-56683856D01*
X93524822Y-56642586D01*
X93582953Y-56589801D01*
X93658790Y-56518480D01*
X93747783Y-56433144D01*
X93845384Y-56338314D01*
X93947043Y-56238512D01*
X94048209Y-56138258D01*
X94144334Y-56042073D01*
X94230868Y-55954480D01*
X94303260Y-55879998D01*
X94356963Y-55823149D01*
X94387425Y-55788455D01*
X94392655Y-55780182D01*
X94372195Y-55776723D01*
X94313641Y-55773506D01*
X94221232Y-55770605D01*
X94099208Y-55768095D01*
X93951806Y-55766052D01*
X93783267Y-55764550D01*
X93597830Y-55763665D01*
X93446757Y-55763450D01*
X93222169Y-55763417D01*
X93035992Y-55763197D01*
X92884301Y-55762608D01*
X92763173Y-55761466D01*
X92668684Y-55759590D01*
X92596911Y-55756796D01*
X92543930Y-55752901D01*
X92505818Y-55747724D01*
X92478651Y-55741081D01*
X92458507Y-55732791D01*
X92441460Y-55722669D01*
X92431920Y-55716213D01*
X92380538Y-55672469D01*
X92343975Y-55626449D01*
X92340652Y-55619967D01*
X92321277Y-55539927D01*
X92322140Y-55445169D01*
X92342398Y-55357684D01*
X92351478Y-55337398D01*
X92365879Y-55310869D01*
X92381710Y-55288413D01*
X92402404Y-55269689D01*
X92431393Y-55254359D01*
X92472110Y-55242083D01*
X92527987Y-55232522D01*
X92602456Y-55225337D01*
X92698951Y-55220188D01*
X92820903Y-55216737D01*
X92971745Y-55214643D01*
X93154910Y-55213568D01*
X93373829Y-55213172D01*
X93608809Y-55213116D01*
X94688989Y-55213117D01*
X94688989Y-54746770D01*
X94689760Y-54573854D01*
X94692675Y-54437904D01*
X94698636Y-54333570D01*
X94708546Y-54255500D01*
X94723308Y-54198347D01*
X94743822Y-54156760D01*
X94770992Y-54125389D01*
X94797296Y-54104633D01*
X94855377Y-54081835D01*
X94935909Y-54071079D01*
X95021498Y-54072551D01*
X95021498Y-54072551D01*
G37*
X95021498Y-54072551D02*
X95094748Y-54086435D01*
X95126019Y-54101134D01*
X95160545Y-54129290D01*
X95187352Y-54163144D01*
X95207391Y-54208094D01*
X95221612Y-54269538D01*
X95230963Y-54352874D01*
X95236394Y-54463501D01*
X95238854Y-54606816D01*
X95239322Y-54745357D01*
X95239322Y-55213117D01*
X95837280Y-55213149D01*
X96015460Y-55213412D01*
X96156441Y-55214369D01*
X96265355Y-55216302D01*
X96347334Y-55219495D01*
X96407511Y-55224232D01*
X96451018Y-55230796D01*
X96482987Y-55239471D01*
X96507869Y-55250191D01*
X96583756Y-55310622D01*
X96633602Y-55394870D01*
X96650779Y-55489892D01*
X96647555Y-55525013D01*
X96629481Y-55595075D01*
X96597124Y-55648876D01*
X96540013Y-55702415D01*
X96522342Y-55716322D01*
X96503489Y-55729960D01*
X96483015Y-55740677D01*
X96455903Y-55748823D01*
X96417134Y-55754751D01*
X96361691Y-55758814D01*
X96284556Y-55761363D01*
X96180711Y-55762750D01*
X96045136Y-55763328D01*
X95872816Y-55763449D01*
X95850747Y-55763450D01*
X95240215Y-55763450D01*
X95228739Y-58539552D01*
X95149674Y-58612001D01*
X95095831Y-58656122D01*
X95047531Y-58677229D01*
X94984086Y-58683023D01*
X94959174Y-58682929D01*
X94902962Y-58677011D01*
X94814809Y-58661499D01*
X94703533Y-58638231D01*
X94577955Y-58609041D01*
X94456155Y-58578213D01*
X94328716Y-58543896D01*
X94211187Y-58510886D01*
X94111388Y-58481486D01*
X94037138Y-58457996D01*
X93996737Y-58442950D01*
X93926860Y-58388528D01*
X93882113Y-58310166D01*
X93863773Y-58218897D01*
X93873118Y-58125757D01*
X93911428Y-58041779D01*
X93945770Y-58003082D01*
X94001634Y-57966441D01*
X94071447Y-57947358D01*
X94160999Y-57945866D01*
X94276082Y-57962002D01*
X94422487Y-57995798D01*
X94461447Y-58006140D01*
X94688989Y-58067700D01*
X94688989Y-56286265D01*
X94313280Y-56654566D01*
X93989579Y-56962183D01*
X93673728Y-57241592D01*
X93354342Y-57502298D01*
X93020034Y-57753803D01*
X92858512Y-57868739D01*
X92764163Y-57934099D01*
X92695619Y-57978668D01*
X92644341Y-58006408D01*
X92601790Y-58021282D01*
X92559428Y-58027250D01*
X92514686Y-58028283D01*
X92442564Y-58025164D01*
X92393905Y-58011034D01*
X92350011Y-57978732D01*
X92326789Y-57956317D01*
X92284821Y-57909765D01*
X92263311Y-57867060D01*
X92255597Y-57810379D01*
X92254822Y-57763700D01*
X92257491Y-57690859D01*
X92269761Y-57643012D01*
X92298023Y-57602943D01*
X92324374Y-57576375D01*
X92367827Y-57539328D01*
X92437367Y-57485274D01*
X92524046Y-57420964D01*
X92618913Y-57353151D01*
X92636582Y-57340806D01*
X92790761Y-57229910D01*
X92963858Y-57099393D01*
X93143948Y-56958628D01*
X93319106Y-56816991D01*
X93477406Y-56683856D01*
X93524822Y-56642586D01*
X93582953Y-56589801D01*
X93658790Y-56518480D01*
X93747783Y-56433144D01*
X93845384Y-56338314D01*
X93947043Y-56238512D01*
X94048209Y-56138258D01*
X94144334Y-56042073D01*
X94230868Y-55954480D01*
X94303260Y-55879998D01*
X94356963Y-55823149D01*
X94387425Y-55788455D01*
X94392655Y-55780182D01*
X94372195Y-55776723D01*
X94313641Y-55773506D01*
X94221232Y-55770605D01*
X94099208Y-55768095D01*
X93951806Y-55766052D01*
X93783267Y-55764550D01*
X93597830Y-55763665D01*
X93446757Y-55763450D01*
X93222169Y-55763417D01*
X93035992Y-55763197D01*
X92884301Y-55762608D01*
X92763173Y-55761466D01*
X92668684Y-55759590D01*
X92596911Y-55756796D01*
X92543930Y-55752901D01*
X92505818Y-55747724D01*
X92478651Y-55741081D01*
X92458507Y-55732791D01*
X92441460Y-55722669D01*
X92431920Y-55716213D01*
X92380538Y-55672469D01*
X92343975Y-55626449D01*
X92340652Y-55619967D01*
X92321277Y-55539927D01*
X92322140Y-55445169D01*
X92342398Y-55357684D01*
X92351478Y-55337398D01*
X92365879Y-55310869D01*
X92381710Y-55288413D01*
X92402404Y-55269689D01*
X92431393Y-55254359D01*
X92472110Y-55242083D01*
X92527987Y-55232522D01*
X92602456Y-55225337D01*
X92698951Y-55220188D01*
X92820903Y-55216737D01*
X92971745Y-55214643D01*
X93154910Y-55213568D01*
X93373829Y-55213172D01*
X93608809Y-55213116D01*
X94688989Y-55213117D01*
X94688989Y-54746770D01*
X94689760Y-54573854D01*
X94692675Y-54437904D01*
X94698636Y-54333570D01*
X94708546Y-54255500D01*
X94723308Y-54198347D01*
X94743822Y-54156760D01*
X94770992Y-54125389D01*
X94797296Y-54104633D01*
X94855377Y-54081835D01*
X94935909Y-54071079D01*
X95021498Y-54072551D01*
G36*
X18585029Y-73094381D02*
X18667180Y-73130620D01*
X18733385Y-73191783D01*
X18775122Y-73274541D01*
X18785242Y-73347171D01*
X18781182Y-73385595D01*
X18769923Y-73457749D01*
X18752918Y-73555926D01*
X18731617Y-73672415D01*
X18707471Y-73799508D01*
X18681932Y-73929494D01*
X18656450Y-74054665D01*
X18632477Y-74167312D01*
X18622082Y-74214010D01*
X18611620Y-74260154D01*
X19356288Y-74266927D01*
X20100956Y-74273701D01*
X20173389Y-74352765D01*
X20215688Y-74403797D01*
X20237335Y-74449536D01*
X20245015Y-74508565D01*
X20245707Y-74553848D01*
X20240672Y-74655231D01*
X20226559Y-74790509D01*
X20204627Y-74952525D01*
X20176132Y-75134122D01*
X20142333Y-75328141D01*
X20104487Y-75527426D01*
X20063851Y-75724819D01*
X20021684Y-75913164D01*
X19979244Y-76085301D01*
X19971355Y-76115201D01*
X19895480Y-76377403D01*
X19804419Y-76655813D01*
X19703177Y-76936691D01*
X19596758Y-77206298D01*
X19490167Y-77450895D01*
X19466157Y-77502162D01*
X19408521Y-77611668D01*
X19353723Y-77685858D01*
X19294759Y-77730591D01*
X19224625Y-77751721D01*
X19163056Y-77755610D01*
X19129901Y-77753395D01*
X19093908Y-77744965D01*
X19049879Y-77727633D01*
X18992613Y-77698714D01*
X18916911Y-77655522D01*
X18817573Y-77595371D01*
X18689399Y-77515574D01*
X18647738Y-77489409D01*
X18493214Y-77391590D01*
X18371167Y-77312199D01*
X18277812Y-77247823D01*
X18209362Y-77195047D01*
X18162032Y-77150459D01*
X18132035Y-77110646D01*
X18115585Y-77072194D01*
X18108895Y-77031690D01*
X18107988Y-77002815D01*
X18124309Y-76888896D01*
X18171543Y-76801961D01*
X18247101Y-76744744D01*
X18348392Y-76719978D01*
X18376812Y-76719171D01*
X18415594Y-76724038D01*
X18462897Y-76740033D01*
X18524839Y-76770233D01*
X18607539Y-76817714D01*
X18717114Y-76885552D01*
X18752815Y-76908213D01*
X19048393Y-77096533D01*
X19106931Y-76959312D01*
X19201675Y-76718377D01*
X19295052Y-76445201D01*
X19384208Y-76149849D01*
X19466285Y-75842388D01*
X19538427Y-75532883D01*
X19597779Y-75231400D01*
X19598696Y-75226201D01*
X19618980Y-75111681D01*
X19637401Y-75008933D01*
X19652393Y-74926612D01*
X19662385Y-74873375D01*
X19664863Y-74861076D01*
X19675128Y-74813451D01*
X18451962Y-74813451D01*
X18383798Y-75009242D01*
X18208720Y-75459861D01*
X18006599Y-75884877D01*
X17778960Y-76281820D01*
X17527325Y-76648220D01*
X17253216Y-76981607D01*
X17019843Y-77221866D01*
X16906196Y-77328203D01*
X16815669Y-77407140D01*
X16742469Y-77462199D01*
X16680808Y-77496903D01*
X16624892Y-77514777D01*
X16568932Y-77519343D01*
X16534283Y-77517292D01*
X16458688Y-77504115D01*
X16405549Y-77476519D01*
X16368731Y-77441000D01*
X16307429Y-77347222D01*
X16288080Y-77251834D01*
X16310497Y-77157290D01*
X16374495Y-77066046D01*
X16398864Y-77042308D01*
X16565621Y-76887392D01*
X16717738Y-76739376D01*
X16849713Y-76603816D01*
X16956047Y-76486267D01*
X16991997Y-76443284D01*
X17176672Y-76194837D01*
X17356670Y-75912573D01*
X17527164Y-75605006D01*
X17683326Y-75280652D01*
X17778058Y-75056867D01*
X17871160Y-74824034D01*
X17231882Y-74813451D01*
X17037484Y-74810019D01*
X16880871Y-74806211D01*
X16757498Y-74801086D01*
X16662819Y-74793705D01*
X16592291Y-74783127D01*
X16541367Y-74768413D01*
X16505504Y-74748623D01*
X16480156Y-74722817D01*
X16460778Y-74690055D01*
X16443230Y-74650368D01*
X16420562Y-74547765D01*
X16435698Y-74451294D01*
X16484142Y-74368721D01*
X16561397Y-74307811D01*
X16659579Y-74276776D01*
X16705855Y-74273314D01*
X16788197Y-74270175D01*
X16900339Y-74267474D01*
X17036014Y-74265327D01*
X17188954Y-74263849D01*
X17352894Y-74263155D01*
X17401043Y-74263117D01*
X18042856Y-74263117D01*
X18067112Y-74173159D01*
X18094936Y-74063029D01*
X18127070Y-73924782D01*
X18160554Y-73772002D01*
X18192427Y-73618275D01*
X18219731Y-73477188D01*
X18224738Y-73449711D01*
X18244814Y-73347082D01*
X18263879Y-73275701D01*
X18285903Y-73224775D01*
X18314853Y-73183512D01*
X18328127Y-73168519D01*
X18406980Y-73110000D01*
X18495455Y-73086397D01*
X18585029Y-73094381D01*
X18585029Y-73094381D01*
G37*
X18585029Y-73094381D02*
X18667180Y-73130620D01*
X18733385Y-73191783D01*
X18775122Y-73274541D01*
X18785242Y-73347171D01*
X18781182Y-73385595D01*
X18769923Y-73457749D01*
X18752918Y-73555926D01*
X18731617Y-73672415D01*
X18707471Y-73799508D01*
X18681932Y-73929494D01*
X18656450Y-74054665D01*
X18632477Y-74167312D01*
X18622082Y-74214010D01*
X18611620Y-74260154D01*
X19356288Y-74266927D01*
X20100956Y-74273701D01*
X20173389Y-74352765D01*
X20215688Y-74403797D01*
X20237335Y-74449536D01*
X20245015Y-74508565D01*
X20245707Y-74553848D01*
X20240672Y-74655231D01*
X20226559Y-74790509D01*
X20204627Y-74952525D01*
X20176132Y-75134122D01*
X20142333Y-75328141D01*
X20104487Y-75527426D01*
X20063851Y-75724819D01*
X20021684Y-75913164D01*
X19979244Y-76085301D01*
X19971355Y-76115201D01*
X19895480Y-76377403D01*
X19804419Y-76655813D01*
X19703177Y-76936691D01*
X19596758Y-77206298D01*
X19490167Y-77450895D01*
X19466157Y-77502162D01*
X19408521Y-77611668D01*
X19353723Y-77685858D01*
X19294759Y-77730591D01*
X19224625Y-77751721D01*
X19163056Y-77755610D01*
X19129901Y-77753395D01*
X19093908Y-77744965D01*
X19049879Y-77727633D01*
X18992613Y-77698714D01*
X18916911Y-77655522D01*
X18817573Y-77595371D01*
X18689399Y-77515574D01*
X18647738Y-77489409D01*
X18493214Y-77391590D01*
X18371167Y-77312199D01*
X18277812Y-77247823D01*
X18209362Y-77195047D01*
X18162032Y-77150459D01*
X18132035Y-77110646D01*
X18115585Y-77072194D01*
X18108895Y-77031690D01*
X18107988Y-77002815D01*
X18124309Y-76888896D01*
X18171543Y-76801961D01*
X18247101Y-76744744D01*
X18348392Y-76719978D01*
X18376812Y-76719171D01*
X18415594Y-76724038D01*
X18462897Y-76740033D01*
X18524839Y-76770233D01*
X18607539Y-76817714D01*
X18717114Y-76885552D01*
X18752815Y-76908213D01*
X19048393Y-77096533D01*
X19106931Y-76959312D01*
X19201675Y-76718377D01*
X19295052Y-76445201D01*
X19384208Y-76149849D01*
X19466285Y-75842388D01*
X19538427Y-75532883D01*
X19597779Y-75231400D01*
X19598696Y-75226201D01*
X19618980Y-75111681D01*
X19637401Y-75008933D01*
X19652393Y-74926612D01*
X19662385Y-74873375D01*
X19664863Y-74861076D01*
X19675128Y-74813451D01*
X18451962Y-74813451D01*
X18383798Y-75009242D01*
X18208720Y-75459861D01*
X18006599Y-75884877D01*
X17778960Y-76281820D01*
X17527325Y-76648220D01*
X17253216Y-76981607D01*
X17019843Y-77221866D01*
X16906196Y-77328203D01*
X16815669Y-77407140D01*
X16742469Y-77462199D01*
X16680808Y-77496903D01*
X16624892Y-77514777D01*
X16568932Y-77519343D01*
X16534283Y-77517292D01*
X16458688Y-77504115D01*
X16405549Y-77476519D01*
X16368731Y-77441000D01*
X16307429Y-77347222D01*
X16288080Y-77251834D01*
X16310497Y-77157290D01*
X16374495Y-77066046D01*
X16398864Y-77042308D01*
X16565621Y-76887392D01*
X16717738Y-76739376D01*
X16849713Y-76603816D01*
X16956047Y-76486267D01*
X16991997Y-76443284D01*
X17176672Y-76194837D01*
X17356670Y-75912573D01*
X17527164Y-75605006D01*
X17683326Y-75280652D01*
X17778058Y-75056867D01*
X17871160Y-74824034D01*
X17231882Y-74813451D01*
X17037484Y-74810019D01*
X16880871Y-74806211D01*
X16757498Y-74801086D01*
X16662819Y-74793705D01*
X16592291Y-74783127D01*
X16541367Y-74768413D01*
X16505504Y-74748623D01*
X16480156Y-74722817D01*
X16460778Y-74690055D01*
X16443230Y-74650368D01*
X16420562Y-74547765D01*
X16435698Y-74451294D01*
X16484142Y-74368721D01*
X16561397Y-74307811D01*
X16659579Y-74276776D01*
X16705855Y-74273314D01*
X16788197Y-74270175D01*
X16900339Y-74267474D01*
X17036014Y-74265327D01*
X17188954Y-74263849D01*
X17352894Y-74263155D01*
X17401043Y-74263117D01*
X18042856Y-74263117D01*
X18067112Y-74173159D01*
X18094936Y-74063029D01*
X18127070Y-73924782D01*
X18160554Y-73772002D01*
X18192427Y-73618275D01*
X18219731Y-73477188D01*
X18224738Y-73449711D01*
X18244814Y-73347082D01*
X18263879Y-73275701D01*
X18285903Y-73224775D01*
X18314853Y-73183512D01*
X18328127Y-73168519D01*
X18406980Y-73110000D01*
X18495455Y-73086397D01*
X18585029Y-73094381D01*
G36*
X36860897Y-72974741D02*
X36909539Y-72987362D01*
X36951006Y-73016184D01*
X36976592Y-73040742D01*
X36999187Y-73065107D01*
X37017861Y-73091519D01*
X37034369Y-73125838D01*
X37050471Y-73173929D01*
X37067921Y-73241652D01*
X37088478Y-73334871D01*
X37113898Y-73459447D01*
X37137026Y-73576041D01*
X37229089Y-74042548D01*
X37812663Y-73930712D01*
X38000495Y-73894987D01*
X38151684Y-73867063D01*
X38271085Y-73846364D01*
X38363551Y-73832318D01*
X38433936Y-73824348D01*
X38487095Y-73821881D01*
X38527882Y-73824342D01*
X38561149Y-73831156D01*
X38585350Y-73839256D01*
X38654110Y-73885886D01*
X38699494Y-73957874D01*
X38720924Y-74044912D01*
X38717825Y-74136689D01*
X38689622Y-74222898D01*
X38635739Y-74293229D01*
X38611725Y-74311523D01*
X38579460Y-74323156D01*
X38511313Y-74340988D01*
X38413072Y-74363738D01*
X38290523Y-74390125D01*
X38149451Y-74418868D01*
X37995644Y-74448685D01*
X37972905Y-74452970D01*
X37819569Y-74482196D01*
X37679738Y-74509688D01*
X37558845Y-74534311D01*
X37462324Y-74554929D01*
X37395608Y-74570407D01*
X37364132Y-74579608D01*
X37362636Y-74580504D01*
X37362126Y-74604241D01*
X37368955Y-74661763D01*
X37381692Y-74745439D01*
X37398910Y-74847637D01*
X37419178Y-74960726D01*
X37441068Y-75077074D01*
X37463151Y-75189052D01*
X37483999Y-75289028D01*
X37502181Y-75369369D01*
X37516269Y-75422447D01*
X37523604Y-75440122D01*
X37546110Y-75438379D01*
X37605679Y-75428655D01*
X37697969Y-75411791D01*
X37818639Y-75388628D01*
X37963348Y-75360007D01*
X38127755Y-75326770D01*
X38307519Y-75289756D01*
X38409083Y-75268572D01*
X38656423Y-75217410D01*
X38867960Y-75175047D01*
X39042705Y-75141663D01*
X39179667Y-75117438D01*
X39277859Y-75102551D01*
X39336289Y-75097182D01*
X39349210Y-75097893D01*
X39433882Y-75132729D01*
X39495891Y-75195505D01*
X39533406Y-75277305D01*
X39544597Y-75369215D01*
X39527632Y-75462322D01*
X39480681Y-75547710D01*
X39448616Y-75581845D01*
X39421418Y-75595535D01*
X39363611Y-75614281D01*
X39273395Y-75638519D01*
X39148972Y-75668681D01*
X38988543Y-75705203D01*
X38790308Y-75748517D01*
X38552469Y-75799059D01*
X38520408Y-75805792D01*
X38294062Y-75853610D01*
X38106477Y-75894030D01*
X37954855Y-75927738D01*
X37836402Y-75955417D01*
X37748322Y-75977750D01*
X37687819Y-75995423D01*
X37652099Y-76009119D01*
X37638365Y-76019522D01*
X37638041Y-76021698D01*
X37642849Y-76048666D01*
X37654883Y-76112393D01*
X37673222Y-76208097D01*
X37696941Y-76330997D01*
X37725118Y-76476309D01*
X37756829Y-76639252D01*
X37791151Y-76815044D01*
X37793906Y-76829128D01*
X37836922Y-77052647D01*
X37872378Y-77244514D01*
X37899968Y-77402874D01*
X37919385Y-77525874D01*
X37930324Y-77611663D01*
X37932477Y-77658387D01*
X37931730Y-77663284D01*
X37908024Y-77713058D01*
X37865393Y-77770686D01*
X37846774Y-77790731D01*
X37796978Y-77834468D01*
X37749771Y-77855335D01*
X37684906Y-77861332D01*
X37667794Y-77861451D01*
X37595079Y-77857014D01*
X37543003Y-77838377D01*
X37490325Y-77797547D01*
X37484989Y-77792659D01*
X37410445Y-77723867D01*
X37252339Y-76921170D01*
X37217075Y-76742825D01*
X37184206Y-76577906D01*
X37154653Y-76430936D01*
X37129337Y-76306440D01*
X37109179Y-76208941D01*
X37095101Y-76142966D01*
X37088024Y-76113036D01*
X37087504Y-76111745D01*
X37066036Y-76114474D01*
X37007440Y-76125031D01*
X36916025Y-76142562D01*
X36796098Y-76166214D01*
X36651965Y-76195131D01*
X36487933Y-76228461D01*
X36308309Y-76265349D01*
X36203924Y-76286949D01*
X35989437Y-76331351D01*
X35812332Y-76367666D01*
X35668568Y-76396538D01*
X35554104Y-76418612D01*
X35464898Y-76434533D01*
X35396910Y-76444945D01*
X35346098Y-76450493D01*
X35308421Y-76451822D01*
X35279839Y-76449575D01*
X35256309Y-76444398D01*
X35243095Y-76440208D01*
X35160529Y-76393300D01*
X35102354Y-76323183D01*
X35069491Y-76239009D01*
X35062863Y-76149933D01*
X35083392Y-76065109D01*
X35132000Y-75993689D01*
X35193847Y-75951370D01*
X35229350Y-75940271D01*
X35301558Y-75921945D01*
X35405667Y-75897465D01*
X35536872Y-75867908D01*
X35690367Y-75834348D01*
X35861347Y-75797861D01*
X36045008Y-75759523D01*
X36120821Y-75743935D01*
X36304963Y-75706212D01*
X36475677Y-75671184D01*
X36628624Y-75639746D01*
X36759469Y-75612790D01*
X36863876Y-75591211D01*
X36937508Y-75575902D01*
X36976029Y-75567759D01*
X36980769Y-75566662D01*
X36978482Y-75545846D01*
X36968465Y-75491145D01*
X36952313Y-75409965D01*
X36931620Y-75309714D01*
X36907981Y-75197800D01*
X36882992Y-75081630D01*
X36858247Y-74968612D01*
X36835341Y-74866153D01*
X36815870Y-74781661D01*
X36801427Y-74722543D01*
X36793609Y-74696207D01*
X36793227Y-74695634D01*
X36769875Y-74696068D01*
X36710042Y-74703645D01*
X36618823Y-74717537D01*
X36501313Y-74736917D01*
X36362607Y-74760957D01*
X36207800Y-74788831D01*
X36124820Y-74804158D01*
X35469871Y-74926141D01*
X35387888Y-74884218D01*
X35307974Y-74821772D01*
X35253218Y-74735127D01*
X35231968Y-74637706D01*
X35231933Y-74633534D01*
X35250624Y-74548745D01*
X35299492Y-74468820D01*
X35367905Y-74409886D01*
X35385135Y-74401066D01*
X35423421Y-74389391D01*
X35497401Y-74371698D01*
X35601063Y-74349241D01*
X35728396Y-74323274D01*
X35873390Y-74295049D01*
X36030033Y-74265822D01*
X36057321Y-74260856D01*
X36211919Y-74232481D01*
X36352846Y-74205953D01*
X36474749Y-74182332D01*
X36572280Y-74162679D01*
X36640085Y-74148054D01*
X36672815Y-74139516D01*
X36674837Y-74138509D01*
X36675202Y-74114731D01*
X36667876Y-74056017D01*
X36653910Y-73968853D01*
X36634355Y-73859724D01*
X36610263Y-73735115D01*
X36606045Y-73714115D01*
X36572321Y-73544028D01*
X36547737Y-73409800D01*
X36532201Y-73305974D01*
X36525625Y-73227095D01*
X36527917Y-73167705D01*
X36538988Y-73122349D01*
X36558747Y-73085571D01*
X36587103Y-73051913D01*
X36594955Y-73043917D01*
X36641506Y-73001950D01*
X36684211Y-72980439D01*
X36740892Y-72972726D01*
X36787571Y-72971951D01*
X36860897Y-72974741D01*
X36860897Y-72974741D01*
G37*
X36860897Y-72974741D02*
X36909539Y-72987362D01*
X36951006Y-73016184D01*
X36976592Y-73040742D01*
X36999187Y-73065107D01*
X37017861Y-73091519D01*
X37034369Y-73125838D01*
X37050471Y-73173929D01*
X37067921Y-73241652D01*
X37088478Y-73334871D01*
X37113898Y-73459447D01*
X37137026Y-73576041D01*
X37229089Y-74042548D01*
X37812663Y-73930712D01*
X38000495Y-73894987D01*
X38151684Y-73867063D01*
X38271085Y-73846364D01*
X38363551Y-73832318D01*
X38433936Y-73824348D01*
X38487095Y-73821881D01*
X38527882Y-73824342D01*
X38561149Y-73831156D01*
X38585350Y-73839256D01*
X38654110Y-73885886D01*
X38699494Y-73957874D01*
X38720924Y-74044912D01*
X38717825Y-74136689D01*
X38689622Y-74222898D01*
X38635739Y-74293229D01*
X38611725Y-74311523D01*
X38579460Y-74323156D01*
X38511313Y-74340988D01*
X38413072Y-74363738D01*
X38290523Y-74390125D01*
X38149451Y-74418868D01*
X37995644Y-74448685D01*
X37972905Y-74452970D01*
X37819569Y-74482196D01*
X37679738Y-74509688D01*
X37558845Y-74534311D01*
X37462324Y-74554929D01*
X37395608Y-74570407D01*
X37364132Y-74579608D01*
X37362636Y-74580504D01*
X37362126Y-74604241D01*
X37368955Y-74661763D01*
X37381692Y-74745439D01*
X37398910Y-74847637D01*
X37419178Y-74960726D01*
X37441068Y-75077074D01*
X37463151Y-75189052D01*
X37483999Y-75289028D01*
X37502181Y-75369369D01*
X37516269Y-75422447D01*
X37523604Y-75440122D01*
X37546110Y-75438379D01*
X37605679Y-75428655D01*
X37697969Y-75411791D01*
X37818639Y-75388628D01*
X37963348Y-75360007D01*
X38127755Y-75326770D01*
X38307519Y-75289756D01*
X38409083Y-75268572D01*
X38656423Y-75217410D01*
X38867960Y-75175047D01*
X39042705Y-75141663D01*
X39179667Y-75117438D01*
X39277859Y-75102551D01*
X39336289Y-75097182D01*
X39349210Y-75097893D01*
X39433882Y-75132729D01*
X39495891Y-75195505D01*
X39533406Y-75277305D01*
X39544597Y-75369215D01*
X39527632Y-75462322D01*
X39480681Y-75547710D01*
X39448616Y-75581845D01*
X39421418Y-75595535D01*
X39363611Y-75614281D01*
X39273395Y-75638519D01*
X39148972Y-75668681D01*
X38988543Y-75705203D01*
X38790308Y-75748517D01*
X38552469Y-75799059D01*
X38520408Y-75805792D01*
X38294062Y-75853610D01*
X38106477Y-75894030D01*
X37954855Y-75927738D01*
X37836402Y-75955417D01*
X37748322Y-75977750D01*
X37687819Y-75995423D01*
X37652099Y-76009119D01*
X37638365Y-76019522D01*
X37638041Y-76021698D01*
X37642849Y-76048666D01*
X37654883Y-76112393D01*
X37673222Y-76208097D01*
X37696941Y-76330997D01*
X37725118Y-76476309D01*
X37756829Y-76639252D01*
X37791151Y-76815044D01*
X37793906Y-76829128D01*
X37836922Y-77052647D01*
X37872378Y-77244514D01*
X37899968Y-77402874D01*
X37919385Y-77525874D01*
X37930324Y-77611663D01*
X37932477Y-77658387D01*
X37931730Y-77663284D01*
X37908024Y-77713058D01*
X37865393Y-77770686D01*
X37846774Y-77790731D01*
X37796978Y-77834468D01*
X37749771Y-77855335D01*
X37684906Y-77861332D01*
X37667794Y-77861451D01*
X37595079Y-77857014D01*
X37543003Y-77838377D01*
X37490325Y-77797547D01*
X37484989Y-77792659D01*
X37410445Y-77723867D01*
X37252339Y-76921170D01*
X37217075Y-76742825D01*
X37184206Y-76577906D01*
X37154653Y-76430936D01*
X37129337Y-76306440D01*
X37109179Y-76208941D01*
X37095101Y-76142966D01*
X37088024Y-76113036D01*
X37087504Y-76111745D01*
X37066036Y-76114474D01*
X37007440Y-76125031D01*
X36916025Y-76142562D01*
X36796098Y-76166214D01*
X36651965Y-76195131D01*
X36487933Y-76228461D01*
X36308309Y-76265349D01*
X36203924Y-76286949D01*
X35989437Y-76331351D01*
X35812332Y-76367666D01*
X35668568Y-76396538D01*
X35554104Y-76418612D01*
X35464898Y-76434533D01*
X35396910Y-76444945D01*
X35346098Y-76450493D01*
X35308421Y-76451822D01*
X35279839Y-76449575D01*
X35256309Y-76444398D01*
X35243095Y-76440208D01*
X35160529Y-76393300D01*
X35102354Y-76323183D01*
X35069491Y-76239009D01*
X35062863Y-76149933D01*
X35083392Y-76065109D01*
X35132000Y-75993689D01*
X35193847Y-75951370D01*
X35229350Y-75940271D01*
X35301558Y-75921945D01*
X35405667Y-75897465D01*
X35536872Y-75867908D01*
X35690367Y-75834348D01*
X35861347Y-75797861D01*
X36045008Y-75759523D01*
X36120821Y-75743935D01*
X36304963Y-75706212D01*
X36475677Y-75671184D01*
X36628624Y-75639746D01*
X36759469Y-75612790D01*
X36863876Y-75591211D01*
X36937508Y-75575902D01*
X36976029Y-75567759D01*
X36980769Y-75566662D01*
X36978482Y-75545846D01*
X36968465Y-75491145D01*
X36952313Y-75409965D01*
X36931620Y-75309714D01*
X36907981Y-75197800D01*
X36882992Y-75081630D01*
X36858247Y-74968612D01*
X36835341Y-74866153D01*
X36815870Y-74781661D01*
X36801427Y-74722543D01*
X36793609Y-74696207D01*
X36793227Y-74695634D01*
X36769875Y-74696068D01*
X36710042Y-74703645D01*
X36618823Y-74717537D01*
X36501313Y-74736917D01*
X36362607Y-74760957D01*
X36207800Y-74788831D01*
X36124820Y-74804158D01*
X35469871Y-74926141D01*
X35387888Y-74884218D01*
X35307974Y-74821772D01*
X35253218Y-74735127D01*
X35231968Y-74637706D01*
X35231933Y-74633534D01*
X35250624Y-74548745D01*
X35299492Y-74468820D01*
X35367905Y-74409886D01*
X35385135Y-74401066D01*
X35423421Y-74389391D01*
X35497401Y-74371698D01*
X35601063Y-74349241D01*
X35728396Y-74323274D01*
X35873390Y-74295049D01*
X36030033Y-74265822D01*
X36057321Y-74260856D01*
X36211919Y-74232481D01*
X36352846Y-74205953D01*
X36474749Y-74182332D01*
X36572280Y-74162679D01*
X36640085Y-74148054D01*
X36672815Y-74139516D01*
X36674837Y-74138509D01*
X36675202Y-74114731D01*
X36667876Y-74056017D01*
X36653910Y-73968853D01*
X36634355Y-73859724D01*
X36610263Y-73735115D01*
X36606045Y-73714115D01*
X36572321Y-73544028D01*
X36547737Y-73409800D01*
X36532201Y-73305974D01*
X36525625Y-73227095D01*
X36527917Y-73167705D01*
X36538988Y-73122349D01*
X36558747Y-73085571D01*
X36587103Y-73051913D01*
X36594955Y-73043917D01*
X36641506Y-73001950D01*
X36684211Y-72980439D01*
X36740892Y-72972726D01*
X36787571Y-72971951D01*
X36860897Y-72974741D01*
G36*
X56353215Y-73208622D02*
X56404441Y-73224049D01*
X56449675Y-73256937D01*
X56456257Y-73262992D01*
X56498901Y-73308026D01*
X56526190Y-73346316D01*
X56528966Y-73352695D01*
X56537239Y-73361647D01*
X56558288Y-73369026D01*
X56596243Y-73375086D01*
X56655236Y-73380082D01*
X56739401Y-73384268D01*
X56852868Y-73387898D01*
X56999771Y-73391229D01*
X57184240Y-73394513D01*
X57216105Y-73395028D01*
X57415827Y-73398393D01*
X57577636Y-73402024D01*
X57705948Y-73406803D01*
X57805178Y-73413613D01*
X57879742Y-73423338D01*
X57934055Y-73436860D01*
X57972534Y-73455063D01*
X57999593Y-73478829D01*
X58019649Y-73509041D01*
X58037118Y-73546582D01*
X58042910Y-73560353D01*
X58057239Y-73601709D01*
X58064455Y-73645747D01*
X58063637Y-73698638D01*
X58053866Y-73766552D01*
X58034218Y-73855659D01*
X58003775Y-73972129D01*
X57961615Y-74122131D01*
X57956303Y-74140664D01*
X57798052Y-74625763D01*
X57610521Y-75080375D01*
X57393744Y-75504459D01*
X57147754Y-75897973D01*
X56872585Y-76260874D01*
X56568271Y-76593120D01*
X56234845Y-76894668D01*
X55872341Y-77165476D01*
X55480792Y-77405502D01*
X55282370Y-77509854D01*
X55146817Y-77570132D01*
X55035879Y-77601977D01*
X54943748Y-77606395D01*
X54864620Y-77584393D01*
X54861389Y-77582855D01*
X54805747Y-77535878D01*
X54761204Y-77462234D01*
X54734988Y-77377413D01*
X54732659Y-77306979D01*
X54746724Y-77247169D01*
X54775183Y-77195939D01*
X54823964Y-77147781D01*
X54898996Y-77097184D01*
X55006208Y-77038640D01*
X55039723Y-77021619D01*
X55417225Y-76808794D01*
X55767526Y-76563643D01*
X56090333Y-76286519D01*
X56385357Y-75977776D01*
X56652305Y-75637767D01*
X56890887Y-75266845D01*
X57100811Y-74865363D01*
X57281787Y-74433675D01*
X57362216Y-74203911D01*
X57391631Y-74109732D01*
X57413550Y-74030518D01*
X57425847Y-73974643D01*
X57426458Y-73950531D01*
X57402256Y-73946368D01*
X57341500Y-73942032D01*
X57249967Y-73937758D01*
X57133436Y-73933779D01*
X56997683Y-73930327D01*
X56866621Y-73927908D01*
X56321041Y-73919541D01*
X56218454Y-74064871D01*
X56002915Y-74350678D01*
X55765300Y-74630897D01*
X55517531Y-74891952D01*
X55361322Y-75040712D01*
X55251256Y-75139664D01*
X55165616Y-75212693D01*
X55098644Y-75263561D01*
X55044585Y-75296026D01*
X54997679Y-75313851D01*
X54952171Y-75320794D01*
X54931646Y-75321371D01*
X54821265Y-75305361D01*
X54738991Y-75257888D01*
X54685999Y-75180155D01*
X54663468Y-75073362D01*
X54662716Y-75046866D01*
X54662611Y-74929867D01*
X54837341Y-74771625D01*
X55092450Y-74531983D01*
X55316200Y-74302431D01*
X55515533Y-74075032D01*
X55697395Y-73841848D01*
X55868729Y-73594943D01*
X55874732Y-73585784D01*
X55939164Y-73489431D01*
X56001532Y-73399935D01*
X56055284Y-73326454D01*
X56093872Y-73278146D01*
X56098005Y-73273576D01*
X56140967Y-73232771D01*
X56182596Y-73212258D01*
X56240539Y-73205294D01*
X56278020Y-73204784D01*
X56353215Y-73208622D01*
X56353215Y-73208622D01*
G37*
X56353215Y-73208622D02*
X56404441Y-73224049D01*
X56449675Y-73256937D01*
X56456257Y-73262992D01*
X56498901Y-73308026D01*
X56526190Y-73346316D01*
X56528966Y-73352695D01*
X56537239Y-73361647D01*
X56558288Y-73369026D01*
X56596243Y-73375086D01*
X56655236Y-73380082D01*
X56739401Y-73384268D01*
X56852868Y-73387898D01*
X56999771Y-73391229D01*
X57184240Y-73394513D01*
X57216105Y-73395028D01*
X57415827Y-73398393D01*
X57577636Y-73402024D01*
X57705948Y-73406803D01*
X57805178Y-73413613D01*
X57879742Y-73423338D01*
X57934055Y-73436860D01*
X57972534Y-73455063D01*
X57999593Y-73478829D01*
X58019649Y-73509041D01*
X58037118Y-73546582D01*
X58042910Y-73560353D01*
X58057239Y-73601709D01*
X58064455Y-73645747D01*
X58063637Y-73698638D01*
X58053866Y-73766552D01*
X58034218Y-73855659D01*
X58003775Y-73972129D01*
X57961615Y-74122131D01*
X57956303Y-74140664D01*
X57798052Y-74625763D01*
X57610521Y-75080375D01*
X57393744Y-75504459D01*
X57147754Y-75897973D01*
X56872585Y-76260874D01*
X56568271Y-76593120D01*
X56234845Y-76894668D01*
X55872341Y-77165476D01*
X55480792Y-77405502D01*
X55282370Y-77509854D01*
X55146817Y-77570132D01*
X55035879Y-77601977D01*
X54943748Y-77606395D01*
X54864620Y-77584393D01*
X54861389Y-77582855D01*
X54805747Y-77535878D01*
X54761204Y-77462234D01*
X54734988Y-77377413D01*
X54732659Y-77306979D01*
X54746724Y-77247169D01*
X54775183Y-77195939D01*
X54823964Y-77147781D01*
X54898996Y-77097184D01*
X55006208Y-77038640D01*
X55039723Y-77021619D01*
X55417225Y-76808794D01*
X55767526Y-76563643D01*
X56090333Y-76286519D01*
X56385357Y-75977776D01*
X56652305Y-75637767D01*
X56890887Y-75266845D01*
X57100811Y-74865363D01*
X57281787Y-74433675D01*
X57362216Y-74203911D01*
X57391631Y-74109732D01*
X57413550Y-74030518D01*
X57425847Y-73974643D01*
X57426458Y-73950531D01*
X57402256Y-73946368D01*
X57341500Y-73942032D01*
X57249967Y-73937758D01*
X57133436Y-73933779D01*
X56997683Y-73930327D01*
X56866621Y-73927908D01*
X56321041Y-73919541D01*
X56218454Y-74064871D01*
X56002915Y-74350678D01*
X55765300Y-74630897D01*
X55517531Y-74891952D01*
X55361322Y-75040712D01*
X55251256Y-75139664D01*
X55165616Y-75212693D01*
X55098644Y-75263561D01*
X55044585Y-75296026D01*
X54997679Y-75313851D01*
X54952171Y-75320794D01*
X54931646Y-75321371D01*
X54821265Y-75305361D01*
X54738991Y-75257888D01*
X54685999Y-75180155D01*
X54663468Y-75073362D01*
X54662716Y-75046866D01*
X54662611Y-74929867D01*
X54837341Y-74771625D01*
X55092450Y-74531983D01*
X55316200Y-74302431D01*
X55515533Y-74075032D01*
X55697395Y-73841848D01*
X55868729Y-73594943D01*
X55874732Y-73585784D01*
X55939164Y-73489431D01*
X56001532Y-73399935D01*
X56055284Y-73326454D01*
X56093872Y-73278146D01*
X56098005Y-73273576D01*
X56140967Y-73232771D01*
X56182596Y-73212258D01*
X56240539Y-73205294D01*
X56278020Y-73204784D01*
X56353215Y-73208622D01*
G36*
X74856639Y-73181455D02*
X74938894Y-73235933D01*
X74995497Y-73322242D01*
X75006748Y-73353813D01*
X75015925Y-73392273D01*
X75018119Y-73431276D01*
X75011449Y-73476833D01*
X74994032Y-73534953D01*
X74963988Y-73611645D01*
X74919434Y-73712918D01*
X74858490Y-73844783D01*
X74842020Y-73879936D01*
X74799166Y-73971822D01*
X74763752Y-74048820D01*
X74739200Y-74103411D01*
X74728932Y-74128078D01*
X74728822Y-74128645D01*
X74749401Y-74129936D01*
X74808787Y-74131156D01*
X74903456Y-74132287D01*
X75029880Y-74133309D01*
X75184534Y-74134202D01*
X75363892Y-74134947D01*
X75564429Y-74135525D01*
X75782619Y-74135917D01*
X76014935Y-74136103D01*
X76096165Y-74136117D01*
X76380390Y-74136118D01*
X76625361Y-74136290D01*
X76834157Y-74136882D01*
X77009857Y-74138146D01*
X77155541Y-74140333D01*
X77274286Y-74143692D01*
X77369173Y-74148476D01*
X77443281Y-74154934D01*
X77499688Y-74163318D01*
X77541474Y-74173878D01*
X77571718Y-74186865D01*
X77593498Y-74202530D01*
X77609895Y-74221124D01*
X77623987Y-74242897D01*
X77634877Y-74261433D01*
X77658090Y-74323442D01*
X77670322Y-74401585D01*
X77670989Y-74422331D01*
X77666979Y-74486132D01*
X77649465Y-74533402D01*
X77610221Y-74582354D01*
X77588812Y-74604273D01*
X77506636Y-74686450D01*
X76363882Y-74686450D01*
X76338403Y-74892825D01*
X76274124Y-75288668D01*
X76181725Y-75668712D01*
X76062795Y-76029057D01*
X75918926Y-76365805D01*
X75751710Y-76675058D01*
X75562739Y-76952915D01*
X75433285Y-77110033D01*
X75340883Y-77206707D01*
X75235275Y-77305501D01*
X75123085Y-77401328D01*
X75010939Y-77489102D01*
X74905463Y-77563736D01*
X74813282Y-77620145D01*
X74741022Y-77653242D01*
X74718239Y-77658963D01*
X74650512Y-77659619D01*
X74587702Y-77648489D01*
X74512253Y-77606680D01*
X74447447Y-77536980D01*
X74405688Y-77453797D01*
X74399867Y-77430332D01*
X74399536Y-77339644D01*
X74435672Y-77255372D01*
X74510435Y-77173829D01*
X74581376Y-77120127D01*
X74801219Y-76947734D01*
X75007393Y-76740499D01*
X75194725Y-76505055D01*
X75358044Y-76248032D01*
X75492177Y-75976061D01*
X75512858Y-75925941D01*
X75590423Y-75709654D01*
X75662397Y-75465944D01*
X75725021Y-75209679D01*
X75774536Y-74955730D01*
X75798087Y-74797575D01*
X75812294Y-74686450D01*
X74399100Y-74686450D01*
X74325836Y-74807611D01*
X74261352Y-74908391D01*
X74181434Y-75024183D01*
X74090788Y-75149023D01*
X73994122Y-75276943D01*
X73896141Y-75401978D01*
X73801553Y-75518160D01*
X73715065Y-75619525D01*
X73641383Y-75700105D01*
X73585215Y-75753935D01*
X73569916Y-75765805D01*
X73484156Y-75802020D01*
X73390777Y-75803983D01*
X73300441Y-75775623D01*
X73223808Y-75720873D01*
X73171539Y-75643663D01*
X73161831Y-75615341D01*
X73150558Y-75551764D01*
X73155446Y-75491698D01*
X73179744Y-75427585D01*
X73226699Y-75351869D01*
X73299562Y-75256992D01*
X73333655Y-75215617D01*
X73611263Y-74860722D01*
X73872342Y-74483221D01*
X74110722Y-74093053D01*
X74320236Y-73700158D01*
X74455584Y-73407664D01*
X74508654Y-73299359D01*
X74562314Y-73226833D01*
X74623882Y-73184069D01*
X74700672Y-73165051D01*
X74753656Y-73162529D01*
X74856639Y-73181455D01*
X74856639Y-73181455D01*
G37*
X74856639Y-73181455D02*
X74938894Y-73235933D01*
X74995497Y-73322242D01*
X75006748Y-73353813D01*
X75015925Y-73392273D01*
X75018119Y-73431276D01*
X75011449Y-73476833D01*
X74994032Y-73534953D01*
X74963988Y-73611645D01*
X74919434Y-73712918D01*
X74858490Y-73844783D01*
X74842020Y-73879936D01*
X74799166Y-73971822D01*
X74763752Y-74048820D01*
X74739200Y-74103411D01*
X74728932Y-74128078D01*
X74728822Y-74128645D01*
X74749401Y-74129936D01*
X74808787Y-74131156D01*
X74903456Y-74132287D01*
X75029880Y-74133309D01*
X75184534Y-74134202D01*
X75363892Y-74134947D01*
X75564429Y-74135525D01*
X75782619Y-74135917D01*
X76014935Y-74136103D01*
X76096165Y-74136117D01*
X76380390Y-74136118D01*
X76625361Y-74136290D01*
X76834157Y-74136882D01*
X77009857Y-74138146D01*
X77155541Y-74140333D01*
X77274286Y-74143692D01*
X77369173Y-74148476D01*
X77443281Y-74154934D01*
X77499688Y-74163318D01*
X77541474Y-74173878D01*
X77571718Y-74186865D01*
X77593498Y-74202530D01*
X77609895Y-74221124D01*
X77623987Y-74242897D01*
X77634877Y-74261433D01*
X77658090Y-74323442D01*
X77670322Y-74401585D01*
X77670989Y-74422331D01*
X77666979Y-74486132D01*
X77649465Y-74533402D01*
X77610221Y-74582354D01*
X77588812Y-74604273D01*
X77506636Y-74686450D01*
X76363882Y-74686450D01*
X76338403Y-74892825D01*
X76274124Y-75288668D01*
X76181725Y-75668712D01*
X76062795Y-76029057D01*
X75918926Y-76365805D01*
X75751710Y-76675058D01*
X75562739Y-76952915D01*
X75433285Y-77110033D01*
X75340883Y-77206707D01*
X75235275Y-77305501D01*
X75123085Y-77401328D01*
X75010939Y-77489102D01*
X74905463Y-77563736D01*
X74813282Y-77620145D01*
X74741022Y-77653242D01*
X74718239Y-77658963D01*
X74650512Y-77659619D01*
X74587702Y-77648489D01*
X74512253Y-77606680D01*
X74447447Y-77536980D01*
X74405688Y-77453797D01*
X74399867Y-77430332D01*
X74399536Y-77339644D01*
X74435672Y-77255372D01*
X74510435Y-77173829D01*
X74581376Y-77120127D01*
X74801219Y-76947734D01*
X75007393Y-76740499D01*
X75194725Y-76505055D01*
X75358044Y-76248032D01*
X75492177Y-75976061D01*
X75512858Y-75925941D01*
X75590423Y-75709654D01*
X75662397Y-75465944D01*
X75725021Y-75209679D01*
X75774536Y-74955730D01*
X75798087Y-74797575D01*
X75812294Y-74686450D01*
X74399100Y-74686450D01*
X74325836Y-74807611D01*
X74261352Y-74908391D01*
X74181434Y-75024183D01*
X74090788Y-75149023D01*
X73994122Y-75276943D01*
X73896141Y-75401978D01*
X73801553Y-75518160D01*
X73715065Y-75619525D01*
X73641383Y-75700105D01*
X73585215Y-75753935D01*
X73569916Y-75765805D01*
X73484156Y-75802020D01*
X73390777Y-75803983D01*
X73300441Y-75775623D01*
X73223808Y-75720873D01*
X73171539Y-75643663D01*
X73161831Y-75615341D01*
X73150558Y-75551764D01*
X73155446Y-75491698D01*
X73179744Y-75427585D01*
X73226699Y-75351869D01*
X73299562Y-75256992D01*
X73333655Y-75215617D01*
X73611263Y-74860722D01*
X73872342Y-74483221D01*
X74110722Y-74093053D01*
X74320236Y-73700158D01*
X74455584Y-73407664D01*
X74508654Y-73299359D01*
X74562314Y-73226833D01*
X74623882Y-73184069D01*
X74700672Y-73165051D01*
X74753656Y-73162529D01*
X74856639Y-73181455D01*
G36*
X95037176Y-74226095D02*
X95256178Y-74226453D01*
X95441725Y-74227338D01*
X95596777Y-74228972D01*
X95724294Y-74231576D01*
X95827234Y-74235374D01*
X95908557Y-74240586D01*
X95971222Y-74247433D01*
X96018190Y-74256139D01*
X96052419Y-74266924D01*
X96076869Y-74280011D01*
X96094500Y-74295620D01*
X96108271Y-74313975D01*
X96121141Y-74335295D01*
X96129375Y-74349134D01*
X96137518Y-74363808D01*
X96144507Y-74381230D01*
X96150428Y-74404542D01*
X96155369Y-74436887D01*
X96159414Y-74481408D01*
X96162651Y-74541247D01*
X96165164Y-74619548D01*
X96167041Y-74719452D01*
X96168368Y-74844102D01*
X96169231Y-74996641D01*
X96169716Y-75180211D01*
X96169908Y-75397956D01*
X96169896Y-75653018D01*
X96169826Y-75824159D01*
X96169707Y-76108906D01*
X96169489Y-76354392D01*
X96168937Y-76563692D01*
X96167820Y-76739877D01*
X96165905Y-76886020D01*
X96162959Y-77005195D01*
X96158750Y-77100473D01*
X96153045Y-77174929D01*
X96145613Y-77231634D01*
X96136219Y-77273662D01*
X96124633Y-77304086D01*
X96110620Y-77325978D01*
X96093949Y-77342411D01*
X96074388Y-77356459D01*
X96052811Y-77370461D01*
X96039740Y-77378243D01*
X96023823Y-77384971D01*
X96002073Y-77390721D01*
X95971504Y-77395568D01*
X95929127Y-77399590D01*
X95871956Y-77402861D01*
X95797002Y-77405458D01*
X95701280Y-77407458D01*
X95581801Y-77408936D01*
X95435579Y-77409969D01*
X95259626Y-77410633D01*
X95050954Y-77411004D01*
X94806577Y-77411158D01*
X94523508Y-77411171D01*
X94456155Y-77411162D01*
X94164468Y-77411096D01*
X93912116Y-77410932D01*
X93696101Y-77410589D01*
X93513426Y-77409986D01*
X93361091Y-77409043D01*
X93236100Y-77407678D01*
X93135454Y-77405812D01*
X93056154Y-77403362D01*
X92995203Y-77400249D01*
X92949604Y-77396391D01*
X92916356Y-77391708D01*
X92892464Y-77386118D01*
X92874928Y-77379541D01*
X92860751Y-77371897D01*
X92854507Y-77367984D01*
X92786324Y-77300998D01*
X92749866Y-77212860D01*
X92747139Y-77112565D01*
X92776259Y-77017050D01*
X92788561Y-76990685D01*
X92800669Y-76968006D01*
X92815669Y-76948737D01*
X92836650Y-76932599D01*
X92866701Y-76919315D01*
X92908910Y-76908609D01*
X92966366Y-76900203D01*
X93042155Y-76893820D01*
X93139368Y-76889182D01*
X93261091Y-76886012D01*
X93410414Y-76884034D01*
X93590425Y-76882970D01*
X93804211Y-76882542D01*
X94054861Y-76882474D01*
X94275187Y-76882492D01*
X95620322Y-76882492D01*
X95620322Y-74765825D01*
X92973866Y-74765825D01*
X92898788Y-74697021D01*
X92838968Y-74616910D01*
X92811592Y-74523420D01*
X92816033Y-74427186D01*
X92851670Y-74338843D01*
X92917876Y-74269025D01*
X92924161Y-74264763D01*
X92937311Y-74257323D01*
X92954432Y-74250901D01*
X92978531Y-74245421D01*
X93012616Y-74240810D01*
X93059694Y-74236992D01*
X93122775Y-74233894D01*
X93204864Y-74231442D01*
X93308972Y-74229559D01*
X93438104Y-74228173D01*
X93595270Y-74227208D01*
X93783476Y-74226591D01*
X94005732Y-74226246D01*
X94265044Y-74226100D01*
X94486970Y-74226075D01*
X94781760Y-74226043D01*
X95037176Y-74226095D01*
X95037176Y-74226095D01*
G37*
X95037176Y-74226095D02*
X95256178Y-74226453D01*
X95441725Y-74227338D01*
X95596777Y-74228972D01*
X95724294Y-74231576D01*
X95827234Y-74235374D01*
X95908557Y-74240586D01*
X95971222Y-74247433D01*
X96018190Y-74256139D01*
X96052419Y-74266924D01*
X96076869Y-74280011D01*
X96094500Y-74295620D01*
X96108271Y-74313975D01*
X96121141Y-74335295D01*
X96129375Y-74349134D01*
X96137518Y-74363808D01*
X96144507Y-74381230D01*
X96150428Y-74404542D01*
X96155369Y-74436887D01*
X96159414Y-74481408D01*
X96162651Y-74541247D01*
X96165164Y-74619548D01*
X96167041Y-74719452D01*
X96168368Y-74844102D01*
X96169231Y-74996641D01*
X96169716Y-75180211D01*
X96169908Y-75397956D01*
X96169896Y-75653018D01*
X96169826Y-75824159D01*
X96169707Y-76108906D01*
X96169489Y-76354392D01*
X96168937Y-76563692D01*
X96167820Y-76739877D01*
X96165905Y-76886020D01*
X96162959Y-77005195D01*
X96158750Y-77100473D01*
X96153045Y-77174929D01*
X96145613Y-77231634D01*
X96136219Y-77273662D01*
X96124633Y-77304086D01*
X96110620Y-77325978D01*
X96093949Y-77342411D01*
X96074388Y-77356459D01*
X96052811Y-77370461D01*
X96039740Y-77378243D01*
X96023823Y-77384971D01*
X96002073Y-77390721D01*
X95971504Y-77395568D01*
X95929127Y-77399590D01*
X95871956Y-77402861D01*
X95797002Y-77405458D01*
X95701280Y-77407458D01*
X95581801Y-77408936D01*
X95435579Y-77409969D01*
X95259626Y-77410633D01*
X95050954Y-77411004D01*
X94806577Y-77411158D01*
X94523508Y-77411171D01*
X94456155Y-77411162D01*
X94164468Y-77411096D01*
X93912116Y-77410932D01*
X93696101Y-77410589D01*
X93513426Y-77409986D01*
X93361091Y-77409043D01*
X93236100Y-77407678D01*
X93135454Y-77405812D01*
X93056154Y-77403362D01*
X92995203Y-77400249D01*
X92949604Y-77396391D01*
X92916356Y-77391708D01*
X92892464Y-77386118D01*
X92874928Y-77379541D01*
X92860751Y-77371897D01*
X92854507Y-77367984D01*
X92786324Y-77300998D01*
X92749866Y-77212860D01*
X92747139Y-77112565D01*
X92776259Y-77017050D01*
X92788561Y-76990685D01*
X92800669Y-76968006D01*
X92815669Y-76948737D01*
X92836650Y-76932599D01*
X92866701Y-76919315D01*
X92908910Y-76908609D01*
X92966366Y-76900203D01*
X93042155Y-76893820D01*
X93139368Y-76889182D01*
X93261091Y-76886012D01*
X93410414Y-76884034D01*
X93590425Y-76882970D01*
X93804211Y-76882542D01*
X94054861Y-76882474D01*
X94275187Y-76882492D01*
X95620322Y-76882492D01*
X95620322Y-74765825D01*
X92973866Y-74765825D01*
X92898788Y-74697021D01*
X92838968Y-74616910D01*
X92811592Y-74523420D01*
X92816033Y-74427186D01*
X92851670Y-74338843D01*
X92917876Y-74269025D01*
X92924161Y-74264763D01*
X92937311Y-74257323D01*
X92954432Y-74250901D01*
X92978531Y-74245421D01*
X93012616Y-74240810D01*
X93059694Y-74236992D01*
X93122775Y-74233894D01*
X93204864Y-74231442D01*
X93308972Y-74229559D01*
X93438104Y-74228173D01*
X93595270Y-74227208D01*
X93783476Y-74226591D01*
X94005732Y-74226246D01*
X94265044Y-74226100D01*
X94486970Y-74226075D01*
X94781760Y-74226043D01*
X95037176Y-74226095D01*
G36*
X31190113Y-92121116D02*
X31271587Y-92163098D01*
X31327948Y-92225261D01*
X31352334Y-92288449D01*
X31372780Y-92391312D01*
X31389054Y-92531355D01*
X31400920Y-92706082D01*
X31408147Y-92912999D01*
X31410452Y-93106742D01*
X31411238Y-93376617D01*
X31882197Y-93377539D01*
X32066314Y-93378571D01*
X32213088Y-93381327D01*
X32327499Y-93386491D01*
X32414525Y-93394751D01*
X32479144Y-93406792D01*
X32526335Y-93423299D01*
X32561076Y-93444961D01*
X32588345Y-93472462D01*
X32590537Y-93475164D01*
X32644617Y-93571866D01*
X32657506Y-93671754D01*
X32629536Y-93769759D01*
X32565691Y-93856231D01*
X32494971Y-93926950D01*
X31393118Y-93926950D01*
X31379900Y-94048659D01*
X31328830Y-94442799D01*
X31264688Y-94800266D01*
X31186256Y-95125025D01*
X31092315Y-95421042D01*
X30981644Y-95692284D01*
X30853026Y-95942716D01*
X30742962Y-96120907D01*
X30638460Y-96262272D01*
X30513796Y-96405924D01*
X30379645Y-96540870D01*
X30246683Y-96656118D01*
X30165284Y-96715707D01*
X30049994Y-96779474D01*
X29948390Y-96805943D01*
X29855442Y-96795784D01*
X29790294Y-96765703D01*
X29720218Y-96700911D01*
X29675027Y-96614255D01*
X29661499Y-96520494D01*
X29664774Y-96492396D01*
X29679154Y-96446909D01*
X29708175Y-96399071D01*
X29756608Y-96343515D01*
X29829224Y-96274871D01*
X29930794Y-96187772D01*
X29948703Y-96172882D01*
X30091554Y-96034833D01*
X30230717Y-95863070D01*
X30360368Y-95666159D01*
X30474679Y-95452666D01*
X30540518Y-95302784D01*
X30610175Y-95107138D01*
X30675826Y-94881826D01*
X30734514Y-94639499D01*
X30783280Y-94392811D01*
X30819169Y-94154415D01*
X30828695Y-94069825D01*
X30843108Y-93926950D01*
X29466398Y-93926950D01*
X29470443Y-94510443D01*
X29474488Y-95093935D01*
X29395424Y-95166609D01*
X29337613Y-95212963D01*
X29284518Y-95234308D01*
X29218773Y-95239284D01*
X29143173Y-95231139D01*
X29075025Y-95210750D01*
X29060054Y-95203172D01*
X29024588Y-95179866D01*
X28996501Y-95153254D01*
X28974940Y-95118400D01*
X28959050Y-95070367D01*
X28947975Y-95004218D01*
X28940861Y-94915017D01*
X28936854Y-94797828D01*
X28935099Y-94647714D01*
X28934738Y-94479376D01*
X28934738Y-93926950D01*
X28404520Y-93926950D01*
X28227022Y-93926535D01*
X28086702Y-93924713D01*
X27978412Y-93920623D01*
X27897002Y-93913399D01*
X27837320Y-93902180D01*
X27794217Y-93886103D01*
X27762542Y-93864303D01*
X27737146Y-93835918D01*
X27720798Y-93812360D01*
X27694802Y-93742792D01*
X27687107Y-93654051D01*
X27697691Y-93565126D01*
X27721153Y-93503395D01*
X27742836Y-93470243D01*
X27767605Y-93444091D01*
X27800531Y-93424021D01*
X27846685Y-93409120D01*
X27911138Y-93398471D01*
X27998962Y-93391159D01*
X28115228Y-93386270D01*
X28265005Y-93382887D01*
X28400280Y-93380818D01*
X28934738Y-93373408D01*
X28934738Y-92933643D01*
X28934935Y-92785943D01*
X28935922Y-92674293D01*
X28938291Y-92592409D01*
X28942636Y-92534008D01*
X28949549Y-92492804D01*
X28959624Y-92462516D01*
X28973454Y-92436860D01*
X28982998Y-92422264D01*
X29057635Y-92344836D01*
X29148440Y-92303337D01*
X29247381Y-92299590D01*
X29346427Y-92335417D01*
X29351752Y-92338593D01*
X29396255Y-92368650D01*
X29430129Y-92401439D01*
X29454580Y-92442747D01*
X29470813Y-92498362D01*
X29480034Y-92574074D01*
X29483448Y-92675669D01*
X29482262Y-92808936D01*
X29478645Y-92947795D01*
X29465863Y-93376617D01*
X30867656Y-93376617D01*
X30853384Y-92836421D01*
X30849223Y-92666717D01*
X30846885Y-92534025D01*
X30846528Y-92433056D01*
X30848312Y-92358521D01*
X30852396Y-92305133D01*
X30858939Y-92267601D01*
X30868101Y-92240637D01*
X30871533Y-92233529D01*
X30929091Y-92163755D01*
X31008370Y-92121634D01*
X31098876Y-92107358D01*
X31190113Y-92121116D01*
X31190113Y-92121116D01*
G37*
X31190113Y-92121116D02*
X31271587Y-92163098D01*
X31327948Y-92225261D01*
X31352334Y-92288449D01*
X31372780Y-92391312D01*
X31389054Y-92531355D01*
X31400920Y-92706082D01*
X31408147Y-92912999D01*
X31410452Y-93106742D01*
X31411238Y-93376617D01*
X31882197Y-93377539D01*
X32066314Y-93378571D01*
X32213088Y-93381327D01*
X32327499Y-93386491D01*
X32414525Y-93394751D01*
X32479144Y-93406792D01*
X32526335Y-93423299D01*
X32561076Y-93444961D01*
X32588345Y-93472462D01*
X32590537Y-93475164D01*
X32644617Y-93571866D01*
X32657506Y-93671754D01*
X32629536Y-93769759D01*
X32565691Y-93856231D01*
X32494971Y-93926950D01*
X31393118Y-93926950D01*
X31379900Y-94048659D01*
X31328830Y-94442799D01*
X31264688Y-94800266D01*
X31186256Y-95125025D01*
X31092315Y-95421042D01*
X30981644Y-95692284D01*
X30853026Y-95942716D01*
X30742962Y-96120907D01*
X30638460Y-96262272D01*
X30513796Y-96405924D01*
X30379645Y-96540870D01*
X30246683Y-96656118D01*
X30165284Y-96715707D01*
X30049994Y-96779474D01*
X29948390Y-96805943D01*
X29855442Y-96795784D01*
X29790294Y-96765703D01*
X29720218Y-96700911D01*
X29675027Y-96614255D01*
X29661499Y-96520494D01*
X29664774Y-96492396D01*
X29679154Y-96446909D01*
X29708175Y-96399071D01*
X29756608Y-96343515D01*
X29829224Y-96274871D01*
X29930794Y-96187772D01*
X29948703Y-96172882D01*
X30091554Y-96034833D01*
X30230717Y-95863070D01*
X30360368Y-95666159D01*
X30474679Y-95452666D01*
X30540518Y-95302784D01*
X30610175Y-95107138D01*
X30675826Y-94881826D01*
X30734514Y-94639499D01*
X30783280Y-94392811D01*
X30819169Y-94154415D01*
X30828695Y-94069825D01*
X30843108Y-93926950D01*
X29466398Y-93926950D01*
X29470443Y-94510443D01*
X29474488Y-95093935D01*
X29395424Y-95166609D01*
X29337613Y-95212963D01*
X29284518Y-95234308D01*
X29218773Y-95239284D01*
X29143173Y-95231139D01*
X29075025Y-95210750D01*
X29060054Y-95203172D01*
X29024588Y-95179866D01*
X28996501Y-95153254D01*
X28974940Y-95118400D01*
X28959050Y-95070367D01*
X28947975Y-95004218D01*
X28940861Y-94915017D01*
X28936854Y-94797828D01*
X28935099Y-94647714D01*
X28934738Y-94479376D01*
X28934738Y-93926950D01*
X28404520Y-93926950D01*
X28227022Y-93926535D01*
X28086702Y-93924713D01*
X27978412Y-93920623D01*
X27897002Y-93913399D01*
X27837320Y-93902180D01*
X27794217Y-93886103D01*
X27762542Y-93864303D01*
X27737146Y-93835918D01*
X27720798Y-93812360D01*
X27694802Y-93742792D01*
X27687107Y-93654051D01*
X27697691Y-93565126D01*
X27721153Y-93503395D01*
X27742836Y-93470243D01*
X27767605Y-93444091D01*
X27800531Y-93424021D01*
X27846685Y-93409120D01*
X27911138Y-93398471D01*
X27998962Y-93391159D01*
X28115228Y-93386270D01*
X28265005Y-93382887D01*
X28400280Y-93380818D01*
X28934738Y-93373408D01*
X28934738Y-92933643D01*
X28934935Y-92785943D01*
X28935922Y-92674293D01*
X28938291Y-92592409D01*
X28942636Y-92534008D01*
X28949549Y-92492804D01*
X28959624Y-92462516D01*
X28973454Y-92436860D01*
X28982998Y-92422264D01*
X29057635Y-92344836D01*
X29148440Y-92303337D01*
X29247381Y-92299590D01*
X29346427Y-92335417D01*
X29351752Y-92338593D01*
X29396255Y-92368650D01*
X29430129Y-92401439D01*
X29454580Y-92442747D01*
X29470813Y-92498362D01*
X29480034Y-92574074D01*
X29483448Y-92675669D01*
X29482262Y-92808936D01*
X29478645Y-92947795D01*
X29465863Y-93376617D01*
X30867656Y-93376617D01*
X30853384Y-92836421D01*
X30849223Y-92666717D01*
X30846885Y-92534025D01*
X30846528Y-92433056D01*
X30848312Y-92358521D01*
X30852396Y-92305133D01*
X30858939Y-92267601D01*
X30868101Y-92240637D01*
X30871533Y-92233529D01*
X30929091Y-92163755D01*
X31008370Y-92121634D01*
X31098876Y-92107358D01*
X31190113Y-92121116D01*
G36*
X76517405Y-92239817D02*
X76548675Y-92244836D01*
X76583733Y-92256097D01*
X76626878Y-92276213D01*
X76682406Y-92307798D01*
X76754615Y-92353464D01*
X76847803Y-92415822D01*
X76966268Y-92497486D01*
X77114307Y-92601069D01*
X77131238Y-92612969D01*
X77265035Y-92707740D01*
X77389982Y-92797576D01*
X77501155Y-92878832D01*
X77593626Y-92947861D01*
X77662471Y-93001019D01*
X77702762Y-93034660D01*
X77708030Y-93039841D01*
X77745705Y-93089537D01*
X77762784Y-93144325D01*
X77766238Y-93208362D01*
X77751632Y-93317647D01*
X77706682Y-93398962D01*
X77637146Y-93451782D01*
X77562518Y-93475022D01*
X77476116Y-93480485D01*
X77398625Y-93467731D01*
X77374655Y-93457372D01*
X77347142Y-93439523D01*
X77289704Y-93400488D01*
X77206999Y-93343494D01*
X77103686Y-93271771D01*
X76984425Y-93188545D01*
X76853874Y-93097044D01*
X76806138Y-93063494D01*
X76649144Y-92952439D01*
X76523874Y-92862225D01*
X76426888Y-92790124D01*
X76354745Y-92733408D01*
X76304006Y-92689349D01*
X76271228Y-92655218D01*
X76252972Y-92628288D01*
X76250513Y-92622941D01*
X76224743Y-92536876D01*
X76229212Y-92459873D01*
X76256419Y-92387775D01*
X76317508Y-92302350D01*
X76401421Y-92252120D01*
X76504912Y-92238924D01*
X76517405Y-92239817D01*
X76517405Y-92239817D01*
G37*
X76517405Y-92239817D02*
X76548675Y-92244836D01*
X76583733Y-92256097D01*
X76626878Y-92276213D01*
X76682406Y-92307798D01*
X76754615Y-92353464D01*
X76847803Y-92415822D01*
X76966268Y-92497486D01*
X77114307Y-92601069D01*
X77131238Y-92612969D01*
X77265035Y-92707740D01*
X77389982Y-92797576D01*
X77501155Y-92878832D01*
X77593626Y-92947861D01*
X77662471Y-93001019D01*
X77702762Y-93034660D01*
X77708030Y-93039841D01*
X77745705Y-93089537D01*
X77762784Y-93144325D01*
X77766238Y-93208362D01*
X77751632Y-93317647D01*
X77706682Y-93398962D01*
X77637146Y-93451782D01*
X77562518Y-93475022D01*
X77476116Y-93480485D01*
X77398625Y-93467731D01*
X77374655Y-93457372D01*
X77347142Y-93439523D01*
X77289704Y-93400488D01*
X77206999Y-93343494D01*
X77103686Y-93271771D01*
X76984425Y-93188545D01*
X76853874Y-93097044D01*
X76806138Y-93063494D01*
X76649144Y-92952439D01*
X76523874Y-92862225D01*
X76426888Y-92790124D01*
X76354745Y-92733408D01*
X76304006Y-92689349D01*
X76271228Y-92655218D01*
X76252972Y-92628288D01*
X76250513Y-92622941D01*
X76224743Y-92536876D01*
X76229212Y-92459873D01*
X76256419Y-92387775D01*
X76317508Y-92302350D01*
X76401421Y-92252120D01*
X76504912Y-92238924D01*
X76517405Y-92239817D01*
G36*
X75919734Y-93511919D02*
X75984335Y-93538178D01*
X75990675Y-93542816D01*
X76021154Y-93564751D01*
X76081644Y-93606837D01*
X76167044Y-93665579D01*
X76272254Y-93737479D01*
X76392170Y-93819042D01*
X76521691Y-93906772D01*
X76528028Y-93911054D01*
X76657373Y-93999075D01*
X76776716Y-94081440D01*
X76881070Y-94154618D01*
X76965450Y-94215075D01*
X77024869Y-94259279D01*
X77054341Y-94283698D01*
X77054989Y-94284391D01*
X77090959Y-94351471D01*
X77105144Y-94438478D01*
X77096826Y-94528623D01*
X77068453Y-94600266D01*
X77005717Y-94666166D01*
X76920254Y-94713201D01*
X76830790Y-94731086D01*
X76830293Y-94731085D01*
X76785784Y-94720456D01*
X76722455Y-94693307D01*
X76676155Y-94668300D01*
X76630170Y-94639531D01*
X76555173Y-94590742D01*
X76457064Y-94525855D01*
X76341744Y-94448794D01*
X76215111Y-94363480D01*
X76094071Y-94281333D01*
X75945705Y-94179627D01*
X75828893Y-94097841D01*
X75739669Y-94032867D01*
X75674065Y-93981596D01*
X75628112Y-93940921D01*
X75597845Y-93907733D01*
X75579294Y-93878925D01*
X75578597Y-93877530D01*
X75550657Y-93779134D01*
X75564652Y-93683810D01*
X75620197Y-93593502D01*
X75638541Y-93573914D01*
X75685741Y-93531949D01*
X75730102Y-93511006D01*
X75790222Y-93504055D01*
X75824517Y-93503617D01*
X75919734Y-93511919D01*
X75919734Y-93511919D01*
G37*
X75919734Y-93511919D02*
X75984335Y-93538178D01*
X75990675Y-93542816D01*
X76021154Y-93564751D01*
X76081644Y-93606837D01*
X76167044Y-93665579D01*
X76272254Y-93737479D01*
X76392170Y-93819042D01*
X76521691Y-93906772D01*
X76528028Y-93911054D01*
X76657373Y-93999075D01*
X76776716Y-94081440D01*
X76881070Y-94154618D01*
X76965450Y-94215075D01*
X77024869Y-94259279D01*
X77054341Y-94283698D01*
X77054989Y-94284391D01*
X77090959Y-94351471D01*
X77105144Y-94438478D01*
X77096826Y-94528623D01*
X77068453Y-94600266D01*
X77005717Y-94666166D01*
X76920254Y-94713201D01*
X76830790Y-94731086D01*
X76830293Y-94731085D01*
X76785784Y-94720456D01*
X76722455Y-94693307D01*
X76676155Y-94668300D01*
X76630170Y-94639531D01*
X76555173Y-94590742D01*
X76457064Y-94525855D01*
X76341744Y-94448794D01*
X76215111Y-94363480D01*
X76094071Y-94281333D01*
X75945705Y-94179627D01*
X75828893Y-94097841D01*
X75739669Y-94032867D01*
X75674065Y-93981596D01*
X75628112Y-93940921D01*
X75597845Y-93907733D01*
X75579294Y-93878925D01*
X75578597Y-93877530D01*
X75550657Y-93779134D01*
X75564652Y-93683810D01*
X75620197Y-93593502D01*
X75638541Y-93573914D01*
X75685741Y-93531949D01*
X75730102Y-93511006D01*
X75790222Y-93504055D01*
X75824517Y-93503617D01*
X75919734Y-93511919D01*
G36*
X79896968Y-93458882D02*
X79979256Y-93511514D01*
X80035506Y-93592580D01*
X80060360Y-93696564D01*
X80061067Y-93715130D01*
X80058468Y-93762361D01*
X80046838Y-93809014D01*
X80022212Y-93864241D01*
X79980622Y-93937196D01*
X79928970Y-94019987D01*
X79639717Y-94441443D01*
X79329144Y-94828716D01*
X78995171Y-95183511D01*
X78635717Y-95507534D01*
X78248703Y-95802492D01*
X77832047Y-96070090D01*
X77383669Y-96312035D01*
X76901489Y-96530032D01*
X76834905Y-96557231D01*
X76674181Y-96617603D01*
X76544488Y-96655733D01*
X76441312Y-96672376D01*
X76360140Y-96668290D01*
X76300712Y-96646699D01*
X76232488Y-96584790D01*
X76190885Y-96494033D01*
X76178738Y-96395542D01*
X76192227Y-96305007D01*
X76235422Y-96232978D01*
X76312417Y-96175038D01*
X76427306Y-96126770D01*
X76428043Y-96126526D01*
X76506137Y-96098678D01*
X76608691Y-96059354D01*
X76721421Y-96014142D01*
X76813738Y-95975613D01*
X77268742Y-95759429D01*
X77697601Y-95510138D01*
X78099652Y-95228306D01*
X78474228Y-94914499D01*
X78820666Y-94569282D01*
X79138300Y-94193219D01*
X79426465Y-93786876D01*
X79470890Y-93717346D01*
X79548717Y-93601806D01*
X79616521Y-93521032D01*
X79679723Y-93470373D01*
X79743743Y-93445179D01*
X79793997Y-93440196D01*
X79896968Y-93458882D01*
X79896968Y-93458882D01*
G37*
X79896968Y-93458882D02*
X79979256Y-93511514D01*
X80035506Y-93592580D01*
X80060360Y-93696564D01*
X80061067Y-93715130D01*
X80058468Y-93762361D01*
X80046838Y-93809014D01*
X80022212Y-93864241D01*
X79980622Y-93937196D01*
X79928970Y-94019987D01*
X79639717Y-94441443D01*
X79329144Y-94828716D01*
X78995171Y-95183511D01*
X78635717Y-95507534D01*
X78248703Y-95802492D01*
X77832047Y-96070090D01*
X77383669Y-96312035D01*
X76901489Y-96530032D01*
X76834905Y-96557231D01*
X76674181Y-96617603D01*
X76544488Y-96655733D01*
X76441312Y-96672376D01*
X76360140Y-96668290D01*
X76300712Y-96646699D01*
X76232488Y-96584790D01*
X76190885Y-96494033D01*
X76178738Y-96395542D01*
X76192227Y-96305007D01*
X76235422Y-96232978D01*
X76312417Y-96175038D01*
X76427306Y-96126770D01*
X76428043Y-96126526D01*
X76506137Y-96098678D01*
X76608691Y-96059354D01*
X76721421Y-96014142D01*
X76813738Y-95975613D01*
X77268742Y-95759429D01*
X77697601Y-95510138D01*
X78099652Y-95228306D01*
X78474228Y-94914499D01*
X78820666Y-94569282D01*
X79138300Y-94193219D01*
X79426465Y-93786876D01*
X79470890Y-93717346D01*
X79548717Y-93601806D01*
X79616521Y-93521032D01*
X79679723Y-93470373D01*
X79743743Y-93445179D01*
X79793997Y-93440196D01*
X79896968Y-93458882D01*
G36*
X42899945Y-21517010D02*
X43099854Y-21517450D01*
X43266893Y-21518549D01*
X43404217Y-21520583D01*
X43514979Y-21523832D01*
X43602334Y-21528573D01*
X43669436Y-21535084D01*
X43719440Y-21543644D01*
X43755500Y-21554531D01*
X43780770Y-21568022D01*
X43798405Y-21584396D01*
X43811558Y-21603931D01*
X43823385Y-21626906D01*
X43832067Y-21644226D01*
X43852566Y-21705801D01*
X43863189Y-21780590D01*
X43863605Y-21796399D01*
X43852177Y-21859822D01*
X43819739Y-21953499D01*
X43768925Y-22072567D01*
X43702366Y-22212162D01*
X43622694Y-22367423D01*
X43532541Y-22533484D01*
X43434539Y-22705483D01*
X43331321Y-22878558D01*
X43225518Y-23047844D01*
X43119762Y-23208479D01*
X43028829Y-23338816D01*
X42913431Y-23499056D01*
X43108106Y-23637538D01*
X43356792Y-23821717D01*
X43615717Y-24026744D01*
X43874094Y-24243462D01*
X44121136Y-24462716D01*
X44346055Y-24675350D01*
X44432228Y-24761395D01*
X44504128Y-24836405D01*
X44550946Y-24891560D01*
X44578594Y-24935839D01*
X44592984Y-24978222D01*
X44598627Y-25014113D01*
X44593659Y-25122581D01*
X44553958Y-25208656D01*
X44482450Y-25269282D01*
X44382061Y-25301402D01*
X44319321Y-25305825D01*
X44284088Y-25304881D01*
X44253298Y-25299409D01*
X44221346Y-25285446D01*
X44182629Y-25259031D01*
X44131540Y-25216204D01*
X44062476Y-25153002D01*
X43969831Y-25065465D01*
X43942562Y-25039536D01*
X43578584Y-24709809D01*
X43178858Y-24378599D01*
X42845842Y-24122254D01*
X42566919Y-23914189D01*
X42327648Y-24152353D01*
X42027937Y-24434384D01*
X41697417Y-24715822D01*
X41346828Y-24987963D01*
X40986911Y-25242103D01*
X40963863Y-25257516D01*
X40841466Y-25338473D01*
X40747626Y-25397927D01*
X40675954Y-25438270D01*
X40620063Y-25461895D01*
X40573564Y-25471194D01*
X40530069Y-25468560D01*
X40483191Y-25456385D01*
X40456596Y-25447505D01*
X40380593Y-25401508D01*
X40324552Y-25329452D01*
X40292114Y-25242649D01*
X40286919Y-25152412D01*
X40312611Y-25070053D01*
X40327800Y-25047401D01*
X40360229Y-25016561D01*
X40420324Y-24968628D01*
X40500235Y-24909548D01*
X40592111Y-24845265D01*
X40617148Y-24828326D01*
X41069871Y-24505434D01*
X41489331Y-24166385D01*
X41883496Y-23804618D01*
X41994713Y-23694011D01*
X42165198Y-23517505D01*
X42310912Y-23357168D01*
X42440279Y-23202899D01*
X42561726Y-23044598D01*
X42683677Y-22872165D01*
X42698982Y-22849695D01*
X42756054Y-22763289D01*
X42820516Y-22661907D01*
X42888636Y-22551857D01*
X42956681Y-22439442D01*
X43020918Y-22330969D01*
X43077617Y-22232744D01*
X43123044Y-22151071D01*
X43153469Y-22092257D01*
X43165157Y-22062607D01*
X43165183Y-22062034D01*
X43144686Y-22058929D01*
X43085860Y-22056025D01*
X42992708Y-22053382D01*
X42869233Y-22051059D01*
X42719439Y-22049117D01*
X42547330Y-22047616D01*
X42356909Y-22046615D01*
X42152179Y-22046174D01*
X42104747Y-22046158D01*
X41044297Y-22046158D01*
X40973999Y-21975861D01*
X40909045Y-21888089D01*
X40885916Y-21795151D01*
X40904191Y-21694590D01*
X40919617Y-21658526D01*
X40957496Y-21597781D01*
X41000924Y-21552248D01*
X41018088Y-21541414D01*
X41044119Y-21535922D01*
X41097602Y-21531202D01*
X41180405Y-21527221D01*
X41294393Y-21523945D01*
X41441431Y-21521343D01*
X41623387Y-21519379D01*
X41842124Y-21518022D01*
X42099511Y-21517237D01*
X42388899Y-21516992D01*
X42664012Y-21516950D01*
X42899945Y-21517010D01*
X42899945Y-21517010D01*
G37*
X42899945Y-21517010D02*
X43099854Y-21517450D01*
X43266893Y-21518549D01*
X43404217Y-21520583D01*
X43514979Y-21523832D01*
X43602334Y-21528573D01*
X43669436Y-21535084D01*
X43719440Y-21543644D01*
X43755500Y-21554531D01*
X43780770Y-21568022D01*
X43798405Y-21584396D01*
X43811558Y-21603931D01*
X43823385Y-21626906D01*
X43832067Y-21644226D01*
X43852566Y-21705801D01*
X43863189Y-21780590D01*
X43863605Y-21796399D01*
X43852177Y-21859822D01*
X43819739Y-21953499D01*
X43768925Y-22072567D01*
X43702366Y-22212162D01*
X43622694Y-22367423D01*
X43532541Y-22533484D01*
X43434539Y-22705483D01*
X43331321Y-22878558D01*
X43225518Y-23047844D01*
X43119762Y-23208479D01*
X43028829Y-23338816D01*
X42913431Y-23499056D01*
X43108106Y-23637538D01*
X43356792Y-23821717D01*
X43615717Y-24026744D01*
X43874094Y-24243462D01*
X44121136Y-24462716D01*
X44346055Y-24675350D01*
X44432228Y-24761395D01*
X44504128Y-24836405D01*
X44550946Y-24891560D01*
X44578594Y-24935839D01*
X44592984Y-24978222D01*
X44598627Y-25014113D01*
X44593659Y-25122581D01*
X44553958Y-25208656D01*
X44482450Y-25269282D01*
X44382061Y-25301402D01*
X44319321Y-25305825D01*
X44284088Y-25304881D01*
X44253298Y-25299409D01*
X44221346Y-25285446D01*
X44182629Y-25259031D01*
X44131540Y-25216204D01*
X44062476Y-25153002D01*
X43969831Y-25065465D01*
X43942562Y-25039536D01*
X43578584Y-24709809D01*
X43178858Y-24378599D01*
X42845842Y-24122254D01*
X42566919Y-23914189D01*
X42327648Y-24152353D01*
X42027937Y-24434384D01*
X41697417Y-24715822D01*
X41346828Y-24987963D01*
X40986911Y-25242103D01*
X40963863Y-25257516D01*
X40841466Y-25338473D01*
X40747626Y-25397927D01*
X40675954Y-25438270D01*
X40620063Y-25461895D01*
X40573564Y-25471194D01*
X40530069Y-25468560D01*
X40483191Y-25456385D01*
X40456596Y-25447505D01*
X40380593Y-25401508D01*
X40324552Y-25329452D01*
X40292114Y-25242649D01*
X40286919Y-25152412D01*
X40312611Y-25070053D01*
X40327800Y-25047401D01*
X40360229Y-25016561D01*
X40420324Y-24968628D01*
X40500235Y-24909548D01*
X40592111Y-24845265D01*
X40617148Y-24828326D01*
X41069871Y-24505434D01*
X41489331Y-24166385D01*
X41883496Y-23804618D01*
X41994713Y-23694011D01*
X42165198Y-23517505D01*
X42310912Y-23357168D01*
X42440279Y-23202899D01*
X42561726Y-23044598D01*
X42683677Y-22872165D01*
X42698982Y-22849695D01*
X42756054Y-22763289D01*
X42820516Y-22661907D01*
X42888636Y-22551857D01*
X42956681Y-22439442D01*
X43020918Y-22330969D01*
X43077617Y-22232744D01*
X43123044Y-22151071D01*
X43153469Y-22092257D01*
X43165157Y-22062607D01*
X43165183Y-22062034D01*
X43144686Y-22058929D01*
X43085860Y-22056025D01*
X42992708Y-22053382D01*
X42869233Y-22051059D01*
X42719439Y-22049117D01*
X42547330Y-22047616D01*
X42356909Y-22046615D01*
X42152179Y-22046174D01*
X42104747Y-22046158D01*
X41044297Y-22046158D01*
X40973999Y-21975861D01*
X40909045Y-21888089D01*
X40885916Y-21795151D01*
X40904191Y-21694590D01*
X40919617Y-21658526D01*
X40957496Y-21597781D01*
X41000924Y-21552248D01*
X41018088Y-21541414D01*
X41044119Y-21535922D01*
X41097602Y-21531202D01*
X41180405Y-21527221D01*
X41294393Y-21523945D01*
X41441431Y-21521343D01*
X41623387Y-21519379D01*
X41842124Y-21518022D01*
X42099511Y-21517237D01*
X42388899Y-21516992D01*
X42664012Y-21516950D01*
X42899945Y-21517010D01*
G04 #@! TO.C,R1*
D10*
X17449815Y-31341920D02*
X17821244Y-31341920D01*
X17621244Y-31570492D01*
X17706958Y-31570492D01*
X17764101Y-31599063D01*
X17792672Y-31627634D01*
X17821244Y-31684777D01*
X17821244Y-31827634D01*
X17792672Y-31884777D01*
X17764101Y-31913349D01*
X17706958Y-31941920D01*
X17535530Y-31941920D01*
X17478387Y-31913349D01*
X17449815Y-31884777D01*
X18078387Y-31884777D02*
X18106958Y-31913349D01*
X18078387Y-31941920D01*
X18049815Y-31913349D01*
X18078387Y-31884777D01*
X18078387Y-31941920D01*
X18306958Y-31341920D02*
X18678387Y-31341920D01*
X18478387Y-31570492D01*
X18564101Y-31570492D01*
X18621244Y-31599063D01*
X18649815Y-31627634D01*
X18678387Y-31684777D01*
X18678387Y-31827634D01*
X18649815Y-31884777D01*
X18621244Y-31913349D01*
X18564101Y-31941920D01*
X18392672Y-31941920D01*
X18335530Y-31913349D01*
X18306958Y-31884777D01*
X18849815Y-31341920D02*
X19049815Y-31941920D01*
X19249815Y-31341920D01*
G04 #@! TO.C,J8*
X9172563Y-11206107D02*
X9201134Y-11120393D01*
X9201134Y-10977536D01*
X9172563Y-10920393D01*
X9143991Y-10891821D01*
X9086848Y-10863250D01*
X9029706Y-10863250D01*
X8972563Y-10891821D01*
X8943991Y-10920393D01*
X8915420Y-10977536D01*
X8886848Y-11091821D01*
X8858277Y-11148964D01*
X8829706Y-11177536D01*
X8772563Y-11206107D01*
X8715420Y-11206107D01*
X8658277Y-11177536D01*
X8629706Y-11148964D01*
X8601134Y-11091821D01*
X8601134Y-10948964D01*
X8629706Y-10863250D01*
X9201134Y-10606107D02*
X8601134Y-10606107D01*
X8601134Y-10463250D01*
X8629706Y-10377536D01*
X8686848Y-10320393D01*
X8743991Y-10291821D01*
X8858277Y-10263250D01*
X8943991Y-10263250D01*
X9058277Y-10291821D01*
X9115420Y-10320393D01*
X9172563Y-10377536D01*
X9201134Y-10463250D01*
X9201134Y-10606107D01*
X9029706Y-10034678D02*
X9029706Y-9748964D01*
X9201134Y-10091821D02*
X8601134Y-9891821D01*
X9201134Y-9691821D01*
X9172563Y-13731821D02*
X9201134Y-13646107D01*
X9201134Y-13503250D01*
X9172563Y-13446107D01*
X9143991Y-13417536D01*
X9086848Y-13388964D01*
X9029706Y-13388964D01*
X8972563Y-13417536D01*
X8943991Y-13446107D01*
X8915420Y-13503250D01*
X8886848Y-13617536D01*
X8858277Y-13674678D01*
X8829706Y-13703250D01*
X8772563Y-13731821D01*
X8715420Y-13731821D01*
X8658277Y-13703250D01*
X8629706Y-13674678D01*
X8601134Y-13617536D01*
X8601134Y-13474678D01*
X8629706Y-13388964D01*
X9143991Y-12788964D02*
X9172563Y-12817536D01*
X9201134Y-12903250D01*
X9201134Y-12960393D01*
X9172563Y-13046107D01*
X9115420Y-13103250D01*
X9058277Y-13131821D01*
X8943991Y-13160393D01*
X8858277Y-13160393D01*
X8743991Y-13131821D01*
X8686848Y-13103250D01*
X8629706Y-13046107D01*
X8601134Y-12960393D01*
X8601134Y-12903250D01*
X8629706Y-12817536D01*
X8658277Y-12788964D01*
X9201134Y-12246107D02*
X9201134Y-12531821D01*
X8601134Y-12531821D01*
X8601134Y-16443250D02*
X8601134Y-16071821D01*
X8829706Y-16271821D01*
X8829706Y-16186107D01*
X8858277Y-16128964D01*
X8886848Y-16100393D01*
X8943991Y-16071821D01*
X9086848Y-16071821D01*
X9143991Y-16100393D01*
X9172563Y-16128964D01*
X9201134Y-16186107D01*
X9201134Y-16357536D01*
X9172563Y-16414678D01*
X9143991Y-16443250D01*
X9143991Y-15814678D02*
X9172563Y-15786107D01*
X9201134Y-15814678D01*
X9172563Y-15843250D01*
X9143991Y-15814678D01*
X9201134Y-15814678D01*
X8601134Y-15586107D02*
X8601134Y-15214678D01*
X8829706Y-15414678D01*
X8829706Y-15328964D01*
X8858277Y-15271821D01*
X8886848Y-15243250D01*
X8943991Y-15214678D01*
X9086848Y-15214678D01*
X9143991Y-15243250D01*
X9172563Y-15271821D01*
X9201134Y-15328964D01*
X9201134Y-15500393D01*
X9172563Y-15557536D01*
X9143991Y-15586107D01*
X8601134Y-15043250D02*
X9201134Y-14843250D01*
X8601134Y-14643250D01*
X8629706Y-18554678D02*
X8601134Y-18611821D01*
X8601134Y-18697536D01*
X8629706Y-18783250D01*
X8686848Y-18840393D01*
X8743991Y-18868964D01*
X8858277Y-18897536D01*
X8943991Y-18897536D01*
X9058277Y-18868964D01*
X9115420Y-18840393D01*
X9172563Y-18783250D01*
X9201134Y-18697536D01*
X9201134Y-18640393D01*
X9172563Y-18554678D01*
X9143991Y-18526107D01*
X8943991Y-18526107D01*
X8943991Y-18640393D01*
X9201134Y-18268964D02*
X8601134Y-18268964D01*
X9201134Y-17926107D01*
X8601134Y-17926107D01*
X9201134Y-17640393D02*
X8601134Y-17640393D01*
X8601134Y-17497536D01*
X8629706Y-17411821D01*
X8686848Y-17354678D01*
X8743991Y-17326107D01*
X8858277Y-17297536D01*
X8943991Y-17297536D01*
X9058277Y-17326107D01*
X9115420Y-17354678D01*
X9172563Y-17411821D01*
X9201134Y-17497536D01*
X9201134Y-17640393D01*
G04 #@! TO.C,J7*
X9172563Y-30256155D02*
X9201134Y-30170441D01*
X9201134Y-30027584D01*
X9172563Y-29970441D01*
X9143991Y-29941869D01*
X9086848Y-29913298D01*
X9029706Y-29913298D01*
X8972563Y-29941869D01*
X8943991Y-29970441D01*
X8915420Y-30027584D01*
X8886848Y-30141869D01*
X8858277Y-30199012D01*
X8829706Y-30227584D01*
X8772563Y-30256155D01*
X8715420Y-30256155D01*
X8658277Y-30227584D01*
X8629706Y-30199012D01*
X8601134Y-30141869D01*
X8601134Y-29999012D01*
X8629706Y-29913298D01*
X9201134Y-29656155D02*
X8601134Y-29656155D01*
X8601134Y-29513298D01*
X8629706Y-29427584D01*
X8686848Y-29370441D01*
X8743991Y-29341869D01*
X8858277Y-29313298D01*
X8943991Y-29313298D01*
X9058277Y-29341869D01*
X9115420Y-29370441D01*
X9172563Y-29427584D01*
X9201134Y-29513298D01*
X9201134Y-29656155D01*
X9029706Y-29084726D02*
X9029706Y-28799012D01*
X9201134Y-29141869D02*
X8601134Y-28941869D01*
X9201134Y-28741869D01*
X9172563Y-32781869D02*
X9201134Y-32696155D01*
X9201134Y-32553298D01*
X9172563Y-32496155D01*
X9143991Y-32467584D01*
X9086848Y-32439012D01*
X9029706Y-32439012D01*
X8972563Y-32467584D01*
X8943991Y-32496155D01*
X8915420Y-32553298D01*
X8886848Y-32667584D01*
X8858277Y-32724726D01*
X8829706Y-32753298D01*
X8772563Y-32781869D01*
X8715420Y-32781869D01*
X8658277Y-32753298D01*
X8629706Y-32724726D01*
X8601134Y-32667584D01*
X8601134Y-32524726D01*
X8629706Y-32439012D01*
X9143991Y-31839012D02*
X9172563Y-31867584D01*
X9201134Y-31953298D01*
X9201134Y-32010441D01*
X9172563Y-32096155D01*
X9115420Y-32153298D01*
X9058277Y-32181869D01*
X8943991Y-32210441D01*
X8858277Y-32210441D01*
X8743991Y-32181869D01*
X8686848Y-32153298D01*
X8629706Y-32096155D01*
X8601134Y-32010441D01*
X8601134Y-31953298D01*
X8629706Y-31867584D01*
X8658277Y-31839012D01*
X9201134Y-31296155D02*
X9201134Y-31581869D01*
X8601134Y-31581869D01*
X8601134Y-35493298D02*
X8601134Y-35121869D01*
X8829706Y-35321869D01*
X8829706Y-35236155D01*
X8858277Y-35179012D01*
X8886848Y-35150441D01*
X8943991Y-35121869D01*
X9086848Y-35121869D01*
X9143991Y-35150441D01*
X9172563Y-35179012D01*
X9201134Y-35236155D01*
X9201134Y-35407584D01*
X9172563Y-35464726D01*
X9143991Y-35493298D01*
X9143991Y-34864726D02*
X9172563Y-34836155D01*
X9201134Y-34864726D01*
X9172563Y-34893298D01*
X9143991Y-34864726D01*
X9201134Y-34864726D01*
X8601134Y-34636155D02*
X8601134Y-34264726D01*
X8829706Y-34464726D01*
X8829706Y-34379012D01*
X8858277Y-34321869D01*
X8886848Y-34293298D01*
X8943991Y-34264726D01*
X9086848Y-34264726D01*
X9143991Y-34293298D01*
X9172563Y-34321869D01*
X9201134Y-34379012D01*
X9201134Y-34550441D01*
X9172563Y-34607584D01*
X9143991Y-34636155D01*
X8601134Y-34093298D02*
X9201134Y-33893298D01*
X8601134Y-33693298D01*
X8629706Y-37604726D02*
X8601134Y-37661869D01*
X8601134Y-37747584D01*
X8629706Y-37833298D01*
X8686848Y-37890441D01*
X8743991Y-37919012D01*
X8858277Y-37947584D01*
X8943991Y-37947584D01*
X9058277Y-37919012D01*
X9115420Y-37890441D01*
X9172563Y-37833298D01*
X9201134Y-37747584D01*
X9201134Y-37690441D01*
X9172563Y-37604726D01*
X9143991Y-37576155D01*
X8943991Y-37576155D01*
X8943991Y-37690441D01*
X9201134Y-37319012D02*
X8601134Y-37319012D01*
X9201134Y-36976155D01*
X8601134Y-36976155D01*
X9201134Y-36690441D02*
X8601134Y-36690441D01*
X8601134Y-36547584D01*
X8629706Y-36461869D01*
X8686848Y-36404726D01*
X8743991Y-36376155D01*
X8858277Y-36347584D01*
X8943991Y-36347584D01*
X9058277Y-36376155D01*
X9115420Y-36404726D01*
X9172563Y-36461869D01*
X9201134Y-36547584D01*
X9201134Y-36690441D01*
G04 #@! TO.C,J9*
X16972088Y-8577249D02*
X17057802Y-8605820D01*
X17200660Y-8605820D01*
X17257802Y-8577249D01*
X17286374Y-8548677D01*
X17314945Y-8491534D01*
X17314945Y-8434392D01*
X17286374Y-8377249D01*
X17257802Y-8348677D01*
X17200660Y-8320106D01*
X17086374Y-8291534D01*
X17029231Y-8262963D01*
X17000660Y-8234392D01*
X16972088Y-8177249D01*
X16972088Y-8120106D01*
X17000660Y-8062963D01*
X17029231Y-8034392D01*
X17086374Y-8005820D01*
X17229231Y-8005820D01*
X17314945Y-8034392D01*
X17572088Y-8605820D02*
X17572088Y-8005820D01*
X17714945Y-8005820D01*
X17800660Y-8034392D01*
X17857802Y-8091534D01*
X17886374Y-8148677D01*
X17914945Y-8262963D01*
X17914945Y-8348677D01*
X17886374Y-8462963D01*
X17857802Y-8520106D01*
X17800660Y-8577249D01*
X17714945Y-8605820D01*
X17572088Y-8605820D01*
X18143517Y-8434392D02*
X18429231Y-8434392D01*
X18086374Y-8605820D02*
X18286374Y-8005820D01*
X18486374Y-8605820D01*
X14446374Y-8577249D02*
X14532088Y-8605820D01*
X14674945Y-8605820D01*
X14732088Y-8577249D01*
X14760660Y-8548677D01*
X14789231Y-8491534D01*
X14789231Y-8434392D01*
X14760660Y-8377249D01*
X14732088Y-8348677D01*
X14674945Y-8320106D01*
X14560660Y-8291534D01*
X14503517Y-8262963D01*
X14474945Y-8234392D01*
X14446374Y-8177249D01*
X14446374Y-8120106D01*
X14474945Y-8062963D01*
X14503517Y-8034392D01*
X14560660Y-8005820D01*
X14703517Y-8005820D01*
X14789231Y-8034392D01*
X15389231Y-8548677D02*
X15360660Y-8577249D01*
X15274945Y-8605820D01*
X15217802Y-8605820D01*
X15132088Y-8577249D01*
X15074945Y-8520106D01*
X15046374Y-8462963D01*
X15017802Y-8348677D01*
X15017802Y-8262963D01*
X15046374Y-8148677D01*
X15074945Y-8091534D01*
X15132088Y-8034392D01*
X15217802Y-8005820D01*
X15274945Y-8005820D01*
X15360660Y-8034392D01*
X15389231Y-8062963D01*
X15932088Y-8605820D02*
X15646374Y-8605820D01*
X15646374Y-8005820D01*
X11734945Y-8005820D02*
X12106374Y-8005820D01*
X11906374Y-8234392D01*
X11992088Y-8234392D01*
X12049231Y-8262963D01*
X12077802Y-8291534D01*
X12106374Y-8348677D01*
X12106374Y-8491534D01*
X12077802Y-8548677D01*
X12049231Y-8577249D01*
X11992088Y-8605820D01*
X11820660Y-8605820D01*
X11763517Y-8577249D01*
X11734945Y-8548677D01*
X12363517Y-8548677D02*
X12392088Y-8577249D01*
X12363517Y-8605820D01*
X12334945Y-8577249D01*
X12363517Y-8548677D01*
X12363517Y-8605820D01*
X12592088Y-8005820D02*
X12963517Y-8005820D01*
X12763517Y-8234392D01*
X12849231Y-8234392D01*
X12906374Y-8262963D01*
X12934945Y-8291534D01*
X12963517Y-8348677D01*
X12963517Y-8491534D01*
X12934945Y-8548677D01*
X12906374Y-8577249D01*
X12849231Y-8605820D01*
X12677802Y-8605820D01*
X12620660Y-8577249D01*
X12592088Y-8548677D01*
X13134945Y-8005820D02*
X13334945Y-8605820D01*
X13534945Y-8005820D01*
X9623517Y-8034392D02*
X9566374Y-8005820D01*
X9480660Y-8005820D01*
X9394945Y-8034392D01*
X9337802Y-8091534D01*
X9309231Y-8148677D01*
X9280660Y-8262963D01*
X9280660Y-8348677D01*
X9309231Y-8462963D01*
X9337802Y-8520106D01*
X9394945Y-8577249D01*
X9480660Y-8605820D01*
X9537802Y-8605820D01*
X9623517Y-8577249D01*
X9652088Y-8548677D01*
X9652088Y-8348677D01*
X9537802Y-8348677D01*
X9909231Y-8605820D02*
X9909231Y-8005820D01*
X10252088Y-8605820D01*
X10252088Y-8005820D01*
X10537802Y-8605820D02*
X10537802Y-8005820D01*
X10680660Y-8005820D01*
X10766374Y-8034392D01*
X10823517Y-8091534D01*
X10852088Y-8148677D01*
X10880660Y-8262963D01*
X10880660Y-8348677D01*
X10852088Y-8462963D01*
X10823517Y-8520106D01*
X10766374Y-8577249D01*
X10680660Y-8605820D01*
X10537802Y-8605820D01*
G04 #@! TO.C,J10*
X36022136Y-8577249D02*
X36107850Y-8605820D01*
X36250708Y-8605820D01*
X36307850Y-8577249D01*
X36336422Y-8548677D01*
X36364993Y-8491534D01*
X36364993Y-8434392D01*
X36336422Y-8377249D01*
X36307850Y-8348677D01*
X36250708Y-8320106D01*
X36136422Y-8291534D01*
X36079279Y-8262963D01*
X36050708Y-8234392D01*
X36022136Y-8177249D01*
X36022136Y-8120106D01*
X36050708Y-8062963D01*
X36079279Y-8034392D01*
X36136422Y-8005820D01*
X36279279Y-8005820D01*
X36364993Y-8034392D01*
X36622136Y-8605820D02*
X36622136Y-8005820D01*
X36764993Y-8005820D01*
X36850708Y-8034392D01*
X36907850Y-8091534D01*
X36936422Y-8148677D01*
X36964993Y-8262963D01*
X36964993Y-8348677D01*
X36936422Y-8462963D01*
X36907850Y-8520106D01*
X36850708Y-8577249D01*
X36764993Y-8605820D01*
X36622136Y-8605820D01*
X37193565Y-8434392D02*
X37479279Y-8434392D01*
X37136422Y-8605820D02*
X37336422Y-8005820D01*
X37536422Y-8605820D01*
X33496422Y-8577249D02*
X33582136Y-8605820D01*
X33724993Y-8605820D01*
X33782136Y-8577249D01*
X33810708Y-8548677D01*
X33839279Y-8491534D01*
X33839279Y-8434392D01*
X33810708Y-8377249D01*
X33782136Y-8348677D01*
X33724993Y-8320106D01*
X33610708Y-8291534D01*
X33553565Y-8262963D01*
X33524993Y-8234392D01*
X33496422Y-8177249D01*
X33496422Y-8120106D01*
X33524993Y-8062963D01*
X33553565Y-8034392D01*
X33610708Y-8005820D01*
X33753565Y-8005820D01*
X33839279Y-8034392D01*
X34439279Y-8548677D02*
X34410708Y-8577249D01*
X34324993Y-8605820D01*
X34267850Y-8605820D01*
X34182136Y-8577249D01*
X34124993Y-8520106D01*
X34096422Y-8462963D01*
X34067850Y-8348677D01*
X34067850Y-8262963D01*
X34096422Y-8148677D01*
X34124993Y-8091534D01*
X34182136Y-8034392D01*
X34267850Y-8005820D01*
X34324993Y-8005820D01*
X34410708Y-8034392D01*
X34439279Y-8062963D01*
X34982136Y-8605820D02*
X34696422Y-8605820D01*
X34696422Y-8005820D01*
X30784993Y-8005820D02*
X31156422Y-8005820D01*
X30956422Y-8234392D01*
X31042136Y-8234392D01*
X31099279Y-8262963D01*
X31127850Y-8291534D01*
X31156422Y-8348677D01*
X31156422Y-8491534D01*
X31127850Y-8548677D01*
X31099279Y-8577249D01*
X31042136Y-8605820D01*
X30870708Y-8605820D01*
X30813565Y-8577249D01*
X30784993Y-8548677D01*
X31413565Y-8548677D02*
X31442136Y-8577249D01*
X31413565Y-8605820D01*
X31384993Y-8577249D01*
X31413565Y-8548677D01*
X31413565Y-8605820D01*
X31642136Y-8005820D02*
X32013565Y-8005820D01*
X31813565Y-8234392D01*
X31899279Y-8234392D01*
X31956422Y-8262963D01*
X31984993Y-8291534D01*
X32013565Y-8348677D01*
X32013565Y-8491534D01*
X31984993Y-8548677D01*
X31956422Y-8577249D01*
X31899279Y-8605820D01*
X31727850Y-8605820D01*
X31670708Y-8577249D01*
X31642136Y-8548677D01*
X32184993Y-8005820D02*
X32384993Y-8605820D01*
X32584993Y-8005820D01*
X28673565Y-8034392D02*
X28616422Y-8005820D01*
X28530708Y-8005820D01*
X28444993Y-8034392D01*
X28387850Y-8091534D01*
X28359279Y-8148677D01*
X28330708Y-8262963D01*
X28330708Y-8348677D01*
X28359279Y-8462963D01*
X28387850Y-8520106D01*
X28444993Y-8577249D01*
X28530708Y-8605820D01*
X28587850Y-8605820D01*
X28673565Y-8577249D01*
X28702136Y-8548677D01*
X28702136Y-8348677D01*
X28587850Y-8348677D01*
X28959279Y-8605820D02*
X28959279Y-8005820D01*
X29302136Y-8605820D01*
X29302136Y-8005820D01*
X29587850Y-8605820D02*
X29587850Y-8005820D01*
X29730708Y-8005820D01*
X29816422Y-8034392D01*
X29873565Y-8091534D01*
X29902136Y-8148677D01*
X29930708Y-8262963D01*
X29930708Y-8348677D01*
X29902136Y-8462963D01*
X29873565Y-8520106D01*
X29816422Y-8577249D01*
X29730708Y-8605820D01*
X29587850Y-8605820D01*
G04 #@! TD*
%LPC*%
D14*
G04 #@! TO.C,D1*
X18256155Y-44052992D03*
D15*
X11906155Y-44052992D03*
G04 #@! TD*
D14*
G04 #@! TO.C,D2*
X37306155Y-44052992D03*
D15*
X30956155Y-44052992D03*
G04 #@! TD*
D14*
G04 #@! TO.C,D3*
X56356155Y-44052992D03*
D15*
X50006155Y-44052992D03*
G04 #@! TD*
D14*
G04 #@! TO.C,D4*
X75406155Y-44052992D03*
D15*
X69056155Y-44052992D03*
G04 #@! TD*
D14*
G04 #@! TO.C,D5*
X94456155Y-44052992D03*
D15*
X88106155Y-44052992D03*
G04 #@! TD*
D14*
G04 #@! TO.C,D6*
X18256155Y-63102992D03*
D15*
X11906155Y-63102992D03*
G04 #@! TD*
D14*
G04 #@! TO.C,D7*
X37306155Y-63102992D03*
D15*
X30956155Y-63102992D03*
G04 #@! TD*
D14*
G04 #@! TO.C,D8*
X56356155Y-63102992D03*
D15*
X50006155Y-63102992D03*
G04 #@! TD*
D14*
G04 #@! TO.C,D9*
X75406155Y-63102992D03*
D15*
X69056155Y-63102992D03*
G04 #@! TD*
D14*
G04 #@! TO.C,D10*
X94456155Y-63102992D03*
D15*
X88106155Y-63102992D03*
G04 #@! TD*
D14*
G04 #@! TO.C,D11*
X30162405Y-82152992D03*
D15*
X23812405Y-82152992D03*
G04 #@! TD*
D14*
G04 #@! TO.C,D12*
X77787405Y-82152992D03*
D15*
X71437405Y-82152992D03*
G04 #@! TD*
D16*
G04 #@! TO.C,R1*
X66575530Y-36185492D03*
X66575530Y-33645492D03*
X64035530Y-36185492D03*
X64035530Y-33645492D03*
X61495530Y-36185492D03*
X61495530Y-33645492D03*
X58955530Y-36185492D03*
X58955530Y-33645492D03*
X56415530Y-36185492D03*
X56415530Y-33645492D03*
X53875530Y-36185492D03*
X53875530Y-33645492D03*
X51335530Y-36185492D03*
X51335530Y-33645492D03*
X48795530Y-36185492D03*
X48795530Y-33645492D03*
X46255530Y-36185492D03*
X46255530Y-33645492D03*
X43715530Y-36185492D03*
X43715530Y-33645492D03*
X41175530Y-36185492D03*
X41175530Y-33645492D03*
X38635530Y-36185492D03*
X38635530Y-33645492D03*
X36095530Y-36185492D03*
X36095530Y-33645492D03*
X33555530Y-36185492D03*
X33555530Y-33645492D03*
X31015530Y-36185492D03*
X31015530Y-33645492D03*
X28475530Y-36185492D03*
X28475530Y-33645492D03*
X25935530Y-36185492D03*
X25935530Y-33645492D03*
X23395530Y-36185492D03*
X23395530Y-33645492D03*
X20855530Y-36185492D03*
X20855530Y-33645492D03*
X18315530Y-36185492D03*
D17*
X18315530Y-33645492D03*
D18*
X71465530Y-34915492D03*
X71465530Y-11915492D03*
X13465530Y-11915492D03*
X13465530Y-34915492D03*
G04 #@! TD*
D19*
G04 #@! TO.C,J8*
X7342206Y-10477536D03*
X7342206Y-13017536D03*
X7342206Y-15557536D03*
D20*
X7342206Y-18097536D03*
G04 #@! TD*
D19*
G04 #@! TO.C,J7*
X7342206Y-29527584D03*
X7342206Y-32067584D03*
X7342206Y-34607584D03*
D20*
X7342206Y-37147584D03*
G04 #@! TD*
D19*
G04 #@! TO.C,J9*
X17700660Y-6746892D03*
X15160660Y-6746892D03*
X12620660Y-6746892D03*
D20*
X10080660Y-6746892D03*
G04 #@! TD*
D19*
G04 #@! TO.C,J10*
X36750708Y-6746892D03*
X34210708Y-6746892D03*
X31670708Y-6746892D03*
D20*
X29130708Y-6746892D03*
G04 #@! TD*
D18*
G04 #@! TO.C,*
X6746780Y-1984242D03*
G04 #@! TD*
G04 #@! TO.C,*
X47228030Y-1984242D03*
G04 #@! TD*
G04 #@! TO.C,*
X37537768Y-1984242D03*
G04 #@! TD*
G04 #@! TO.C,*
X42862405Y-1984242D03*
G04 #@! TD*
G04 #@! TO.C,*
X32940530Y-1984242D03*
G04 #@! TD*
G04 #@! TO.C,*
X51990530Y-1984242D03*
G04 #@! TD*
G04 #@! TO.C,*
X26205338Y-1984242D03*
G04 #@! TD*
G04 #@! TO.C,*
X11178756Y-1984242D03*
G04 #@! TD*
G04 #@! TO.C,*
X21828030Y-1984242D03*
G04 #@! TD*
G04 #@! TO.C,*
X56422506Y-1984242D03*
G04 #@! TD*
G04 #@! TO.C,*
X67071780Y-1984242D03*
G04 #@! TD*
G04 #@! TO.C,*
X78184280Y-1984242D03*
G04 #@! TD*
G04 #@! TO.C,*
X88106155Y-1984242D03*
G04 #@! TD*
G04 #@! TO.C,*
X82781518Y-1984242D03*
G04 #@! TD*
G04 #@! TO.C,*
X92471780Y-1984242D03*
G04 #@! TD*
G04 #@! TO.C,*
X97234280Y-1984242D03*
G04 #@! TD*
G04 #@! TO.C,*
X71449088Y-1984242D03*
G04 #@! TD*
G04 #@! TO.C,*
X1984280Y-1984242D03*
G04 #@! TD*
G04 #@! TO.C,*
X1984280Y-6767645D03*
G04 #@! TD*
G04 #@! TO.C,*
X1984280Y-21827992D03*
G04 #@! TD*
G04 #@! TO.C,*
X1984280Y-26070193D03*
G04 #@! TD*
G04 #@! TO.C,*
X1984280Y-38893617D03*
G04 #@! TD*
G04 #@! TO.C,*
X1984280Y-43325593D03*
G04 #@! TD*
G04 #@! TO.C,*
X1984280Y-53974867D03*
G04 #@! TD*
G04 #@! TO.C,*
X1984280Y-58486023D03*
G04 #@! TD*
G04 #@! TO.C,*
X1984280Y-67071742D03*
G04 #@! TD*
G04 #@! TO.C,*
X1984280Y-71449050D03*
G04 #@! TD*
G04 #@! TO.C,*
X1984280Y-78184242D03*
G04 #@! TD*
G04 #@! TO.C,*
X1984280Y-82781480D03*
G04 #@! TD*
G04 #@! TO.C,*
X1984280Y-88106117D03*
G04 #@! TD*
G04 #@! TO.C,*
X1984280Y-97234242D03*
G04 #@! TD*
D21*
G04 #@! TO.C,H1*
X9524905Y-44052992D03*
G04 #@! TD*
G04 #@! TO.C,H6*
X9524905Y-59927992D03*
G04 #@! TD*
G04 #@! TO.C,H7*
X28574905Y-59927992D03*
G04 #@! TD*
G04 #@! TO.C,H11*
X5953030Y-52387367D03*
G04 #@! TD*
G04 #@! TO.C,H12*
X21828030Y-52387367D03*
G04 #@! TD*
G04 #@! TO.C,H17*
X63103030Y-52387367D03*
G04 #@! TD*
G04 #@! TO.C,H19*
X82153030Y-52387367D03*
G04 #@! TD*
G04 #@! TO.C,H21*
X9524905Y-63102992D03*
G04 #@! TD*
G04 #@! TO.C,H26*
X9524905Y-78977992D03*
G04 #@! TD*
G04 #@! TO.C,H31*
X5953030Y-71437367D03*
G04 #@! TD*
G04 #@! TO.C,H32*
X21828030Y-71437367D03*
G04 #@! TD*
G04 #@! TO.C,H36*
X59928030Y-71437367D03*
G04 #@! TD*
G04 #@! TO.C,H38*
X78978030Y-71437367D03*
G04 #@! TD*
G04 #@! TO.C,H2*
X28574905Y-44052992D03*
G04 #@! TD*
G04 #@! TO.C,H3*
X47624905Y-44052992D03*
G04 #@! TD*
G04 #@! TO.C,H4*
X66674905Y-44052992D03*
G04 #@! TD*
G04 #@! TO.C,H5*
X85724905Y-44052992D03*
G04 #@! TD*
G04 #@! TO.C,H8*
X47624905Y-59927992D03*
G04 #@! TD*
G04 #@! TO.C,H9*
X66674905Y-59927992D03*
G04 #@! TD*
G04 #@! TO.C,H10*
X85724905Y-59927992D03*
G04 #@! TD*
G04 #@! TO.C,H13*
X25003030Y-52387367D03*
G04 #@! TD*
G04 #@! TO.C,H14*
X40878030Y-52387367D03*
G04 #@! TD*
G04 #@! TO.C,H15*
X44053030Y-52387367D03*
G04 #@! TD*
G04 #@! TO.C,H16*
X59928030Y-52387367D03*
G04 #@! TD*
G04 #@! TO.C,H18*
X78978030Y-52387367D03*
G04 #@! TD*
G04 #@! TO.C,H20*
X98028030Y-52387367D03*
G04 #@! TD*
G04 #@! TO.C,H22*
X28574905Y-63102992D03*
G04 #@! TD*
G04 #@! TO.C,H23*
X47624905Y-63102992D03*
G04 #@! TD*
G04 #@! TO.C,H24*
X66674905Y-63102992D03*
G04 #@! TD*
G04 #@! TO.C,H25*
X85724905Y-63102992D03*
G04 #@! TD*
G04 #@! TO.C,H27*
X28574905Y-78977992D03*
G04 #@! TD*
G04 #@! TO.C,H28*
X47624905Y-78977992D03*
G04 #@! TD*
G04 #@! TO.C,H29*
X66674905Y-78977992D03*
G04 #@! TD*
G04 #@! TO.C,H30*
X85724905Y-78977992D03*
G04 #@! TD*
G04 #@! TO.C,H33*
X25003030Y-71437367D03*
G04 #@! TD*
G04 #@! TO.C,H34*
X40878030Y-71437367D03*
G04 #@! TD*
G04 #@! TO.C,H35*
X44053030Y-71437367D03*
G04 #@! TD*
G04 #@! TO.C,H37*
X63103030Y-71437367D03*
G04 #@! TD*
G04 #@! TO.C,H39*
X82153030Y-71437367D03*
G04 #@! TD*
G04 #@! TO.C,H40*
X98028030Y-71437367D03*
G04 #@! TD*
G04 #@! TO.C,H41*
X21431155Y-82152992D03*
G04 #@! TD*
G04 #@! TO.C,H42*
X69056155Y-82152992D03*
G04 #@! TD*
G04 #@! TO.C,H43*
X21431155Y-98027992D03*
G04 #@! TD*
G04 #@! TO.C,H44*
X69056155Y-98027992D03*
G04 #@! TD*
G04 #@! TO.C,H45*
X17859280Y-90487367D03*
G04 #@! TD*
G04 #@! TO.C,H46*
X33734280Y-90487367D03*
G04 #@! TD*
G04 #@! TO.C,H47*
X65484280Y-90487367D03*
G04 #@! TD*
G04 #@! TO.C,H48*
X81359280Y-90487367D03*
G04 #@! TD*
D20*
G04 #@! TO.C,J1*
X84296155Y-18335492D03*
X84296155Y-15795492D03*
X84296155Y-13255492D03*
X84296155Y-10715492D03*
X86201155Y-17065492D03*
X86201155Y-14525492D03*
X86201155Y-11985492D03*
X86201155Y-9445492D03*
D22*
X90266155Y-5760492D03*
X90266155Y-22020492D03*
D23*
X93696155Y-20240492D03*
X93696155Y-7540492D03*
D24*
X89376155Y-17470492D03*
X89376155Y-15430492D03*
X89376155Y-13390492D03*
X89376155Y-11350492D03*
X91156155Y-16450492D03*
X91156155Y-14410492D03*
X91156155Y-12370492D03*
X91156155Y-10330492D03*
G04 #@! TD*
D20*
G04 #@! TO.C,J2*
X84296155Y-37385492D03*
X84296155Y-34845492D03*
X84296155Y-32305492D03*
X84296155Y-29765492D03*
X86201155Y-36115492D03*
X86201155Y-33575492D03*
X86201155Y-31035492D03*
X86201155Y-28495492D03*
D22*
X90266155Y-24810492D03*
X90266155Y-41070492D03*
D23*
X93696155Y-39290492D03*
X93696155Y-26590492D03*
D24*
X89376155Y-36520492D03*
X89376155Y-34480492D03*
X89376155Y-32440492D03*
X89376155Y-30400492D03*
X91156155Y-35500492D03*
X91156155Y-33460492D03*
X91156155Y-31420492D03*
X91156155Y-29380492D03*
G04 #@! TD*
D25*
G04 #@! TO.C,SW12*
X61483780Y-83105492D03*
X85359780Y-83105492D03*
D26*
X61483780Y-98345492D03*
X85359780Y-98345492D03*
D27*
X69611780Y-87550492D03*
D20*
X68341780Y-90090492D03*
X78501780Y-90090492D03*
D28*
X78921780Y-90090492D03*
X67921780Y-90090492D03*
D29*
X73421780Y-90090492D03*
D27*
X75961780Y-85010492D03*
X73421780Y-95990492D03*
X68421780Y-93790492D03*
D20*
X68921780Y-90090492D03*
X77921780Y-90090492D03*
G04 #@! TD*
D25*
G04 #@! TO.C,SW11*
X13858780Y-83105492D03*
X37734780Y-83105492D03*
D26*
X13858780Y-98345492D03*
X37734780Y-98345492D03*
D27*
X21986780Y-87550492D03*
D20*
X20716780Y-90090492D03*
X30876780Y-90090492D03*
D28*
X31296780Y-90090492D03*
X20296780Y-90090492D03*
D29*
X25796780Y-90090492D03*
D27*
X28336780Y-85010492D03*
X25796780Y-95990492D03*
X20796780Y-93790492D03*
D20*
X21296780Y-90090492D03*
X30296780Y-90090492D03*
G04 #@! TD*
G04 #@! TO.C,SW5*
X94590530Y-51990492D03*
X85590530Y-51990492D03*
D27*
X85090530Y-55690492D03*
X90090530Y-57890492D03*
X92630530Y-46910492D03*
D29*
X90090530Y-51990492D03*
D28*
X84590530Y-51990492D03*
X95590530Y-51990492D03*
D20*
X95170530Y-51990492D03*
X85010530Y-51990492D03*
D27*
X86280530Y-49450492D03*
G04 #@! TD*
D20*
G04 #@! TO.C,SW2*
X37440530Y-51990492D03*
X28440530Y-51990492D03*
D27*
X27940530Y-55690492D03*
X32940530Y-57890492D03*
X35480530Y-46910492D03*
D29*
X32940530Y-51990492D03*
D28*
X27440530Y-51990492D03*
X38440530Y-51990492D03*
D20*
X38020530Y-51990492D03*
X27860530Y-51990492D03*
D27*
X29130530Y-49450492D03*
G04 #@! TD*
D20*
G04 #@! TO.C,SW3*
X56490530Y-51990492D03*
X47490530Y-51990492D03*
D27*
X46990530Y-55690492D03*
X51990530Y-57890492D03*
X54530530Y-46910492D03*
D29*
X51990530Y-51990492D03*
D28*
X46490530Y-51990492D03*
X57490530Y-51990492D03*
D20*
X57070530Y-51990492D03*
X46910530Y-51990492D03*
D27*
X48180530Y-49450492D03*
G04 #@! TD*
D20*
G04 #@! TO.C,SW4*
X75540530Y-51990492D03*
X66540530Y-51990492D03*
D27*
X66040530Y-55690492D03*
X71040530Y-57890492D03*
X73580530Y-46910492D03*
D29*
X71040530Y-51990492D03*
D28*
X65540530Y-51990492D03*
X76540530Y-51990492D03*
D20*
X76120530Y-51990492D03*
X65960530Y-51990492D03*
D27*
X67230530Y-49450492D03*
G04 #@! TD*
D20*
G04 #@! TO.C,SW7*
X37440530Y-71040492D03*
X28440530Y-71040492D03*
D27*
X27940530Y-74740492D03*
X32940530Y-76940492D03*
X35480530Y-65960492D03*
D29*
X32940530Y-71040492D03*
D28*
X27440530Y-71040492D03*
X38440530Y-71040492D03*
D20*
X38020530Y-71040492D03*
X27860530Y-71040492D03*
D27*
X29130530Y-68500492D03*
G04 #@! TD*
D20*
G04 #@! TO.C,SW8*
X56490530Y-71040492D03*
X47490530Y-71040492D03*
D27*
X46990530Y-74740492D03*
X51990530Y-76940492D03*
X54530530Y-65960492D03*
D29*
X51990530Y-71040492D03*
D28*
X46490530Y-71040492D03*
X57490530Y-71040492D03*
D20*
X57070530Y-71040492D03*
X46910530Y-71040492D03*
D27*
X48180530Y-68500492D03*
G04 #@! TD*
D20*
G04 #@! TO.C,SW9*
X75540530Y-71040492D03*
X66540530Y-71040492D03*
D27*
X66040530Y-74740492D03*
X71040530Y-76940492D03*
X73580530Y-65960492D03*
D29*
X71040530Y-71040492D03*
D28*
X65540530Y-71040492D03*
X76540530Y-71040492D03*
D20*
X76120530Y-71040492D03*
X65960530Y-71040492D03*
D27*
X67230530Y-68500492D03*
G04 #@! TD*
D20*
G04 #@! TO.C,SW10*
X94590530Y-71040492D03*
X85590530Y-71040492D03*
D27*
X85090530Y-74740492D03*
X90090530Y-76940492D03*
X92630530Y-65960492D03*
D29*
X90090530Y-71040492D03*
D28*
X84590530Y-71040492D03*
X95590530Y-71040492D03*
D20*
X95170530Y-71040492D03*
X85010530Y-71040492D03*
D27*
X86280530Y-68500492D03*
G04 #@! TD*
D20*
G04 #@! TO.C,SW1*
X18390530Y-51990492D03*
X9390530Y-51990492D03*
D27*
X8890530Y-55690492D03*
X13890530Y-57890492D03*
X16430530Y-46910492D03*
D29*
X13890530Y-51990492D03*
D28*
X8390530Y-51990492D03*
X19390530Y-51990492D03*
D20*
X18970530Y-51990492D03*
X8810530Y-51990492D03*
D27*
X10080530Y-49450492D03*
G04 #@! TD*
D20*
G04 #@! TO.C,SW6*
X18390530Y-71040492D03*
X9390530Y-71040492D03*
D27*
X8890530Y-74740492D03*
X13890530Y-76940492D03*
X16430530Y-65960492D03*
D29*
X13890530Y-71040492D03*
D28*
X8390530Y-71040492D03*
X19390530Y-71040492D03*
D20*
X18970530Y-71040492D03*
X8810530Y-71040492D03*
D27*
X10080530Y-68500492D03*
G04 #@! TD*
D20*
G04 #@! TO.C,J3*
X20855530Y-17452992D03*
D19*
X20855530Y-14912992D03*
X20855530Y-12372992D03*
X20855530Y-9832992D03*
D20*
X18315530Y-18722992D03*
D19*
X18315530Y-16182992D03*
X18315530Y-13642992D03*
X18315530Y-11102992D03*
G04 #@! TD*
G04 #@! TO.C,J4*
X66575530Y-17452992D03*
X66575530Y-14912992D03*
X66575530Y-12372992D03*
D20*
X66575530Y-9832992D03*
D19*
X64035530Y-18722992D03*
X64035530Y-16182992D03*
X64035530Y-13642992D03*
D20*
X64035530Y-11102992D03*
G04 #@! TD*
D19*
G04 #@! TO.C,J5*
X18315530Y-22532992D03*
X18315530Y-25072992D03*
X18315530Y-27612992D03*
D20*
X18315530Y-30152992D03*
D19*
X20855530Y-21262992D03*
X20855530Y-23802992D03*
X20855530Y-26342992D03*
D20*
X20855530Y-28882992D03*
G04 #@! TD*
G04 #@! TO.C,J6*
X64035530Y-22532992D03*
D19*
X64035530Y-25072992D03*
X64035530Y-27612992D03*
X64035530Y-30152992D03*
D20*
X66575530Y-21262992D03*
D19*
X66575530Y-23802992D03*
X66575530Y-26342992D03*
X66575530Y-28882992D03*
G04 #@! TD*
D18*
G04 #@! TO.C,H49*
X6746780Y-23812367D03*
G04 #@! TD*
G04 #@! TO.C,H50*
X80565530Y-40084242D03*
G04 #@! TD*
G04 #@! TO.C,H51*
X23415530Y-6746742D03*
G04 #@! TD*
G04 #@! TO.C,H52*
X61515530Y-44846742D03*
G04 #@! TD*
G04 #@! TO.C,H53*
X80565530Y-21034242D03*
G04 #@! TD*
G04 #@! TO.C,H54*
X23415530Y-40084242D03*
G04 #@! TD*
G04 #@! TO.C,H55*
X42465530Y-59134242D03*
G04 #@! TD*
G04 #@! TO.C,H56*
X80565530Y-44846742D03*
G04 #@! TD*
G04 #@! TO.C,H57*
X78184280Y-23415492D03*
G04 #@! TD*
G04 #@! TO.C,H58*
X42465530Y-6746742D03*
G04 #@! TD*
G04 #@! TO.C,H59*
X44846780Y-61515492D03*
G04 #@! TD*
G04 #@! TO.C,H60*
X6746780Y-61515492D03*
G04 #@! TD*
G04 #@! TO.C,H61*
X82946780Y-23415492D03*
G04 #@! TD*
G04 #@! TO.C,H62*
X42465530Y-40084242D03*
G04 #@! TD*
G04 #@! TO.C,H63*
X42465530Y-63896742D03*
G04 #@! TD*
G04 #@! TO.C,H64*
X23415530Y-59134242D03*
G04 #@! TD*
G04 #@! TO.C,H65*
X80565530Y-25796742D03*
G04 #@! TD*
G04 #@! TO.C,H66*
X61515530Y-6746742D03*
G04 #@! TD*
G04 #@! TO.C,H67*
X59134280Y-61515492D03*
G04 #@! TD*
G04 #@! TO.C,H68*
X21034280Y-61515492D03*
G04 #@! TD*
G04 #@! TO.C,H69*
X97234280Y-23415492D03*
G04 #@! TD*
G04 #@! TO.C,H70*
X61515530Y-40084242D03*
G04 #@! TD*
G04 #@! TO.C,H71*
X61515530Y-59134242D03*
G04 #@! TD*
G04 #@! TO.C,H72*
X25796780Y-61515492D03*
G04 #@! TD*
G04 #@! TO.C,H73*
X23415530Y-44846742D03*
G04 #@! TD*
G04 #@! TO.C,H74*
X80565530Y-6746742D03*
G04 #@! TD*
G04 #@! TO.C,H75*
X63896780Y-61515492D03*
G04 #@! TD*
G04 #@! TO.C,H76*
X23415530Y-63896742D03*
G04 #@! TD*
G04 #@! TO.C,H77*
X42465530Y-44846742D03*
G04 #@! TD*
G04 #@! TO.C,H78*
X61515530Y-63896742D03*
G04 #@! TD*
G04 #@! TO.C,H79*
X40084280Y-61515492D03*
G04 #@! TD*
G04 #@! TO.C,H80*
X78184280Y-61515492D03*
G04 #@! TD*
G04 #@! TO.C,H81*
X80565530Y-59134242D03*
G04 #@! TD*
G04 #@! TO.C,H82*
X80565530Y-78184242D03*
G04 #@! TD*
G04 #@! TO.C,H83*
X80565530Y-63896742D03*
G04 #@! TD*
G04 #@! TO.C,H84*
X16271780Y-82946742D03*
G04 #@! TD*
G04 #@! TO.C,H85*
X9128030Y-82946742D03*
G04 #@! TD*
G04 #@! TO.C,H86*
X82946780Y-61515492D03*
G04 #@! TD*
G04 #@! TO.C,H87*
X42465530Y-97234242D03*
G04 #@! TD*
G04 #@! TO.C,H88*
X82946780Y-82946742D03*
G04 #@! TD*
G04 #@! TO.C,H89*
X35321780Y-82946742D03*
G04 #@! TD*
G04 #@! TO.C,H90*
X97234280Y-61515492D03*
G04 #@! TD*
G04 #@! TO.C,H91*
X49540530Y-97234242D03*
G04 #@! TD*
G04 #@! TO.C,H92*
X90090530Y-82946742D03*
G04 #@! TD*
G04 #@! TO.C,H93*
X42465530Y-82946742D03*
G04 #@! TD*
G04 #@! TO.C,H94*
X23415530Y-78184242D03*
G04 #@! TD*
G04 #@! TO.C,H95*
X56753030Y-97234242D03*
G04 #@! TD*
G04 #@! TO.C,H96*
X97234280Y-82946742D03*
G04 #@! TD*
G04 #@! TO.C,H97*
X49609280Y-82946742D03*
G04 #@! TD*
G04 #@! TO.C,H98*
X42465530Y-78184242D03*
G04 #@! TD*
G04 #@! TO.C,H99*
X63896780Y-97234242D03*
G04 #@! TD*
G04 #@! TO.C,H100*
X9128030Y-97234242D03*
G04 #@! TD*
G04 #@! TO.C,H101*
X56753030Y-82946742D03*
G04 #@! TD*
G04 #@! TO.C,H102*
X61515530Y-78184242D03*
G04 #@! TD*
G04 #@! TO.C,H103*
X82946780Y-97234242D03*
G04 #@! TD*
G04 #@! TO.C,H104*
X16271780Y-97234242D03*
G04 #@! TD*
G04 #@! TO.C,H105*
X63896780Y-82946742D03*
G04 #@! TD*
G04 #@! TO.C,H106*
X90090530Y-97234242D03*
G04 #@! TD*
G04 #@! TO.C,H107*
X35321780Y-97234242D03*
G04 #@! TD*
G04 #@! TO.C,H108*
X97234280Y-97234242D03*
G04 #@! TD*
G04 #@! TO.C,*
X1984280Y-92471742D03*
G04 #@! TD*
M02*
